<?xml version="1.0" encoding="utf-8"?>
<!-- Generator: Adobe Illustrator 28.0.0, SVG Export Plug-In . SVG Version: 6.00 Build 0)  -->
<svg version="1.1" id="Capa_1" xmlns="http://www.w3.org/2000/svg" xmlns:xlink="http://www.w3.org/1999/xlink" x="0px" y="0px"
	 viewBox="0 0 500 500" style="enable-background:new 0 0 500 500;" xml:space="preserve">
<style type="text/css">
	.st0{opacity:0.44;}
	.st1{fill:#EFEFEF;}
	.st2{opacity:0.4;fill:#FFFFFF;enable-background:new    ;}
	.st3{opacity:0.4;fill:#EFEFEF;enable-background:new    ;}
	.st4{opacity:0.6;fill:#FFFFFF;enable-background:new    ;}
	.st5{opacity:0.15;fill:#EFEFEF;enable-background:new    ;}
	.st6{opacity:0.2;enable-background:new    ;}
	.st7{fill:#D6D6D6;}
	.st8{fill:#DDDDDD;}
	.st9{fill:#E0E0E0;}
	.st10{opacity:0.1;enable-background:new    ;}
	.st11{fill:#F5F5F5;}
	.st12{opacity:0.5;}
	.st13{fill:#FFFFFF;}
	.st14{opacity:0.2;fill:#FFFFFF;enable-background:new    ;}
	.st15{fill:#FAFAFA;}
	.st16{opacity:0.5;fill:#FFFFFF;enable-background:new    ;}
	.st17{opacity:0.3;fill:#EFEFEF;enable-background:new    ;}
	.st18{opacity:0.15;fill:#FFFFFF;enable-background:new    ;}
	.st19{opacity:0.25;fill:#FFFFFF;enable-background:new    ;}
</style>
<g id="freepik--house--inject-123_00000162350971641411276740000003835903412803874700_" class="st0">
	<g id="freepik--house--inject-123_00000143599976532842639630000012027884794436038577_">
		<g id="freepik--floor--inject-123_00000145030535559134758010000014330390446886456479_">
			<path class="st1" d="M485.5,326.7c-0.1-0.9-0.6-1.7-1.5-2.1L273.9,203.4c-2.2-1.1-4.9-1.1-7.1,0L23.3,343.9
				c-0.8,0.4-1.4,1.2-1.5,2.1v11.5c0.1,0.9,0.7,1.7,1.5,2.1l210.1,121.3c2.2,1.1,4.9,1.1,7.1,0l243.5-140.6c0.8-0.4,1.4-1.2,1.5-2.1
				L485.5,326.7z"/>
			<path class="st2" d="M485.5,326.7c-0.1-0.9-0.6-1.7-1.5-2.1L273.9,203.4c-2.2-1.1-4.9-1.1-7.1,0L23.3,343.9
				c-0.8,0.4-1.4,1.2-1.5,2.1v11.5c0.1,0.9,0.7,1.7,1.5,2.1l210.1,121.3c2.2,1.1,4.9,1.1,7.1,0l243.5-140.6c0.8-0.4,1.4-1.2,1.5-2.1
				L485.5,326.7z"/>
			<path class="st3" d="M270.4,202.5c-1.2,0-2.5,0.3-3.6,0.9L23.3,343.9c-0.8,0.4-1.4,1.2-1.5,2.1v11.5c0.1,0.9,0.7,1.7,1.5,2.1
				l210.1,121.3c1.1,0.6,2.3,0.9,3.6,0.9v-48.9L270.4,202.5z"/>
			<path class="st1" d="M484.1,324.7L273.9,203.4c-2.2-1.1-4.9-1.1-7.1,0L23.3,343.9c-1.1,0.4-1.7,1.6-1.4,2.8
				c0.2,0.6,0.7,1.1,1.4,1.4l210.1,121.3c2.2,1.1,4.9,1.1,7.1,0l243.5-140.6c1.1-0.4,1.7-1.6,1.4-2.8
				C485.2,325.4,484.7,324.9,484.1,324.7z"/>
			<path class="st4" d="M484.1,324.7L273.9,203.4c-2.2-1.1-4.9-1.1-7.1,0L23.3,343.9c-1.1,0.4-1.7,1.6-1.4,2.8
				c0.2,0.6,0.7,1.1,1.4,1.4l210.1,121.3c2.2,1.1,4.9,1.1,7.1,0l243.5-140.6c1.1-0.4,1.7-1.6,1.4-2.8
				C485.2,325.4,484.7,324.9,484.1,324.7z"/>
			<path class="st5" d="M195.6,244.5L23.3,343.9c-1.1,0.4-1.7,1.6-1.4,2.8c0.2,0.6,0.7,1.1,1.4,1.4L182,439.6l111.2-28.3l120.4-69.5
				l-143.2-82.6L195.6,244.5z"/>
		</g>
		<g id="freepik--Tree--inject-123">
			<g id="freepik--tree--inject-123">
				<path class="st1" d="M433.1,256.5c1.1-0.1,2.3,0.1,3.3,0.6c1.9,1.1,3.6,2.3,5.2,3.7c1.6,1.4,3.7,2.3,5.8,2.5
					c2.2,0.2,4.2-1.2,4.8-3.4c0-0.4,0.1-0.7,0.3-1.1c0.5-0.5,1.2-0.7,1.8-0.5c0.6,0.3,1.2,0.6,1.8,1c2.2,1.3,4.9,1,7.4,0.6
					c2.1-0.3,4.7-1.2,4.7-3.3c0-1.4-1.2-2.4-2.1-3.4c-0.9-1-1.6-2.6-0.8-3.6c0.3-0.4,0.7-0.6,1.2-0.7c2.6-0.8,5.8,0.3,8-1.3
					c1.6-1.4,2.1-3.6,1.2-5.5c-1-1.8-2.7-3.1-4.7-3.6c-1.7-0.4-4-0.7-4.6-2.3c-0.6-1.7,0.6-3,1.9-3.9c1.4-0.7,2.7-1.7,3.7-2.8
					c0.9-1.4,0.9-3.2,0.1-4.6c-0.8-1.4-2.3-2.4-3.9-2.7c-0.8-0.1-1.6-0.2-2.4-0.5c-0.7-0.3-1.1-1.2-0.9-2c0.2-0.4,0.7-0.7,1-1.1
					c0.5-0.9,0.2-2-0.7-2.5c-0.8-0.5-1.7-0.8-2.6-1c-1.9-0.6-2.9-1.6-2.3-3.5s3.3-1.8,4.1-3.7c0.8-1.9-1.2-5.2-2.7-6.3
					c-1.6-0.9-3.2-1.6-4.9-2.2c-1.8-0.6-3-2.1-3.4-4c-0.1-1.9,1.3-3.4,2.4-4.9c1.1-1.5,2.1-3.6,1.1-5.1s-3.1-1.6-4.8-2.2
					c-2.1-0.7-3.8-2.2-4.7-4.3c-0.4-1.1-0.7-2.2-1.2-3.3c-1.6-3.1-6-4.5-9.3-4.1c-1.4,0.1-2.6,0.9-3.2,2.1c-0.6,0.6-1,1.4-1.2,2.2
					c-0.2,1.5,0.5,3.5-0.9,4.6c-2.2,1.8-5.5-0.6-5.4,3.3c0,1.5,0.2,3,0.6,4.4c0.1,0.2,0.1,0.4,0.1,0.7c0.1,0.5,0.2,1,0.1,1.5
					c-0.3,1.1-1.1,2-2.2,2.4c-1.6,0.3-3.3,0.5-4.9,0.5c-1.7,0.2-3.2,1.1-4.2,2.4c-1,1.4-1.3,3.1-0.8,4.7c0.6,1.6,2.1,3.1,1.5,4.7
					c-0.6,1.6-2.6,1.8-3.9,2.9c-1.4,1.3-2,3.2-1.5,5c0.3,0.8,0.4,1.7,0.5,2.6c-0.1,2.7-3.5,3.9-4.9,6.1c-1,2.1-1.2,4.4-0.6,6.6
					c0.1,1,0.4,2.1,0.9,3c0.5,0.9,1.4,1.4,2,2.2c0.9,1.3,1,3,0.3,4.4c-0.8,1.3-2,2.4-3.4,3.1c-1.4,0.8-2.3,2.3-2.4,3.9
					c-0.2,3,1.5,3.6,3.8,4.6c1.8,0.8,1.6,1,1.6,3.2c0,4.4,1.5,5.7,5.9,4.9c1.4-0.4,2.8-0.5,4.2-0.3c1.6,0.5,1.1,0.9,1.2,2.3
					c0.1,3.6,4.3,2.6,6,1C427.9,258.8,430.4,256.7,433.1,256.5z"/>
				<path class="st6" d="M433.1,256.5c1.1-0.1,2.3,0.1,3.3,0.6c1.9,1.1,3.6,2.3,5.2,3.7c1.6,1.4,3.7,2.3,5.8,2.5
					c2.2,0.2,4.2-1.2,4.8-3.4c0-0.4,0.1-0.7,0.3-1.1c0.5-0.5,1.2-0.7,1.8-0.5c0.6,0.3,1.2,0.6,1.8,1c2.2,1.3,4.9,1,7.4,0.6
					c2.1-0.3,4.7-1.2,4.7-3.3c0-1.4-1.2-2.4-2.1-3.4c-0.9-1-1.6-2.6-0.8-3.6c0.3-0.4,0.7-0.6,1.2-0.7c2.6-0.8,5.8,0.3,8-1.3
					c1.6-1.4,2.1-3.6,1.2-5.5c-1-1.8-2.7-3.1-4.7-3.6c-1.7-0.4-4-0.7-4.6-2.3c-0.6-1.7,0.6-3,1.9-3.9c1.4-0.7,2.7-1.7,3.7-2.8
					c0.9-1.4,0.9-3.2,0.1-4.6c-0.8-1.4-2.3-2.4-3.9-2.7c-0.8-0.1-1.6-0.2-2.4-0.5c-0.7-0.3-1.1-1.2-0.9-2c0.2-0.4,0.7-0.7,1-1.1
					c0.5-0.9,0.2-2-0.7-2.5c-0.8-0.5-1.7-0.8-2.6-1c-1.9-0.6-2.9-1.6-2.3-3.5s3.3-1.8,4.1-3.7c0.8-1.9-1.2-5.2-2.7-6.3
					c-1.6-0.9-3.2-1.6-4.9-2.2c-1.8-0.6-3-2.1-3.4-4c-0.1-1.9,1.3-3.4,2.4-4.9c1.1-1.5,2.1-3.6,1.1-5.1s-3.1-1.6-4.8-2.2
					c-2.1-0.7-3.8-2.2-4.7-4.3c-0.4-1.1-0.7-2.2-1.2-3.3c-1.6-3.1-6-4.5-9.3-4.1c-1.4,0.1-2.6,0.9-3.2,2.1c-0.6,0.6-1,1.4-1.2,2.2
					c-0.2,1.5,0.5,3.5-0.9,4.6c-2.2,1.8-5.5-0.6-5.4,3.3c0,1.5,0.2,3,0.6,4.4c0.1,0.2,0.1,0.4,0.1,0.7c0.1,0.5,0.2,1,0.1,1.5
					c-0.3,1.1-1.1,2-2.2,2.4c-1.6,0.3-3.3,0.5-4.9,0.5c-1.7,0.2-3.2,1.1-4.2,2.4c-1,1.4-1.3,3.1-0.8,4.7c0.6,1.6,2.1,3.1,1.5,4.7
					c-0.6,1.6-2.6,1.8-3.9,2.9c-1.4,1.3-2,3.2-1.5,5c0.3,0.8,0.4,1.7,0.5,2.6c-0.1,2.7-3.5,3.9-4.9,6.1c-1,2.1-1.2,4.4-0.6,6.6
					c0.1,1,0.4,2.1,0.9,3c0.5,0.9,1.4,1.4,2,2.2c0.9,1.3,1,3,0.3,4.4c-0.8,1.3-2,2.4-3.4,3.1c-1.4,0.8-2.3,2.3-2.4,3.9
					c-0.2,3,1.5,3.6,3.8,4.6c1.8,0.8,1.6,1,1.6,3.2c0,4.4,1.5,5.7,5.9,4.9c1.4-0.4,2.8-0.5,4.2-0.3c1.6,0.5,1.1,0.9,1.2,2.3
					c0.1,3.6,4.3,2.6,6,1C427.9,258.8,430.4,256.7,433.1,256.5z"/>
				<path class="st6" d="M467.9,255.5c-0.2-0.4-0.5-0.7-0.8-1.1c-0.3-0.4-0.7-0.7-1.1-1.1c-0.5-0.5-0.9-1.1-1.1-1.8
					c0-0.2-0.1-0.3-0.1-0.5c0-0.3,0-0.6,0.1-0.9c0.1-0.2,0.1-0.3,0.2-0.4c0.3-0.4,0.7-0.6,1.2-0.7c0.3-0.1,0.6-0.2,0.9-0.2h0.3h0.7
					h0.2c0.8,0,1.5,0,2.3,0h0.4h0.5h0.5h0.4l0,0c-1.2-0.3-2.3-0.5-3.5-0.5c-2.8-0.1-5.6,1-7.6,3c1.1,1.3,1.6,2.9,1.5,4.6
					c-4.9,1.3-9.9-5.3-14.5-3.3c0.3,2.4,0,5.6-2.3,6.1c-1.4,0.2-2.8-0.5-3.6-1.7c-0.8-1.1-1.4-2.5-2.2-3.6c-2.5-3-6.8-3.6-10.1-1.5
					c-1.3,0.9-2.9,2.3-4.1,1.4c-1.3-0.9-0.5-3.7-2.1-4.4c-1-0.5-2.4,0.3-3.3-0.5c-0.3-0.3-0.5-0.8-0.6-1.2c-0.6-2.5-1.1-5.4,0.5-7.5
					c1.6-2.1,4.4-2.9,4.1-5.2c-0.3-2-2.8-2.5-4.7-2.8c-2-0.2-4.4-1.2-4.3-3.1s2.7-2.9,3.1-4.8c0.2-0.8-0.1-1.6,0.2-2.4
					c0.6-1.1,2.2-1.2,3.1-2c1.6-1.5,0.4-4.3,0.9-6.4c0.3-1.6,1.6-2.8,2-4.3c0.4-2.1-0.5-4.2-2.2-5.5c-0.2-0.3-0.5-0.4-0.8-0.5
					c-0.7-0.3-1.4-0.7-1.9-1.3c-1.2-1-1.8-2.4-1.8-3.9c0-0.5,0.1-1,0.3-1.4c0.5-0.8,0.7-1.6,0.7-2.5c-1.5,0.3-2.9,1.1-3.9,2.4
					c-1,1.4-1.3,3.1-0.8,4.7c0.6,1.6,2.1,3.1,1.5,4.7s-2.6,1.8-3.9,2.9c-1.4,1.3-2,3.2-1.5,5c0.3,0.8,0.4,1.7,0.5,2.6
					c-0.1,2.7-3.5,3.9-4.9,6.1c-1,2.1-1.2,4.4-0.6,6.6c0.1,1,0.4,2.1,0.9,3c0.5,0.9,1.4,1.4,2,2.2c0.9,1.3,1,3,0.3,4.4
					c-0.8,1.3-2,2.4-3.4,3.1c-1.4,0.8-2.3,2.3-2.4,3.9c-0.2,3,1.5,3.6,3.8,4.6c1.8,0.8,1.6,1,1.6,3.2c0,4.4,1.5,5.7,5.9,4.9
					c1.4-0.4,2.8-0.5,4.2-0.3c1.6,0.5,1.1,0.9,1.2,2.3c0.1,3.6,4.3,2.6,6,1c2-1.8,4.6-3.8,7.3-4.1c1.1-0.1,2.3,0.1,3.3,0.6
					c1.8,1,3.4,2.2,4.9,3.5c0.6,0.4,1.2,0.9,1.8,1.3h0.1c0.2,0.1,0.4,0.2,0.6,0.4l0.3,0.1l0.4,0.2l0.4,0.2l0.4,0.1l0.4,0.1l0.5,0.1
					h0.4c0.3,0.1,0.6,0.1,0.9,0.1c1.1,0,2.2-0.3,3.1-0.9c0.4-0.3,0.8-0.7,1.2-1.1c0.3-0.4,0.5-0.9,0.6-1.4c0-0.4,0.1-0.7,0.3-1.1
					c0.2-0.3,0.5-0.5,0.8-0.5c0.2,0,0.4,0,0.5,0c0.2,0,0.3,0.1,0.5,0.1c0.6,0.3,1.2,0.6,1.8,1c0.5,0.3,1.1,0.6,1.7,0.7
					c0.6,0.2,1.1,0.3,1.7,0.3c0.6,0,1.3,0,1.9,0c0.6,0,1.3-0.1,1.9-0.2c0.6-0.1,1.1-0.2,1.6-0.3c1-0.2,2-0.8,2.6-1.6
					c0.3-0.4,0.4-0.9,0.4-1.3c0-0.3-0.1-0.6-0.2-0.9L467.9,255.5z"/>
				<path class="st7" d="M426.3,220l11.9,23.6v-10.9l1.2-46.3l1.8,46.3v7.3l13.1-22.9l-13.1,28.1V317c0,0.3-0.2,0.5-0.4,0.6
					c-0.7,0.3-1.4,0.3-2.1,0c-0.2-0.1-0.4-0.3-0.4-0.6v-67.4L426.3,220z"/>
			</g>
			<g id="freepik--Bush--inject-123">
				<path id="freepik--bush--inject-123" class="st8" d="M431.4,322.6c3.4,0.5,6.5-0.4,7-4.1c0.4-3,0.4-6.1,0-9.1
					c-0.1-1.1-0.5-2.4-1.6-2.7c-0.9-0.1-1.8,0.4-2.2,1.2c-0.3,0.9-0.5,1.8-0.4,2.7c-0.5-1.2-1.3-2.6-2.7-2.6
					c-1.2,0.1-2.2,1.2-2.2,2.4c0.1,1.2,0.5,2.4,1.1,3.4c-0.9-0.2-1.9-0.1-2.7,0.4c-0.8,0.8-0.8,2.1-0.1,3c0.7,0.8,1.6,1.5,2.7,1.9
					c-0.6-0.3-1.3,0-1.6,0.6c0,0.1,0,0.1-0.1,0.2c-0.1,0.7,0.1,1.4,0.7,1.8C430,322.3,430.7,322.5,431.4,322.6z"/>
				<g id="freepik--bush--inject-123_00000175311397016380169410000007409335509383224715_">
					<path id="freepik--bush--inject-123_00000096051053076844606890000017583994150022161305_" class="st1" d="M437.3,324l8.1-4.7
						c0.7-0.4,1.3-1,1.8-1.6c0.5-0.6,0.8-1.3,1-2.1c0.1-0.3,0-0.6-0.1-0.8c-0.3-0.4-1-0.3-1.4,0c-0.4,0.3-0.8,0.7-1.1,1.1
						c0.2-0.9,0.2-1.9,0.1-2.8c0-0.3-0.1-0.7-0.3-0.9c-0.3-0.2-0.8-0.2-1.1,0c-1,0.7-1.7,1.8-1.9,3c0.2-1.2,0.2-2.4-0.1-3.6
						c-0.3-1.3-1.8-1.8-2.3-0.6c-0.2,0.7-0.4,1.4-0.4,2.1c-0.1,0.9,0,1.8,0.2,2.7c-0.5-1.2-1.2-2.2-2.2-3c-0.3-0.4-0.8-0.5-1.2-0.4
						c-0.5,0.2-0.6,0.9-0.5,1.4c0.1,1.2,0.5,2.3,1.1,3.3c-0.8-0.5-1.8-0.9-2.7-1.1c-0.3-0.1-0.7,0-0.9,0.3c-0.1,0.4-0.1,0.8,0.2,1.1
						c0.6,0.8,1.3,1.5,2.2,2c-0.9-0.3-1.8-0.4-2.7-0.3c-0.3,0-0.5,0.1-0.7,0.3c-0.2,0.3,0,0.8,0.3,1.1c0.6,0.5,1.2,0.8,1.9,1.1
						c-0.4,0-0.8,0-1.2,0.2c-0.4,0.2-0.6,0.5-0.6,1c0.1,0.4,0.5,0.7,0.9,0.8C434.8,324.1,436.1,324.3,437.3,324z"/>
				</g>
			</g>
		</g>
		<g id="freepik--tree--inject-123_00000003092054244418412790000008903019650317626794_">
			<g id="freepik--tree--inject-123_00000075144814057963499870000014375466675918911894_">
				<path class="st1" d="M62.5,248.3c-1.1-0.1-2.3,0.1-3.3,0.6c-1.9,1.1-3.6,2.3-5.2,3.7c-1.6,1.4-3.7,2.3-5.8,2.5
					c-2.2,0.2-4.3-1.2-4.9-3.3c0-0.4-0.1-0.7-0.3-1.1c-0.5-0.5-1.2-0.7-1.8-0.5c-0.6,0.3-1.2,0.6-1.8,1c-2.2,1.3-4.9,1-7.4,0.6
					c-2.1-0.3-4.7-1.2-4.7-3.3c0-1.4,1.2-2.4,2.1-3.3c0.9-0.9,1.6-2.6,0.8-3.6c-0.3-0.4-0.7-0.6-1.2-0.7c-2.6-0.8-5.8,0.3-8-1.3
					c-1.6-1.4-2.1-3.6-1.2-5.5c1-1.8,2.7-3.1,4.7-3.6c1.7-0.4,4-0.7,4.6-2.3c0.6-1.7-0.6-3-1.9-3.9c-1.4-0.7-2.7-1.7-3.7-2.8
					c-0.9-1.4-0.9-3.2-0.1-4.6c0.8-1.4,2.3-2.4,3.9-2.7c0.8-0.1,1.6-0.2,2.4-0.5c0.7-0.3,1.1-1.2,0.9-2c-0.2-0.4-0.7-0.7-1-1.1
					c-0.5-0.9-0.2-2,0.7-2.5c0.8-0.5,1.7-0.8,2.6-1c1.9-0.6,2.9-1.6,2.3-3.5c-0.6-1.9-3.3-1.8-4.1-3.7c-0.8-1.9,1.2-5.3,2.7-6.3
					c1.6-0.9,3.2-1.6,4.9-2.2c1.8-0.6,3-2.1,3.4-4c0.1-1.9-1.3-3.4-2.4-4.9s-2.1-3.6-1.1-5.1c1-1.6,3.1-1.6,4.8-2.2
					c2.1-0.7,3.8-2.2,4.7-4.3c0.4-1.1,0.7-2.2,1.2-3.3c1.6-3.1,6-4.5,9.3-4.1c1.4,0.1,2.6,0.9,3.2,2.1c0.6,0.6,1,1.4,1.2,2.2
					c0.2,1.5-0.5,3.5,0.9,4.6c2.2,1.8,5.5-0.6,5.4,3.3c0,1.5-0.2,3-0.6,4.4c-0.1,0.2-0.1,0.4-0.1,0.7c-0.1,0.5-0.2,1-0.1,1.5
					c0.3,1.1,1.1,2,2.2,2.4c1.6,0.3,3.3,0.5,4.9,0.5c1.7,0.2,3.2,1.1,4.2,2.4c1,1.3,1.3,3.1,0.8,4.7c-0.6,1.6-2.1,3.1-1.5,4.7
					s2.6,1.8,3.9,2.9c1.4,1.3,2,3.2,1.5,5c-0.3,0.8-0.4,1.7-0.5,2.6c0.1,2.7,3.5,3.9,4.9,6.1c1,2.1,1.2,4.4,0.6,6.6
					c-0.1,1-0.4,2.1-0.9,3c-0.5,0.9-1.4,1.4-2,2.2c-0.9,1.3-1,3-0.3,4.4c0.8,1.3,2,2.4,3.4,3.1c1.4,0.8,2.3,2.3,2.4,3.9
					c0.2,3-1.5,3.6-3.8,4.6c-1.8,0.8-1.6,1-1.6,3.2c0,4.4-1.5,5.7-5.8,4.9c-1.4-0.4-2.8-0.5-4.2-0.3c-1.6,0.5-1.1,0.9-1.2,2.3
					c-0.1,3.6-4.3,2.6-6,1C67.8,250.6,65.3,248.6,62.5,248.3z"/>
				<path class="st6" d="M62.5,248.3c-1.1-0.1-2.3,0.1-3.3,0.6c-1.9,1.1-3.6,2.3-5.2,3.7c-1.6,1.4-3.7,2.3-5.8,2.5
					c-2.2,0.2-4.3-1.2-4.9-3.3c0-0.4-0.1-0.7-0.3-1.1c-0.5-0.5-1.2-0.7-1.8-0.5c-0.6,0.3-1.2,0.6-1.8,1c-2.2,1.3-4.9,1-7.4,0.6
					c-2.1-0.3-4.7-1.2-4.7-3.3c0-1.4,1.2-2.4,2.1-3.3c0.9-0.9,1.6-2.6,0.8-3.6c-0.3-0.4-0.7-0.6-1.2-0.7c-2.6-0.8-5.8,0.3-8-1.3
					c-1.6-1.4-2.1-3.6-1.2-5.5c1-1.8,2.7-3.1,4.7-3.6c1.7-0.4,4-0.7,4.6-2.3c0.6-1.7-0.6-3-1.9-3.9c-1.4-0.7-2.7-1.7-3.7-2.8
					c-0.9-1.4-0.9-3.2-0.1-4.6c0.8-1.4,2.3-2.4,3.9-2.7c0.8-0.1,1.6-0.2,2.4-0.5c0.7-0.3,1.1-1.2,0.9-2c-0.2-0.4-0.7-0.7-1-1.1
					c-0.5-0.9-0.2-2,0.7-2.5c0.8-0.5,1.7-0.8,2.6-1c1.9-0.6,2.9-1.6,2.3-3.5c-0.6-1.9-3.3-1.8-4.1-3.7c-0.8-1.9,1.2-5.3,2.7-6.3
					c1.6-0.9,3.2-1.6,4.9-2.2c1.8-0.6,3-2.1,3.4-4c0.1-1.9-1.3-3.4-2.4-4.9s-2.1-3.6-1.1-5.1c1-1.6,3.1-1.6,4.8-2.2
					c2.1-0.7,3.8-2.2,4.7-4.3c0.4-1.1,0.7-2.2,1.2-3.3c1.6-3.1,6-4.5,9.3-4.1c1.4,0.1,2.6,0.9,3.2,2.1c0.6,0.6,1,1.4,1.2,2.2
					c0.2,1.5-0.5,3.5,0.9,4.6c2.2,1.8,5.5-0.6,5.4,3.3c0,1.5-0.2,3-0.6,4.4c-0.1,0.2-0.1,0.4-0.1,0.7c-0.1,0.5-0.2,1-0.1,1.5
					c0.3,1.1,1.1,2,2.2,2.4c1.6,0.3,3.3,0.5,4.9,0.5c1.7,0.2,3.2,1.1,4.2,2.4c1,1.3,1.3,3.1,0.8,4.7c-0.6,1.6-2.1,3.1-1.5,4.7
					s2.6,1.8,3.9,2.9c1.4,1.3,2,3.2,1.5,5c-0.3,0.8-0.4,1.7-0.5,2.6c0.1,2.7,3.5,3.9,4.9,6.1c1,2.1,1.2,4.4,0.6,6.6
					c-0.1,1-0.4,2.1-0.9,3c-0.5,0.9-1.4,1.4-2,2.2c-0.9,1.3-1,3-0.3,4.4c0.8,1.3,2,2.4,3.4,3.1c1.4,0.8,2.3,2.3,2.4,3.9
					c0.2,3-1.5,3.6-3.8,4.6c-1.8,0.8-1.6,1-1.6,3.2c0,4.4-1.5,5.7-5.8,4.9c-1.4-0.4-2.8-0.5-4.2-0.3c-1.6,0.5-1.1,0.9-1.2,2.3
					c-0.1,3.6-4.3,2.6-6,1C67.8,250.6,65.3,248.6,62.5,248.3z"/>
				<path class="st6" d="M27.8,247.4c0.2-0.4,0.5-0.7,0.8-1.1c0.3-0.4,0.7-0.7,1.1-1.1c0.5-0.5,0.9-1.1,1.1-1.8
					c0-0.2,0.1-0.3,0.1-0.5c0-0.3,0-0.6-0.1-0.9c-0.1-0.2-0.1-0.3-0.2-0.4c-0.3-0.4-0.7-0.6-1.2-0.7c-0.3-0.1-0.6-0.2-0.9-0.2H28
					h-0.7h-0.2c-0.8,0-1.5,0-2.3,0h-0.4h-0.5h-0.5H23l0,0c1.2-0.3,2.3-0.5,3.5-0.5c2.8-0.1,5.6,1,7.6,3c-1,1.3-1.6,2.9-1.5,4.6
					c4.9,1.3,9.9-5.3,14.5-3.3c-0.3,2.4,0,5.6,2.3,6.1c1.4,0.2,2.8-0.5,3.6-1.7c0.9-1.1,1.4-2.5,2.2-3.6c2.5-3,6.8-3.6,10.1-1.5
					c1.3,0.9,2.9,2.3,4.1,1.4c1.3-0.9,0.5-3.7,2.1-4.4c1-0.5,2.4,0.3,3.3-0.5c0.3-0.3,0.5-0.8,0.6-1.2c0.6-2.5,1.1-5.4-0.5-7.5
					s-4.4-2.9-4.1-5.2c0.3-2,2.8-2.5,4.7-2.8s4.4-1.2,4.3-3.1c-0.1-2-2.7-2.9-3.1-4.8c-0.2-0.8,0.1-1.6-0.3-2.4
					c-0.6-1.1-2.2-1.2-3.1-2c-1.6-1.5-0.4-4.3-0.9-6.4c-0.3-1.6-1.6-2.8-2-4.3c-0.4-2.1,0.5-4.2,2.2-5.5c0.2-0.3,0.5-0.4,0.8-0.5
					c0.7-0.1,1.4-0.5,2-0.9c1.2-1,1.8-2.4,1.8-3.9c0-0.5-0.1-1-0.3-1.4c-0.5-0.8-0.7-1.6-0.7-2.5c1.5,0.3,2.9,1.1,3.9,2.4
					c1,1.3,1.3,3.1,0.8,4.7c-0.6,1.6-2.1,3.1-1.5,4.7s2.6,1.8,3.9,2.9c1.4,1.3,2,3.2,1.5,5c-0.3,0.8-0.4,1.7-0.5,2.6
					c0.1,2.7,3.5,3.9,4.9,6.1c1,2.1,1.2,4.4,0.6,6.6c-0.1,1-0.4,2.1-0.9,3c-0.5,0.9-1.4,1.4-2,2.2c-0.9,1.3-1,3-0.3,4.4
					c0.8,1.3,2,2.4,3.4,3.1c1.4,0.8,2.3,2.3,2.4,3.9c0.2,3-1.5,3.6-3.8,4.6c-1.8,0.8-1.6,1-1.6,3.2c0,4.4-1.5,5.7-5.8,4.9
					c-1.4-0.4-2.8-0.5-4.2-0.3c-1.6,0.5-1.1,0.9-1.2,2.3c-0.1,3.6-4.3,2.6-6,1c-2-1.8-4.6-3.8-7.3-4.1c-1.1-0.1-2.3,0.1-3.3,0.6
					c-1.8,1-3.4,2.2-4.9,3.5c-0.6,0.4-1.2,0.9-1.8,1.3l0,0c-0.2,0.1-0.4,0.2-0.6,0.4l-0.3,0.1l-0.5,0.2l-0.4,0.2l-0.4,0.1l-0.4,0.1
					l-0.5,0.1h-0.4c-0.3,0-0.6,0-0.9,0c-1.1,0-2.2-0.3-3.1-0.9c-0.4-0.3-0.8-0.7-1.2-1.1c-0.3-0.4-0.5-0.9-0.6-1.4
					c0-0.4-0.1-0.7-0.3-1.1c-0.2-0.3-0.5-0.5-0.8-0.5c-0.2,0-0.4,0-0.5,0c-0.2,0-0.3,0.1-0.5,0.1c-0.6,0.3-1.2,0.6-1.8,1
					c-0.5,0.3-1.1,0.5-1.6,0.7c-0.6,0.1-1.2,0.2-1.8,0.2c-0.6,0-1.3,0-1.9,0c-0.6,0-1.3-0.1-1.9-0.2c-0.6-0.1-1.1-0.2-1.6-0.3
					c-1-0.2-2-0.8-2.6-1.6c-0.3-0.4-0.4-0.9-0.4-1.3c0-0.3,0.1-0.6,0.2-0.9L27.8,247.4z"/>
				<path class="st7" d="M69.3,211.9l-11.9,23.6v-10.9l-1.2-46.3l-1.8,46.3v7.3l-13.1-22.9l13.1,28.1v88.9c0,0.3,0.2,0.5,0.4,0.6
					c0.7,0.3,1.4,0.3,2.1,0c0.2-0.1,0.4-0.3,0.4-0.6v-84.6L69.3,211.9z"/>
			</g>
			<g id="freepik--bush--inject-123_00000096761456848529768970000009809818422588814777_">
				<path id="freepik--bush--inject-123_00000146462986265568023070000007545970715126998187_" class="st8" d="M51.6,331.7
					c3.4,0.5,6.5-0.4,7-4.1c0.4-3,0.4-6.1,0-9.1c-0.1-1.1-0.5-2.4-1.6-2.7c-0.9-0.1-1.8,0.4-2.2,1.2c-0.3,0.9-0.5,1.8-0.4,2.7
					c-0.5-1.2-1.3-2.6-2.6-2.6c-1.3,0.1-2.2,1.2-2.2,2.4c0.1,1.2,0.4,2.4,1.1,3.4c-0.9-0.2-1.9-0.1-2.6,0.4c-0.8,0.8-0.8,2.1-0.1,3
					c0.7,0.8,1.6,1.5,2.7,1.9c-0.6-0.3-1.3,0-1.6,0.6c0,0.1-0.1,0.1-0.1,0.2c-0.2,0.7,0.1,1.4,0.7,1.8
					C50.2,331.4,50.9,331.6,51.6,331.7z"/>
				<g id="freepik--bush--inject-123_00000129926262781628757020000010066977068644336264_">
					<path id="freepik--bush--inject-123_00000048500431290336115370000000130319787618845349_" class="st1" d="M57.5,333.1l8.1-4.7
						c0.7-0.4,1.3-1,1.8-1.6c0.5-0.6,0.8-1.3,1-2.1c0.1-0.3,0.1-0.6-0.1-0.8c-0.3-0.4-1-0.3-1.4,0c-0.4,0.3-0.7,0.7-1.1,1.1
						c0.2-0.9,0.2-1.9,0.2-2.8c0-0.3-0.1-0.7-0.3-0.9c-0.3-0.2-0.8-0.2-1.1,0c-1,0.7-1.7,1.8-1.9,3c0.2-1.2,0.1-2.4-0.1-3.6
						c-0.3-1.3-1.8-1.8-2.3-0.6c-0.2,0.7-0.4,1.3-0.4,2c-0.1,0.9,0,1.8,0.2,2.7c-0.5-1.1-1.2-2.2-2.2-3c-0.3-0.4-0.8-0.5-1.3-0.4
						c-0.5,0.2-0.6,0.9-0.5,1.4c0.1,1.2,0.5,2.3,1.1,3.3c-0.8-0.6-1.8-0.9-2.7-1.1c-0.3-0.1-0.7,0-0.9,0.3c-0.1,0.4-0.1,0.8,0.2,1.1
						c0.6,0.8,1.3,1.5,2.2,2c-0.9-0.2-1.8-0.3-2.7-0.3c-0.3,0-0.5,0.1-0.7,0.3c-0.2,0.3,0,0.8,0.3,1.1c0.6,0.5,1.2,0.9,1.9,1.1
						c-0.4,0-0.8,0.1-1.2,0.2c-0.4,0.2-0.6,0.6-0.6,1c0.1,0.4,0.5,0.7,0.9,0.8C55,333.2,56.3,333.4,57.5,333.1z"/>
				</g>
			</g>
		</g>
		<g id="freepik--house--inject-123">
			<polygon class="st9" points="293.2,411.4 145.5,326.1 145.5,117.7 276.8,193.5 276.8,288.2 293.2,297.7 			"/>
			<polygon class="st10" points="293.2,411.4 145.5,326.1 145.5,117.7 276.8,193.5 276.8,288.2 293.2,297.7 			"/>
			<polygon class="st11" points="293.2,411.4 413.5,341.9 413.5,247.2 293.2,316.6 			"/>
			<polygon class="st11" points="276.8,190.9 276.8,288.2 380.2,228.5 380.8,130.9 			"/>
			<polygon class="st1" points="393.9,339.9 307.8,389.6 307.8,324.1 393.9,274.4 			"/>
			<g class="st12">
				<polygon class="st13" points="393.9,339.9 307.8,389.6 307.8,324.1 393.9,274.4 				"/>
			</g>
			<polygon class="st13" points="317.7,383.9 339.2,371.5 393.9,284.5 393.9,274.4 382.4,281 			"/>
			<polygon class="st13" points="393.9,298.6 393.9,291.1 345.7,367.7 353.1,363.5 			"/>
			<path class="st8" d="M304.4,392.9v-72l0.6-0.3l90-52v72l-0.6,0.3L304.4,392.9z M306.7,322.2v66.7l86-49.7v-66.6L306.7,322.2z"/>
			<rect x="298.7" y="308.8" transform="matrix(0.866 -0.5 0.5 0.866 -108.097 216.3703)" class="st8" width="101.9" height="2.3"/>
			<rect x="363.3" y="287.6" class="st8" width="2.3" height="69.3"/>
			<rect x="333.9" y="304.6" class="st8" width="2.3" height="69.3"/>
			<polygon class="st1" points="379.6,227.5 293.5,277.2 293.5,211.6 379.6,161.9 			"/>
			<g class="st12">
				<polygon class="st13" points="379.6,227.5 293.5,277.2 293.5,211.6 379.6,161.9 				"/>
			</g>
			<polygon class="st13" points="303.5,271.4 325,259 379.6,172.1 379.6,161.9 368.1,168.6 			"/>
			<polygon class="st13" points="379.6,186.1 379.6,178.6 331.4,255.3 338.9,251 			"/>
			<path class="st8" d="M290.2,280.4v-72l0.6-0.3l90-52v72l-0.6,0.3L290.2,280.4z M292.5,209.7v66.7l86-49.6v-66.6L292.5,209.7z"/>
			
				<rect x="286.4" y="197.8" transform="matrix(0.867 -0.4983 0.4983 0.867 -54.2386 194.6702)" class="st8" width="102.3" height="2.3"/>
			<rect x="349" y="175.1" class="st8" width="2.3" height="69.3"/>
			<rect x="319.6" y="192.1" class="st8" width="2.3" height="69.3"/>
			<polygon class="st10" points="276.8,199.8 276.8,267.6 380.9,165 380.9,139.8 			"/>
			<polygon class="st10" points="293.2,372 413.5,259.8 413.5,247.2 293.2,316.6 			"/>
			<polygon class="st1" points="419,250.3 419,111.4 287.7,187.2 287.7,206.1 402.6,139.8 402.6,240.9 287.7,307.2 287.7,326.1 			
				"/>
			<polygon class="st2" points="419,250.3 419,111.4 287.7,187.2 287.7,206.1 402.6,139.8 402.6,240.9 287.7,307.2 287.7,326.1 			
				"/>
			<polygon class="st1" points="419,111.4 265.9,22.9 134.6,98.7 287.7,187.2 			"/>
			<polygon class="st4" points="419,111.4 265.9,22.9 134.6,98.7 287.7,187.2 			"/>
			<polygon class="st1" points="265.9,29.3 265.9,41.9 397.1,117.7 408,111.4 			"/>
			<polygon class="st14" points="265.9,29.3 265.9,41.9 397.1,117.7 408,111.4 			"/>
			<polygon class="st1" points="265.9,29.3 145.5,98.7 156.5,105 265.9,41.9 			"/>
			<polygon class="st2" points="265.9,29.3 145.5,98.7 156.5,105 265.9,41.9 			"/>
			<polygon class="st15" points="156.5,105 287.7,180.8 397.1,117.7 265.9,41.9 			"/>
			<polygon class="st9" points="402.6,240.9 380.7,228.2 380.7,152.4 402.6,139.8 			"/>
			<polygon class="st15" points="380.7,228.2 276.8,288.2 260.4,278.7 249.5,285.1 287.7,307.2 402.6,240.9 			"/>
			<polygon class="st1" points="287.7,307.2 287.7,326.1 249.5,304 249.5,285.1 			"/>
			<polygon class="st14" points="287.7,307.2 287.7,326.1 249.5,304 249.5,285.1 			"/>
			<polygon class="st1" points="287.7,206.1 134.6,117.7 134.6,98.7 287.7,187.2 			"/>
			<polygon class="st14" points="287.7,206.1 134.6,117.7 134.6,98.7 287.7,187.2 			"/>
			<path class="st8" d="M287.7,301.9c-0.4,0-0.7-0.3-0.7-0.7l0,0v-32.3l0.3-0.2l109.4-63.2c0.3-0.2,0.7-0.1,0.9,0.2c0,0,0,0,0,0
				c0.2,0.3,0.1,0.7-0.2,0.9l-109.1,63v31.6C288.4,301.6,288.1,301.9,287.7,301.9L287.7,301.9z"/>
			<path class="st8" d="M309.6,288.9c-0.4,0-0.7-0.3-0.7-0.7l0,0v-31.6c0-0.4,0.3-0.7,0.7-0.7c0.4,0,0.7,0.3,0.7,0.7v31.6
				C310.3,288.6,310,288.9,309.6,288.9z"/>
			<path class="st8" d="M331.4,276.3c-0.4,0-0.7-0.3-0.7-0.7l0,0V244c0-0.4,0.3-0.7,0.7-0.7s0.7,0.3,0.7,0.7v31.6
				C332.1,276,331.8,276.3,331.4,276.3L331.4,276.3z"/>
			<path class="st8" d="M353.4,263.6c-0.4,0-0.7-0.3-0.7-0.7l0,0v-31.6c0-0.4,0.3-0.7,0.7-0.7s0.7,0.3,0.7,0.7v31.6
				C354.1,263.3,353.7,263.6,353.4,263.6L353.4,263.6z"/>
			<path class="st8" d="M375.3,251c-0.4,0-0.7-0.3-0.7-0.7l0,0v-31.6c0-0.4,0.3-0.7,0.7-0.7s0.7,0.3,0.7,0.7v31.6
				C375.9,250.7,375.6,251,375.3,251z"/>
			<path class="st8" d="M397.2,238.4c-0.4,0-0.7-0.3-0.7-0.7l0,0v-31.6c0-0.4,0.3-0.7,0.7-0.7c0.4,0,0.7,0.3,0.7,0.7v31.6
				C397.9,238,397.6,238.3,397.2,238.4C397.2,238.4,397.2,238.4,397.2,238.4z"/>
			<path class="st8" d="M287.7,301.9c-0.4,0-0.7-0.3-0.7-0.7l0,0v-31.6l-109.1-63c-0.3-0.2-0.4-0.6-0.2-0.9c0.2-0.3,0.6-0.4,0.9-0.3
				c0,0,0,0,0,0l109.7,63.4v32.3C288.4,301.6,288.1,301.9,287.7,301.9L287.7,301.9z"/>
			<path class="st8" d="M265.9,288.9c-0.4,0-0.7-0.3-0.7-0.7l0,0v-31.6c0-0.4,0.3-0.7,0.7-0.7c0.4,0,0.7,0.3,0.7,0.7v31.6
				C266.5,288.6,266.2,288.9,265.9,288.9z"/>
			<path class="st8" d="M244,276.3L244,276.3c-0.4,0-0.7-0.3-0.7-0.7l0,0V244c0-0.4,0.3-0.7,0.7-0.7l0,0l0,0c0.4,0,0.7,0.3,0.7,0.7
				l0,0v31.6C244.7,276,244.4,276.3,244,276.3L244,276.3z"/>
			<path class="st8" d="M222.1,263.6L222.1,263.6c-0.4,0-0.7-0.3-0.7-0.7l0,0v-31.6c0-0.4,0.3-0.7,0.7-0.7l0,0l0,0
				c0.4,0,0.7,0.3,0.7,0.7l0,0v31.6C222.8,263.3,222.5,263.6,222.1,263.6L222.1,263.6z"/>
			<path class="st8" d="M200.2,251L200.2,251c-0.4,0-0.7-0.3-0.7-0.7l0,0v-31.6c0-0.4,0.3-0.7,0.7-0.7l0,0l0,0
				c0.4,0,0.7,0.3,0.7,0.7l0,0v31.6C200.9,250.7,200.6,251,200.2,251z"/>
			<path class="st8" d="M178.4,238.4L178.4,238.4c-0.4,0-0.7-0.3-0.7-0.7l0,0v-31.6c0-0.4,0.3-0.7,0.7-0.7l0,0l0,0
				c0.4,0,0.7,0.3,0.7,0.7l0,0v31.6C179,238,178.8,238.3,178.4,238.4C178.4,238.4,178.4,238.4,178.4,238.4z"/>
			<polygon class="st11" points="205.7,424 260.4,392.4 260.4,310.3 249.5,304 249.5,285.1 260.4,278.7 260.4,215.6 205.7,247.1 			
				"/>
			<polygon class="st15" points="260.4,215.6 145.5,149.2 90.8,180.8 205.7,247.1 			"/>
			<polygon class="st9" points="90.8,180.8 90.8,357.7 205.7,424 205.7,247.1 			"/>
			<polygon class="st10" points="90.8,180.8 90.8,357.7 205.7,424 205.7,247.1 			"/>
			<polygon class="st1" points="230.1,344.2 230.1,398 237.4,393.7 237.4,340 			"/>
			<polygon class="st16" points="230.1,344.2 230.1,398 237.4,393.7 237.4,340 			"/>
			<polygon class="st13" points="230.1,371.8 230.1,387.2 237.4,375.6 237.4,360.1 			"/>
			<polygon class="st13" points="230.1,391.8 230.1,397.2 237.4,385.6 237.4,380.2 			"/>
			<path class="st8" d="M226.5,401.4v-59.1l13.1-7.5v59.2L226.5,401.4z M228.8,343.6v53.8l8.5-4.9v-53.8L228.8,343.6z"/>
			<path class="st8" d="M219.4,412.5v-73l27.3-15.8v73.1L219.4,412.5z M221.7,340.8v67.8l22.8-13.1v-67.8L221.7,340.8z"/>
			<polygon class="st10" points="260.4,303.5 205.7,385 205.7,323 260.4,291.4 			"/>
			<polygon class="st11" points="253.1,398 223.8,414.9 223.8,419.9 253.1,402.9 			"/>
			<polygon class="st15" points="218.4,411.7 223.8,414.9 253.1,398 247.7,394.8 			"/>
			<polygon class="st15" points="304.3,432.5 253.1,402.9 223.8,419.9 275,449.5 			"/>
			<polygon class="st9" points="218.4,416.7 223.8,419.9 223.8,414.9 218.4,411.7 			"/>
			<polygon class="st11" points="212.7,234.8 264,205.2 264,308.7 212.7,338.4 			"/>
			<polygon class="st1" points="223.6,249.4 223.6,315 253.1,297.9 253.1,232.4 			"/>
			<polygon class="st16" points="223.6,249.4 223.6,315 253.1,297.9 253.1,232.4 			"/>
			<polygon class="st13" points="223.6,297.4 223.6,315 227.8,312.5 253.1,272.3 253.1,250.5 			"/>
			<polygon class="st13" points="253.1,278.8 234.3,308.8 241.7,304.5 253.1,286.4 			"/>
			<path class="st8" d="M222.5,316.9v-72l31.8-18.3v72L222.5,316.9z M224.8,246.2v66.7l27.2-15.7v-66.6L224.8,246.2z"/>
			
				<rect x="221.3" y="249.8" transform="matrix(0.8661 -0.4998 0.4998 0.8661 -93.5087 152.7378)" class="st8" width="34.1" height="2.3"/>
			<polygon class="st9" points="212.7,338.4 78.2,260.9 77.9,157.2 212.7,234.8 			"/>
			<polygon class="st15" points="264,205.2 212.7,234.8 77.9,157.2 132.8,125.6 			"/>
			<polygon class="st9" points="132.8,125.6 157.6,140.6 132.6,126.7 77.9,157.2 			"/>
		</g>
		<g id="freepik--Fence--inject-123">
			<polygon id="freepik--shadow--inject-123_00000084496324419842592690000004700209735077648781_" class="st17" points="
				52.3,350.8 150.3,407.4 152.6,406 54.6,349.4 			"/>
			<g id="freepik--fence--inject-123">
				<polygon class="st1" points="145.1,403.8 145.1,367.9 142.5,362.4 139.7,364.8 139.7,400.7 				"/>
				<polygon class="st18" points="145.1,403.8 145.1,367.9 142.5,362.4 139.7,364.8 139.7,400.7 				"/>
				<polygon class="st1" points="145.1,367.9 146.5,367.1 146.5,403.1 145.1,403.8 				"/>
				<polygon class="st6" points="145.1,367.9 146.5,367.1 146.5,403.1 145.1,403.8 				"/>
				<polygon class="st1" points="142.5,362.4 143.8,361.6 146.5,367.1 145.1,367.9 				"/>
				<polygon class="st1" points="125.2,392.4 125.2,356.4 122.5,351 119.8,353.4 119.8,389.3 				"/>
				<polygon class="st18" points="125.2,392.4 125.2,356.4 122.5,351 119.8,353.4 119.8,389.3 				"/>
				<polygon class="st1" points="125.2,356.4 126.6,355.7 126.6,391.6 125.2,392.4 				"/>
				<polygon class="st6" points="125.2,356.4 126.6,355.7 126.6,391.6 125.2,392.4 				"/>
				<polygon class="st1" points="122.5,351 123.9,350.1 126.6,355.7 125.2,356.4 				"/>
				<polygon class="st1" points="105.3,380.9 105.3,345 102.6,339.5 99.9,341.9 99.9,377.9 				"/>
				<polygon class="st18" points="105.3,380.9 105.3,345 102.6,339.5 99.9,341.9 99.9,377.9 				"/>
				<polygon class="st1" points="105.3,345 106.7,344.2 106.7,380.2 105.3,380.9 				"/>
				<polygon class="st6" points="105.3,345 106.7,344.2 106.7,380.2 105.3,380.9 				"/>
				<polygon class="st1" points="102.6,339.5 104,338.7 106.7,344.2 105.3,345 				"/>
				<polygon class="st1" points="85.4,369.5 85.4,333.6 82.8,328.1 80,330.5 80,366.4 				"/>
				<polygon class="st18" points="85.4,369.5 85.4,333.6 82.8,328.1 80,330.5 80,366.4 				"/>
				<polygon class="st1" points="85.4,333.6 86.8,332.8 86.8,368.7 85.4,369.5 				"/>
				<polygon class="st6" points="85.4,333.6 86.8,332.8 86.8,368.7 85.4,369.5 				"/>
				<polygon class="st1" points="82.8,328.1 84.1,327.3 86.8,332.8 85.4,333.6 				"/>
				<polygon class="st1" points="65.5,358.1 65.5,322.1 62.8,316.6 60.1,319 60.1,355 				"/>
				<polygon class="st18" points="65.5,358.1 65.5,322.1 62.8,316.6 60.1,319 60.1,355 				"/>
				<polygon class="st1" points="65.5,322.1 66.9,321.3 66.9,357.3 65.5,358.1 				"/>
				<polygon class="st6" points="65.5,322.1 66.9,321.3 66.9,357.3 65.5,358.1 				"/>
				<polygon class="st1" points="62.8,316.6 64.2,315.8 66.9,321.3 65.5,322.1 				"/>
				<polygon class="st1" points="151.2,395.9 54.4,340.2 54.4,342.4 151.2,398 				"/>
				<polygon class="st19" points="151.2,395.9 54.4,340.2 54.4,342.4 151.2,398 				"/>
				<polygon class="st1" points="151.2,395.9 152.6,395.1 152.6,397.2 151.2,398 				"/>
				<polygon class="st6" points="151.2,395.9 152.6,395.1 152.6,397.2 151.2,398 				"/>
				<polygon class="st1" points="54.4,340.2 151.2,395.9 152.6,395.1 55.8,339.4 				"/>
				<polygon class="st1" points="151.2,382.3 54.4,326.7 54.4,328.8 151.2,384.4 				"/>
				<polygon class="st19" points="151.2,382.3 54.4,326.7 54.4,328.8 151.2,384.4 				"/>
				<polygon class="st1" points="151.2,382.3 152.6,381.5 152.6,383.6 151.2,384.4 				"/>
				<polygon class="st6" points="151.2,382.3 152.6,381.5 152.6,383.6 151.2,384.4 				"/>
				<polygon class="st1" points="54.4,326.7 151.2,382.3 152.6,381.5 55.8,325.9 				"/>
			</g>
		</g>
	</g>
</g>
</svg>
