<?xml version="1.0" encoding="utf-8"?>
<!-- Generator: Adobe Illustrator 28.0.0, SVG Export Plug-In . SVG Version: 6.00 Build 0)  -->
<svg version="1.1" id="Capa_1" xmlns="http://www.w3.org/2000/svg" xmlns:xlink="http://www.w3.org/1999/xlink" x="0px" y="0px"
	 viewBox="0 0 500 500" style="enable-background:new 0 0 500 500;" xml:space="preserve">
<style type="text/css">
	.st0{opacity:0.35;}
	.st1{fill:#FFFFFF;}
	.st2{opacity:0.15;enable-background:new    ;}
	.st3{opacity:0.1;enable-background:new    ;}
	.st4{fill:#F0F0F0;}
	.st5{opacity:0.3;enable-background:new    ;}
	.st6{opacity:0.9;}
	.st7{fill:#D1D1D1;}
	.st8{fill:#CECECE;}
	.st9{opacity:0.8;}
	.st10{fill:#FBFBFB;}
	.st11{opacity:0.6;}
	.st12{opacity:0.1;}
	.st13{opacity:0.85;fill:#FFFFFF;enable-background:new    ;}
	.st14{opacity:0.2;enable-background:new    ;}
	.st15{fill:#D8D8D8;}
	.st16{opacity:0.95;fill:#FFFFFF;enable-background:new    ;}
	.st17{fill:#F8F8F8;}
	.st18{fill:#E8E8E8;}
	.st19{opacity:0.45;fill:#FFFFFF;enable-background:new    ;}
	.st20{opacity:5.000000e-02;}
	.st21{opacity:0.25;enable-background:new    ;}
	.st22{opacity:0.7;fill:#FFFFFF;enable-background:new    ;}
	.st23{opacity:0.5;fill:#FFFFFF;enable-background:new    ;}
	.st24{opacity:0.4;fill:#FFFFFF;enable-background:new    ;}
	.st25{opacity:0.45;enable-background:new    ;}
</style>
<g id="freepik--Floor--inject-162" class="st0">
	<g id="freepik--floor--inject-162">
		<polygon class="st1" points="250,464.2 36.6,341 250,218 463.5,341 		"/>
		<polygon class="st1" points="36.6,341 36.6,353.5 250,476.8 250,464.2 		"/>
		<polygon class="st2" points="36.6,341 36.6,353.5 250,476.8 250,464.2 		"/>
		<polygon class="st1" points="250,476.8 463.5,353.5 463.5,341 250,464.2 		"/>
		<polygon class="st3" points="250,476.8 463.5,353.5 463.5,341 250,464.2 		"/>
	</g>
</g>
<g id="freepik--Clouds--inject-162" class="st0">
	<g id="freepik--clouds--inject-162">
		<path class="st4" d="M100.8,36.4l-9.4,5.4c0-0.4,0.1-0.8,0.1-1.2v-2.7c0-4.9-3.4-6.8-7.6-4.4c-1.8,1.1-3.4,2.6-4.5,4.4
			c-0.7-6.1-5.5-8.4-11.3-5c-6.3,3.6-11.4,12.5-11.4,19.7v4.1c0,1.6,0.3,3.2,1,4.7l-7.8,4.5c-2.5,1.6-4.1,4.3-4.2,7.3
			c0,2.7,1.9,3.8,4.2,2.4l51-29.5c2.5-1.6,4.1-4.3,4.2-7.3C105.1,36.2,103.2,35.1,100.8,36.4z"/>
		<path class="st4" d="M146.1,56.8l-7.1,4.1c0-0.3,0.1-0.6,0.1-0.9v-2.1c0-3.7-2.6-5.1-5.7-3.3c-1.4,0.8-2.5,2-3.4,3.3
			c-0.5-4.6-4.1-6.3-8.5-3.8c-4.8,2.7-8.6,9.4-8.6,14.9v3.1c0,1.2,0.2,2.5,0.7,3.6l-5.9,3.4c-1.9,1.2-3.1,3.3-3.2,5.5
			c0,2,1.4,2.8,3.2,1.8l38.5-22.2c1.9-1.2,3.1-3.3,3.2-5.5C149.3,56.6,147.9,55.8,146.1,56.8z"/>
	</g>
	<path id="freepik--Cloud--inject-162" class="st4" d="M384.2,56.7l7.1,4.1c0-0.3-0.1-0.6-0.1-0.9v-2.1c0-3.7,2.6-5.1,5.8-3.3
		c1.4,0.8,2.5,2,3.4,3.3c0.5-4.6,4.1-6.3,8.5-3.8c4.8,2.7,8.6,9.4,8.6,14.9V72c0,1.2-0.2,2.5-0.7,3.6l5.9,3.4
		c1.9,1.2,3.1,3.3,3.2,5.5c0,2-1.4,2.8-3.2,1.8L384.2,64c-1.9-1.2-3-3.3-3.2-5.5C381,56.5,382.4,55.6,384.2,56.7z"/>
</g>
<g id="freepik--Plants--inject-162" class="st0">
	<g id="freepik--plants--inject-162">
		<path class="st1" d="M438.1,312c-1-6.5,1.8-20.8,7.3-30.3s15.3-17.3,23.3-15.8c7.4,1.4,8,10.8,0.3,18.2s-24.1,21.3-26.4,32.5
			l-1.3,9.8L438.1,312z"/>
		<path class="st2" d="M438.1,312c-1-6.5,1.8-20.8,7.3-30.3s15.3-17.3,23.3-15.8c7.4,1.4,8,10.8,0.3,18.2s-24.1,21.3-26.4,32.5
			l-1.3,9.8L438.1,312z"/>
		<path class="st1" d="M438.9,321c0.2-0.1,0.4-0.2,0.4-0.5c1.1-23,16.5-43.8,26.8-49.4c0.2-0.2,0.3-0.5,0.1-0.7
			c-0.1-0.2-0.4-0.2-0.6-0.2c-10.4,5.7-26.1,26.8-27.2,50.2c0,0.3,0.2,0.5,0.4,0.5l0,0L438.9,321z"/>
		<path class="st1" d="M438.8,340.4c0.5-3.8,4.1-10.5,10.6-16.6c7.2-6.7,17-10.8,18.7-15.4c2-5.6-3-9.9-11.1-7.6s-21,15.6-20.8,32.9
			L438.8,340.4z"/>
		<path class="st5" d="M438.8,340.4c0.5-3.8,4.1-10.5,10.6-16.6c7.2-6.7,17-10.8,18.7-15.4c2-5.6-3-9.9-11.1-7.6s-21,15.6-20.8,32.9
			L438.8,340.4z"/>
		<path class="st1" d="M436.6,336.7c0.2,0,0.3-0.2,0.4-0.4c4-20.1,17.7-29,24.3-30.9c0.3-0.1,0.4-0.3,0.3-0.6l0,0
			c-0.1-0.3-0.3-0.4-0.6-0.3l0,0c-7.3,2.1-20.9,11-25,31.6c0,0.3,0.1,0.5,0.4,0.6C436.5,336.8,436.5,336.8,436.6,336.7z"/>
	</g>
	<g id="freepik--plants--inject-162_00000004539304992026160160000010937462740983874727_">
		<path class="st1" d="M64.4,305.6c0,0,0.8-14.1-4.2-26.1s-13.3-20.3-22-22.6s-17.3,4.6-8.8,11.9s24.3,15.9,28.4,38.1L64.4,305.6z"
			/>
		<path class="st2" d="M64.4,305.6c0,0,0.8-14.1-4.2-26.1s-13.3-20.3-22-22.6s-17.3,4.6-8.8,11.9s24.3,15.9,28.4,38.1L64.4,305.6z"
			/>
		<path class="st1" d="M62.4,301.6L62.4,301.6c0.4-0.1,0.5-0.3,0.5-0.6c-5.3-24.6-21.4-37.3-29.2-40.6c-0.2-0.1-0.5,0-0.6,0.3
			c-0.1,0.2,0,0.5,0.3,0.6l0,0C41,264.5,56.8,277,62,301.2C62,301.4,62.2,301.6,62.4,301.6z"/>
		<path class="st1" d="M27,294.6c0.2,1.9,1.7,3.3,3.2,4.5s3,2.5,3.4,4.4c0.8,3.7-3.6,7.2-2.7,10.9c0.5,1.5,1.6,2.8,3.1,3.5
			c1.2,0.6,2.4,1,3.7,1.6c0.6,0.2,1.2,0.3,1.8,0.4c1.9,0.2,3.6,1,5,2.2c2,2.2,1.8,5.6,2.5,8.5c1,3.5,3.4,6.4,6.7,8
			c2.7,1.3,7.2,2,8.3,1c0.9-0.8,0.1-4.2,0.5-5.3c0.8-2.9,1.4-5.8,1.7-8.8c0.1-1.4,0.3-2.7,0.7-4c0.5-1.4,1-2.9,1.4-4.3
			s1.3-2.7,1.2-4.4c-0.1-1.7-0.5-3.3-1.1-4.9c-0.5-1.6-1.1-3.1-1.7-4.7c-0.6-1.9-1.4-3.7-2.5-5.3c-1.9-2.8-5-4.7-8.4-5.2
			c-2.8-0.4-5.8,0.2-8.5-0.8s-5-2.5-7.7-3.2c-2.9-0.9-6.1-0.3-8.5,1.4C27.8,291.2,26.9,292.9,27,294.6z"/>
		<path class="st5" d="M27,294.6c0.2,1.9,1.7,3.3,3.2,4.5s3,2.5,3.4,4.4c0.8,3.7-3.6,7.2-2.7,10.9c0.5,1.5,1.6,2.8,3.1,3.5
			c1.2,0.6,2.4,1,3.7,1.6c0.6,0.2,1.2,0.3,1.8,0.4c1.9,0.2,3.6,1,5,2.2c2,2.2,1.8,5.6,2.5,8.5c1,3.5,3.4,6.4,6.7,8
			c2.7,1.3,7.2,2,8.3,1c0.9-0.8,0.1-4.2,0.5-5.3c0.8-2.9,1.4-5.8,1.7-8.8c0.1-1.4,0.3-2.7,0.7-4c0.5-1.4,1-2.9,1.4-4.3
			s1.3-2.7,1.2-4.4c-0.1-1.7-0.5-3.3-1.1-4.9c-0.5-1.6-1.1-3.1-1.7-4.7c-0.6-1.9-1.4-3.7-2.5-5.3c-1.9-2.8-5-4.7-8.4-5.2
			c-2.8-0.4-5.8,0.2-8.5-0.8s-5-2.5-7.7-3.2c-2.9-0.9-6.1-0.3-8.5,1.4C27.8,291.2,26.9,292.9,27,294.6z"/>
		<path class="st1" d="M57.4,309.3c0-0.1-0.1-0.1-0.1-0.2c-7.7-10.9-19.7-16-23.8-16.9c-0.2,0-0.5,0.1-0.5,0.3
			c0,0.2,0.1,0.5,0.3,0.5l0,0c3.8,0.9,15,5.6,22.5,15.6c-6.2-2.1-13-1.5-18.7,1.6c-0.2,0.1-0.3,0.4-0.1,0.6l0,0
			c0.1,0.1,0.2,0.2,0.3,0.2s0.2,0,0.2-0.1c5.9-3.2,12.9-3.6,19.1-1.2c4.5,6.4,6.7,14.1,6.4,21.9c0,0.2,0.2,0.4,0.4,0.4l0,0
			c0.2,0,0.4-0.2,0.4-0.4C64.3,323.8,62,315.9,57.4,309.3z"/>
	</g>
</g>
<g id="freepik--Walls--inject-162" class="st0">
	<g id="freepik--walls--inject-162">
		<polygon class="st1" points="250,441.9 433.1,336.1 250,230.4 66.9,336.1 		"/>
		<g class="st6">
			<polygon class="st1" points="250,441.9 433.1,336.1 250,230.4 66.9,336.1 			"/>
		</g>
		<polygon class="st7" points="250,449.4 250,441.9 433.1,336.1 433.1,147.3 439.7,143.6 438.9,340.4 		"/>
		<polygon class="st8" points="250,449.4 250,441.9 66.9,336.1 66.9,147.3 60.3,143.6 61.1,340.4 		"/>
		<polygon class="st7" points="60.3,143.6 250,34.1 250,41.6 66.9,147.3 		"/>
		<polygon class="st8" points="439.6,143.6 250,34.1 250,41.6 433.1,147.3 		"/>
		<polygon class="st1" points="250,230.4 250,41.6 433.1,147.3 433.1,336.1 		"/>
		<g class="st9">
			<polygon class="st1" points="250,230.4 250,41.6 433.1,147.3 433.1,336.1 			"/>
		</g>
		<polygon class="st10" points="433.1,336.1 433.1,325.7 250,219.9 250,230.4 		"/>
		<polygon class="st1" points="250,230.4 250,41.6 66.9,147.3 66.9,336.1 		"/>
		<g class="st11">
			<polygon class="st1" points="250,230.4 250,41.6 66.9,147.3 66.9,336.1 			"/>
		</g>
		<g class="st12">
			<polygon points="250,230.4 250,41.6 66.9,147.3 66.9,336.1 			"/>
		</g>
		<polygon class="st4" points="66.9,336.1 66.8,325.7 250,219.9 250,230.4 		"/>
	</g>
</g>
<g id="freepik--Windows--inject-162" class="st0">
	<g id="freepik--Window--inject-162">
		<polygon class="st8" points="128.1,228.4 130.4,229.7 188.7,196 186.4,194.7 		"/>
		<polygon class="st1" points="186.4,194.7 130.4,227 130.4,171.1 186.4,138.8 		"/>
		<polygon class="st13" points="186.4,194.7 130.4,227 130.4,171.1 186.4,138.8 		"/>
		<polygon class="st1" points="159.6,152.9 159.6,211.5 161.9,210.2 161.9,151.6 		"/>
		<polygon class="st14" points="159.6,152.9 159.6,211.5 161.9,210.2 161.9,151.6 		"/>
		<polygon class="st3" points="159.6,154.2 161.9,152.9 161.9,154.2 159.6,155.6 		"/>
		<polygon class="st15" points="158.4,152.2 159.6,152.9 159.6,211.5 158.4,210.8 		"/>
		<polygon points="159.6,155.6 158.4,154.9 159.6,154.2 		"/>
		<path class="st1" d="M191.1,133.4l-63,36.4v64l63-36.4V133.4z M188.7,196l-58.3,33.7v-58.6l58.4-33.7L188.7,196z"/>
		<path class="st14" d="M191.1,133.4l-63,36.4v64l63-36.4V133.4z M188.7,196l-58.3,33.7v-58.6l58.4-33.7L188.7,196z"/>
		<polygon class="st15" points="188.7,196 186.4,194.7 186.4,138.8 188.7,137.4 		"/>
		<polygon class="st8" points="191.1,133.4 188.7,132 125.7,168.4 128.1,169.7 		"/>
		<polygon class="st15" points="125.7,168.4 128.1,169.7 128.1,233.8 125.7,232.4 		"/>
	</g>
	<g id="freepik--window--inject-162">
		<polygon class="st8" points="371.9,228.4 369.6,229.7 311.2,196 313.6,194.7 		"/>
		<polygon class="st1" points="313.6,194.7 369.6,227 369.6,171.1 313.6,138.8 		"/>
		<polygon class="st16" points="313.6,194.7 369.6,227 369.6,171.1 313.6,138.8 		"/>
		<polygon class="st1" points="340.4,152.9 340.4,211.5 338.1,210.2 338.1,151.6 		"/>
		<polygon class="st14" points="340.4,152.9 340.4,211.5 338.1,210.2 338.1,151.6 		"/>
		<polygon class="st3" points="340.4,154.2 338.1,152.9 338.1,154.2 340.4,155.6 		"/>
		<polygon class="st15" points="341.6,152.2 340.4,152.9 340.4,211.5 341.6,210.8 		"/>
		<polygon points="340.4,155.6 341.6,154.9 340.4,154.2 		"/>
		<path class="st1" d="M308.9,197.4l63,36.4v-64l-63-36.4V197.4z M311.2,137.4l58.4,33.7v58.6L311.2,196V137.4z"/>
		<path class="st14" d="M308.9,197.4l63,36.4v-64l-63-36.4V197.4z M311.2,137.4l58.4,33.7v58.6L311.2,196V137.4z"/>
		<polygon class="st15" points="311.2,196 313.6,194.7 313.6,138.8 311.2,137.4 		"/>
		<polygon class="st8" points="308.9,133.4 311.2,132 374.3,168.4 371.9,169.7 		"/>
		<polygon class="st15" points="374.3,168.4 371.9,169.7 371.9,233.8 374.3,232.4 		"/>
	</g>
</g>
<g id="freepik--Lamp--inject-162" class="st0">
	<path id="freepik--Shadow--inject-162" class="st3" d="M221.4,254.7c-6.7,3.9-6.7,10.2,0,14.1s17.6,3.9,24.4,0s6.7-10.2,0-14.1
		S228.1,250.8,221.4,254.7z"/>
	<g id="freepik--lamp--inject-162">
		<path class="st7" d="M225.2,254.9c-4.7,2.7-4.7,7.1,0,9.8s12.2,2.7,16.9,0s4.7-7.1,0-9.8S229.8,252.2,225.2,254.9z"/>
		<path class="st15" d="M245.6,259.7L245.6,259.7c0-1.8-1.2-3.5-3.5-4.9c-4.7-2.7-12.2-2.7-16.9,0c-2.3,1.4-3.5,3.1-3.5,4.9l0,0v1.6
			l0,0c0,1.7,1.2,3.5,3.5,4.8c4.7,2.7,12.2,2.7,16.9,0c2.3-1.3,3.5-3.1,3.5-4.8l0,0V259.7z"/>
		<path class="st7" d="M225.2,254.9c-4.7,2.7-4.7,7.1,0,9.8s12.2,2.7,16.9,0s4.7-7.1,0-9.8S229.8,252.2,225.2,254.9z"/>
		<path class="st8" d="M234.9,172.6h-2.6V259l0,0c0,0.3,0.1,0.5,0.4,0.6c0.6,0.3,1.2,0.3,1.8,0c0.2-0.1,0.4-0.3,0.4-0.6l0,0
			L234.9,172.6z"/>
		<circle class="st17" cx="233.6" cy="162.2" r="14.2"/>
		<path class="st18" d="M233.6,158c-2.1,0.1-4.1-0.4-5.9-1.4c-1.4-0.8-2.1-1.8-2.1-2.8s0.8-2,2.1-2.8c3.7-1.9,8.1-1.9,11.8,0
			c1.4,0.8,2.1,1.8,2.1,2.8s-0.8,2-2.1,2.8C237.7,157.6,235.7,158.1,233.6,158z"/>
		<path class="st1" d="M233.6,153.1c-2.2,0-4,1.8-4,4c0,0.1,0,0.1,0,0.2c2.6,0.8,5.4,0.8,8,0c0-0.1,0-0.1,0-0.2
			C237.6,154.9,235.8,153.1,233.6,153.1z"/>
		<g class="st9">
			<path class="st1" d="M233.6,153.1c-2.2,0-4,1.8-4,4c0,0.1,0,0.1,0,0.2c2.6,0.8,5.4,0.8,8,0c0-0.1,0-0.1,0-0.2
				C237.6,154.9,235.8,153.1,233.6,153.1z"/>
		</g>
	</g>
</g>
<g id="freepik--Table--inject-162" class="st0">
	<path class="st3" d="M261.2,256.4c-8.7,5-8.7,13.2,0,18.2c8.7,5,22.9,5,31.6,0s8.7-13.2,0-18.2S269.9,251.4,261.2,256.4z"/>
	<g id="freepik--table--inject-162_00000119118394963098845960000005648899248889087390_">
		<g id="freepik--table--inject-162">
			<path class="st8" d="M265.5,224.8c0-0.2,0.2-0.4,0.4-0.5c0.6-0.3,1.3-0.3,1.9,0c0.2,0.1,0.4,0.3,0.4,0.5l-6.1,40.8l0,0
				c0,0.2-0.1,0.3-0.3,0.4c-0.4,0.2-0.9,0.2-1.3,0c-0.1-0.1-0.3-0.2-0.3-0.4l0,0L265.5,224.8z"/>
			<path class="st8" d="M288.1,224.8c0-0.2-0.2-0.4-0.4-0.5c-0.6-0.3-1.3-0.3-1.9,0c-0.2,0.1-0.4,0.3-0.4,0.5l6.1,40.8l0,0
				c0,0.2,0.1,0.3,0.3,0.4c0.4,0.2,0.9,0.2,1.3,0c0.1-0.1,0.3-0.2,0.3-0.4l0,0L288.1,224.8z"/>
			<path class="st8" d="M278.3,226.1c0-0.2-0.2-0.4-0.4-0.5c-0.6-0.3-1.3-0.3-1.9,0c-0.2,0.1-0.4,0.3-0.4,0.5l0.4,46l0,0
				c0,0.2,0.1,0.3,0.3,0.4c0.4,0.2,0.9,0.2,1.3,0c0.1-0.1,0.2-0.2,0.3-0.4l0,0L278.3,226.1z"/>
			<path class="st1" d="M300.4,215L300.4,215c0-3.5-2.3-6.9-6.9-9.6c-9.1-5.3-24-5.3-33.2,0c-4.6,2.6-6.9,6.1-6.9,9.6l0,0v1.9l0,0
				c0.1,3.4,2.4,6.8,6.9,9.4c9.2,5.3,24,5.3,33.2,0c4.5-2.6,6.8-6,6.9-9.4l0,0V215z"/>
			<path class="st1" d="M260.4,205.4c-9.2,5.3-9.2,13.9,0,19.1c9.2,5.2,24,5.3,33.2,0s9.2-13.9,0-19.1S269.5,200.1,260.4,205.4z"/>
			<path class="st19" d="M260.4,205.4c-9.2,5.3-9.2,13.9,0,19.1c9.2,5.2,24,5.3,33.2,0s9.2-13.9,0-19.1S269.5,200.1,260.4,205.4z"/>
		</g>
		<g id="freepik--Pot--inject-162">
			<g class="st20">
				<path d="M282.1,210.5c2.9,1.7,2.9,4.4,0,6.1c-3.3,1.7-7.3,1.7-10.6,0c-2.9-1.7-2.9-4.4,0-6.1
					C274.8,208.8,278.8,208.8,282.1,210.5z"/>
			</g>
			<path class="st4" d="M272.2,213.9c-2.5-2.6-4-9.1-1.6-11.1h12.6c2.5,2.1,1,8.5-1.6,11.1l-0.1,0.1l-0.1,0.1l-0.2,0.2l-0.1,0.1
				c-0.1,0.1-0.1,0.1-0.2,0.1c-0.1,0.1-0.2,0.1-0.3,0.2c-2.4,1.2-5.2,1.2-7.6,0l0,0c-0.1-0.1-0.2-0.1-0.3-0.2l-0.2-0.1l-0.1-0.1
				l-0.2-0.2C272.3,214.1,272.2,214,272.2,213.9C272.2,214,272.2,213.9,272.2,213.9z"/>
			<path class="st10" d="M282.1,202c2.9,1.7,2.9,4.4,0,6c-3.3,1.7-7.2,1.7-10.4,0c-2.9-1.7-2.9-4.4,0-6
				C275,200.3,278.9,200.3,282.1,202z"/>
			<path class="st4" d="M280.1,203.1c1.8,1,1.8,2.6,0,3.7c-2,1-4.4,1-6.4,0c-1.8-1-1.8-2.6,0-3.7
				C275.7,202.1,278.1,202.1,280.1,203.1z"/>
			<path class="st18" d="M273.7,204.9c2-1,4.4-1,6.4,0c0.4,0.2,0.8,0.6,1,1c-0.3,0.4-0.6,0.8-1,1c-2,1-4.4,1-6.4,0
				c-0.4-0.2-0.8-0.6-1-1C273,205.5,273.3,205.1,273.7,204.9z"/>
			<path class="st1" d="M279.7,205.8c0.9-0.9,1.7-1.9,2.3-3.1c1.1-1.9,1.2-4.4,0.7-4.7s-2.8,2.2-2.8,2.2c0.2-1.1,0.3-2.1,0.2-3.2
				c-0.1-1.7-0.5-3.2-1-3.5s-1.5,1.8-2,3.3s-0.7,2.8-0.7,2.8c-0.2-1.2-0.5-2.4-0.8-3.5c-0.6-1.6-1.1-1.9-1.5-1.8s-0.6,0.9-0.8,3
				c0,1,0,2,0.1,3c0,0-0.8-0.9-1.7-1.7s-1.4-1-1.6-0.9s-0.4,1.6,1.1,4.3c0.7,1.4,1.7,2.6,2.8,3.7
				C274.1,205.8,276.2,207.2,279.7,205.8z"/>
			<path class="st5" d="M279.7,205.8c0.9-0.9,1.7-1.9,2.3-3.1c1.1-1.9,1.2-4.4,0.7-4.7s-2.8,2.2-2.8,2.2c0.2-1.1,0.3-2.1,0.2-3.2
				c-0.1-1.7-0.5-3.2-1-3.5s-1.5,1.8-2,3.3s-0.7,2.8-0.7,2.8c-0.2-1.2-0.5-2.4-0.8-3.5c-0.6-1.6-1.1-1.9-1.5-1.8s-0.6,0.9-0.8,3
				c0,1,0,2,0.1,3c0,0-0.8-0.9-1.7-1.7s-1.4-1-1.6-0.9s-0.4,1.6,1.1,4.3c0.7,1.4,1.7,2.6,2.8,3.7
				C274.1,205.8,276.2,207.2,279.7,205.8z"/>
		</g>
	</g>
</g>
<g id="freepik--plant-with-pot--inject-162" class="st0">
	<path id="freepik--shadow--inject-162" class="st3" d="M390.6,327.7c-5.4,3.1-5.4,8.2,0,11.3s14.2,3.1,19.6,0s5.4-8.2,0-11.3
		S396.1,324.5,390.6,327.7z"/>
	<g id="freepik--pot--inject-162">
		<path class="st7" d="M409.3,333.4c4.7-4.8,7.5-24.5,2.9-28.4h-23.5c-4.6,3.8-1.9,23.5,2.9,28.4l0.1,0.1c0.1,0,0.1,0.1,0.2,0.2
			l0.4,0.4l0.1,0.1l0.4,0.3c0.2,0.1,0.4,0.3,0.6,0.4c4.4,2.3,9.7,2.3,14.1,0l0,0c0.2-0.1,0.4-0.3,0.6-0.4l0.3-0.2l0.1-0.1
			c0.1-0.1,0.3-0.2,0.4-0.4l0.2-0.2L409.3,333.4z"/>
		<path class="st8" d="M390.7,303.5c-5.4,3.1-5.4,8.1,0,11.2s14.1,3.1,19.4,0s5.4-8.1,0-11.2S396.1,300.4,390.7,303.5z"/>
		<path class="st15" d="M393.3,304.9c-3.9,2.3-3.9,6,0,8.2c4.5,2.3,9.8,2.3,14.3,0c3.9-2.3,3.9-6,0-8.2
			C403.1,302.7,397.8,302.7,393.3,304.9z"/>
		<path class="st10" d="M407.6,308.9c-4.5-2.3-9.8-2.3-14.3,0c-0.9,0.5-1.7,1.3-2.3,2.1c0.6,0.9,1.4,1.7,2.4,2.2
			c4.5,2.3,9.8,2.3,14.3,0c1-0.5,1.8-1.3,2.4-2.2C409.4,310.1,408.6,309.3,407.6,308.9z"/>
		<g id="freepik--plants--inject-162_00000011025539586653945100000002729429655482239152_">
			<path class="st1" d="M403.3,295c0.2-0.6,0.3-1.2,0.3-1.9c0.1-1.5-0.6-3-2-3.8c-0.5-0.3-1.2-0.5-1.5-1c-0.1-0.3-0.2-0.7-0.2-1
				c0.2-1.3,0.1-2.6-0.3-3.8c-0.6-1.1-1.6-1.8-2.8-2.1c-1.2-0.3-2.4-0.4-3.5-0.3c-0.6,0-1.3,0-1.9-0.2c-0.7-0.3-1.1-0.9-1.6-1.4
				c-0.6-0.5-1.3-1-2-1.4c-1.4-1-3.1-1.4-4.8-1.2c-3.5,0.7-2.9,3.8-1.5,5.9s1.8,2.9,0,5.6s-1.3,5.7,1.6,7s4.7,1.2,4.1,4.5
				c-0.5,3-0.6,5.5,2.5,8.2c2,1.8,4.8,2.6,7.5,2.1c1.2-0.3,2.3-0.7,3.3-1.4c0.7-0.5,0.1-1.1,0.2-1.9c0.3-1.8,0.6-3.6,0.9-5.4
				c0.2-1.4,0.4-2.9,0.7-4.3C402.8,296.5,403.1,295.8,403.3,295z"/>
			<path class="st21" d="M403.3,295c0.2-0.6,0.3-1.2,0.3-1.9c0.1-1.5-0.6-3-2-3.8c-0.5-0.3-1.2-0.5-1.5-1c-0.1-0.3-0.2-0.7-0.2-1
				c0.2-1.3,0.1-2.6-0.3-3.8c-0.6-1.1-1.6-1.8-2.8-2.1c-1.2-0.3-2.4-0.4-3.5-0.3c-0.6,0-1.3,0-1.9-0.2c-0.7-0.3-1.1-0.9-1.6-1.4
				c-0.6-0.5-1.3-1-2-1.4c-1.4-1-3.1-1.4-4.8-1.2c-3.5,0.7-2.9,3.8-1.5,5.9s1.8,2.9,0,5.6s-1.3,5.7,1.6,7s4.7,1.2,4.1,4.5
				c-0.5,3-0.6,5.5,2.5,8.2c2,1.8,4.8,2.6,7.5,2.1c1.2-0.3,2.3-0.7,3.3-1.4c0.7-0.5,0.1-1.1,0.2-1.9c0.3-1.8,0.6-3.6,0.9-5.4
				c0.2-1.4,0.4-2.9,0.7-4.3C402.8,296.5,403.1,295.8,403.3,295z"/>
			<path class="st1" d="M395.4,292.6c0,0,0-0.1-0.1-0.1c-0.4-0.7-0.9-1.4-1.3-2.1c0.4-1.8,1.1-3.5,2-5.1c0-0.1,0-0.3-0.1-0.3
				c-0.1-0.1-0.3,0-0.3,0.1l0,0c-0.8,1.5-1.5,3.1-2,4.8c-2-3.1-4.4-5.8-7.2-8.2c-0.1-0.1-0.3-0.1-0.4,0l0,0
				c-0.1,0.1-0.1,0.3,0.1,0.4c3.3,2.9,6.2,6.3,8.3,10.1c-2.9-0.9-5.8-1.5-8.8-1.8c-0.1,0-0.3,0.1-0.3,0.2l0,0c0,0.1,0.1,0.3,0.2,0.3
				l0,0c3.2,0.3,6.3,1,9.2,2c2.7,4.8,4.6,10.1,5.4,15.6c0,0.1,0.1,0.2,0.2,0.2h0.1c0.1,0,0.2-0.2,0.2-0.3l0,0
				C400.1,302.9,398.2,297.6,395.4,292.6z"/>
			<path class="st1" d="M403.4,310.3c2.6,0.4,5.3,0,7.7-1c4.2-1.7,6.3-6.2,6.3-6.2s-5.1-1.1-7.9-0.9c2.7-0.9,5.5-1.3,8.4-1.2
				c0,0,2.4-1.4,1.2-5.6c0,0-2.7-1.4-8.1,0.2c2.1-1.8,4.5-3.1,7.2-3.8c0.4-0.1-1.1-5.6-1.9-8s-2-2.9-3.9-2.4s-7.4,3.9-7.9,5.4
				s0.8,5.1,0.8,5.1c-1.3-1.2-2.1-2.8-2.4-4.5c-1.1,0.6-2.2,1.5-3.1,2.4c-0.8,0.9-1.3,1.9-1.7,3c0.7,2.3,1.9,4.5,3.6,6.2
				c-2-1-3.6-2.7-4.5-4.8c-1.1,2.2-1.5,4.8-1.2,7.2C396.5,305.6,399.4,309.1,403.4,310.3z"/>
			<path class="st3" d="M403.4,310.3c2.6,0.4,5.3,0,7.7-1c4.2-1.7,6.3-6.2,6.3-6.2s-5.1-1.1-7.9-0.9c2.7-0.9,5.5-1.3,8.4-1.2
				c0,0,2.4-1.4,1.2-5.6c0,0-2.7-1.4-8.1,0.2c2.1-1.8,4.5-3.1,7.2-3.8c0.4-0.1-1.1-5.6-1.9-8s-2-2.9-3.9-2.4s-7.4,3.9-7.9,5.4
				s0.8,5.1,0.8,5.1c-1.3-1.2-2.1-2.8-2.4-4.5c-1.1,0.6-2.2,1.5-3.1,2.4c-0.8,0.9-1.3,1.9-1.7,3c0.7,2.3,1.9,4.5,3.6,6.2
				c-2-1-3.6-2.7-4.5-4.8c-1.1,2.2-1.5,4.8-1.2,7.2C396.5,305.6,399.4,309.1,403.4,310.3z"/>
			<path class="st1" d="M402.8,310c0.1,0,0.1-0.1,0.1-0.2c-0.7-8.5,6.5-23,10.2-26.3c0.1-0.1,0.1-0.3,0-0.4l0,0
				c-0.1-0.1-0.3-0.1-0.4,0c-3.8,3.4-11.1,18.2-10.4,26.8c0,0.1,0.1,0.2,0.3,0.2C402.7,310,402.7,310,402.8,310z"/>
		</g>
	</g>
</g>
<g id="freepik--Chair--inject-162" class="st0">
	<path id="freepik--shadow--inject-162_00000122713953944994860500000003863552323821443506_" class="st3" d="M200.2,335.3
		L142.6,302c-1-0.5-2.1-0.5-3.1,0l-53.2,30.7c-0.5,0.2-0.7,0.8-0.5,1.3c0.1,0.2,0.3,0.4,0.5,0.5l57.5,33.3c1,0.5,2.1,0.5,3.1,0
		l4.3-2.5l28.9-16.7l19.9-11.5c0.5-0.2,0.7-0.8,0.5-1.3C200.6,335.6,200.4,335.4,200.2,335.3z"/>
	<g id="freepik--chair--inject-162">
		<path class="st7" d="M190.6,310.1L190.6,310.1c0.5,2.8-0.9,5.7-3.4,7.1L148,337.6l-0.1,2.3l-1.8,1l2.3,1.3l43.3-25.1L190.6,310.1z
			"/>
		<path class="st8" d="M149.7,352.2L149.7,352.2c-0.2-3,0.8-6,3.4-7.5l35.3-20.4c1.6-0.9,3.6-0.4,4.5,1.2c0.2,0.3,0.3,0.7,0.4,1.1
			l0,0l-2.3-14l0,0c0.5,2.8-0.8,5.6-3.3,7l-36.5,21.1c-0.8,0.5-1.9,0.3-2.4-0.5c-0.2-0.3-0.3-0.6-0.3-1l-0.2-1.9L149.7,352.2z"/>
		<path class="st8" d="M150.4,255.8l-10,5.8l42.7,27c2.7,1.7,4.6,4.5,5.1,7.7l6.2,40.2c0.1,0.4,0.4,0.6,0.8,0.6c0.1,0,0.1,0,0.2-0.1
			l0,0c0.2-0.1,0.4-0.4,0.3-1.4l-3.6-42.8c-0.4-2.9-1.9-5.5-4.2-7.2L150.4,255.8z"/>
		<path class="st15" d="M104.1,308.9l-0.2,0.6c-0.9,2-0.1,4.4,1.8,5.5l39.3,22.7l-1-5.9l1.5,8.8l-44.1-25.5L104.1,308.9z"/>
		<path class="st15" d="M104.1,308.9l-0.1,0.4c-0.7,1.7,0,3.6,1.6,4.4c1,0.4,2.1,0.4,3-0.2l1.7-1l2.2,1.3l-9.2,5.3l-2.9-1.9
			L104.1,308.9z"/>
		<path class="st1" d="M146,338.2l-37.7-21.8c-1.4-0.9-2.3-2.5-2.4-4.1v-2.2c0.1-1.7,1-3.2,2.4-4.1l37.7-21.8c1.5-0.8,3.3-0.8,4.8,0
			l37.7,21.8c1.4,0.9,2.3,2.5,2.4,4.1v2.2c-0.1,1.7-1,3.2-2.4,4.1l-37.7,21.8C149.3,339,147.5,339,146,338.2z"/>
		<path class="st14" d="M146,338.2l-37.7-21.8c-1.4-0.9-2.3-2.5-2.4-4.1v-2.2c0.1-1.7,1-3.2,2.4-4.1l37.7-21.8
			c1.5-0.8,3.3-0.8,4.8,0l37.7,21.8c1.4,0.9,2.3,2.5,2.4,4.1v2.2c-0.1,1.7-1,3.2-2.4,4.1l-37.7,21.8C149.3,339,147.5,339,146,338.2z
			"/>
		<path class="st1" d="M146.7,338.5c-0.2-0.1-0.5-0.2-0.7-0.3l-37.7-21.8c-1.4-0.9-2.3-2.5-2.4-4.1v-2.2c0.1-1.5,0.8-2.9,1.9-3.8
			c-0.8,0.8-0.7,1.8,0.4,2.4l37.6,21.7L146.7,338.5z"/>
		<path class="st1" d="M190.9,310.1v2.3c-0.1,1.7-1,3.2-2.4,4.1l-37.7,21.8c-1.3,0.6-2.7,0.7-4.1,0.3l-0.9-8.1l0.2,0.1
			c1.5,0.8,3.3,0.8,4.8,0l37.7-21.8c1.1-0.7,1.3-1.7,0.4-2.4C190.1,307.2,190.8,308.6,190.9,310.1z"/>
		<path class="st1" d="M159.4,291.9l-37.7,21.8c-0.9,0.5-1.8,0.6-2.8,0.5c-0.1,0-0.3,0-0.4,0h-0.1h-0.2l0,0l-0.4-0.1
			c-0.3-0.1-0.6-0.2-0.8-0.4l-2-1.2c-1.4-0.9-2.5-2.4-2.9-4.1l-5.6-30.9c0-0.2,0-0.4-0.1-0.6c0-0.1,0-0.2,0-0.2
			c0-0.4,0.1-0.8,0.3-1.2c0.3-0.7,0.7-1.3,1.3-1.8l0.2-0.1l0.2-0.2l37.7-21.8c1.5-0.8,3.3-0.8,4.8,0l1.9,1.1
			c0.4,0.3,0.8,0.6,1.1,0.9c0.1,0.1,0.1,0.1,0.2,0.2c0.3,0.3,0.5,0.6,0.7,0.9c0,0.1,0.1,0.1,0.1,0.2l0.1,0.2
			c0.1,0.1,0.1,0.2,0.1,0.3s0.1,0.2,0.1,0.3l0.1,0.2v0.1c0,0.1,0.1,0.1,0.1,0.2s0.1,0.2,0.1,0.3c0,0.1,0,0.1,0.1,0.2l5.6,30.9
			C161.5,289.4,160.8,291,159.4,291.9z"/>
		<path class="st14" d="M159.4,291.9l-37.7,21.8c-0.9,0.5-1.8,0.6-2.8,0.5c-0.1,0-0.3,0-0.4,0h-0.1h-0.2l0,0l-0.4-0.1
			c-0.3-0.1-0.6-0.2-0.8-0.4l-2-1.2c-1.4-0.9-2.5-2.4-2.9-4.1l-5.6-30.9c0-0.2,0-0.4-0.1-0.6c0-0.1,0-0.2,0-0.2
			c0-0.4,0.1-0.8,0.3-1.2c0.3-0.7,0.7-1.3,1.3-1.8l0.2-0.1l0.2-0.2l37.7-21.8c1.5-0.8,3.3-0.8,4.8,0l1.9,1.1
			c0.4,0.3,0.8,0.6,1.1,0.9c0.1,0.1,0.1,0.1,0.2,0.2c0.3,0.3,0.5,0.6,0.7,0.9c0,0.1,0.1,0.1,0.1,0.2l0.1,0.2
			c0.1,0.1,0.1,0.2,0.1,0.3s0.1,0.2,0.1,0.3l0.1,0.2v0.1c0,0.1,0.1,0.1,0.1,0.2s0.1,0.2,0.1,0.3c0,0.1,0,0.1,0.1,0.2l5.6,30.9
			C161.5,289.4,160.8,291,159.4,291.9z"/>
		<path class="st1" d="M113.2,281.5l5.6,30.9c0.1,1,0.9,1.7,1.9,1.7c0.3,0,0.7-0.1,0.9-0.3l37.7-21.8c1.4-0.9,2.1-2.5,1.9-4.1
			l-5.6-30.9c-0.1-1-0.9-1.7-1.9-1.7c-0.3,0-0.7,0.1-0.9,0.3l-37.7,21.8C113.7,278.3,113,279.9,113.2,281.5z"/>
		<path class="st1" d="M120.7,314.1c-0.6,0.2-1.2,0.2-1.8,0.2c-0.1,0-0.3,0-0.4,0s-0.2,0-0.3-0.1l0,0l-0.4-0.1
			c-0.3-0.1-0.6-0.2-0.8-0.4l-2-1.2c-1.4-0.9-2.5-2.4-2.9-4.1l-5.6-30.9c0-0.2,0-0.4-0.1-0.6c0-0.1,0-0.2,0-0.2
			c0-0.4,0.1-0.8,0.3-1.2l6.7,3.8c-0.3,0.6-0.3,1.4-0.2,2l5.6,30.9C118.9,313.3,119.7,314.1,120.7,314.1
			C120.7,314,120.7,314.1,120.7,314.1z"/>
		<path class="st7" d="M95.6,330.6l8.9-40.6l4.3,3.7l-11.7,37.5c-0.1,0.2-0.2,0.3-0.3,0.4l0,0c-0.4,0.2-0.9,0.1-1.2-0.3
			C95.5,331.1,95.5,330.9,95.6,330.6z"/>
		<path class="st8" d="M107.8,284.7l34.5,27.3c2.5,2,4,4.9,4.2,8l4.1,42.3c0,0.3-0.1,0.5-0.4,0.7l0,0c-0.3,0.2-0.8,0-0.9-0.3
			c0-0.1-0.1-0.1-0.1-0.2l-6.8-39.8c-0.5-3.2-2.4-6-5.1-7.7L108,296.4c-4.4-2.8-5.8-8.7-2.9-13.1c0.6-0.9,1.3-1.7,2.1-2.4
			L107.8,284.7z"/>
		<path class="st7" d="M103.5,310.9L103.5,310.9c-1.1,2.3-0.3,5,1.8,6.4l35.2,20.3c1.3,0.8,3,0.3,3.8-1c0.3-0.5,0.4-1.2,0.3-1.8l0,0
			l2.7,15.9l0,0c-0.5-2.8-2.2-5.3-4.6-6.7l-39.1-22.6c-1.9-1.1-4.4-0.5-5.5,1.4c-0.1,0.1-0.2,0.3-0.2,0.4l0,0L103.5,310.9z"/>
	</g>
</g>
<g id="freepik--Mat--inject-162" class="st0">
	<g id="freepik--mat--inject-162">
		<polygon class="st1" points="387,349 250.3,427.9 174,384.1 310.7,305.2 		"/>
		<polygon class="st22" points="387,349 250.3,427.9 174,384.1 310.7,305.2 		"/>
		<polygon class="st1" points="387,349 387,351.2 250.3,430 250.3,427.9 		"/>
		<polygon class="st23" points="387,349 387,351.2 250.3,430 250.3,427.9 		"/>
		<polygon class="st1" points="250.3,427.9 174,384.1 174,386.2 250.3,430 		"/>
		<polygon class="st24" points="250.3,427.9 174,384.1 174,386.2 250.3,430 		"/>
	</g>
</g>
<g id="freepik--Device--inject-162" class="st0">
	<g id="freepik--device--inject-162_00000005972453023505574910000014675549712712534930_">
		<g id="freepik--shadow--inject-162_00000168817952559549537670000014970556046329301158_">
			<path id="freepik--shadow--inject-162_00000159462539771022912840000000824662913458517377_" class="st1" d="M208,397.6l11.8-6.9
				c0.1,0,0.2-0.2,0.2-0.3c0-0.1-0.1-0.2-0.2-0.2l-21.7-12.5c-0.3-0.1-0.6-0.1-0.9,0l-11.8,6.9c-0.1,0-0.2,0.2-0.2,0.4
				c0,0.1,0.1,0.1,0.2,0.2l21.7,12.5C207.4,397.8,207.7,397.8,208,397.6z"/>
			<path id="freepik--shadow--inject-162_00000134968101518068657490000013140719893706302084_" class="st3" d="M208,397.6l11.8-6.9
				c0.1,0,0.2-0.2,0.2-0.3c0-0.1-0.1-0.2-0.2-0.2l-21.7-12.5c-0.3-0.1-0.6-0.1-0.9,0l-11.8,6.9c-0.1,0-0.2,0.2-0.2,0.4
				c0,0.1,0.1,0.1,0.2,0.2l21.7,12.5C207.4,397.8,207.7,397.8,208,397.6z"/>
		</g>
		<g id="freepik--device--inject-162_00000042007367730993317660000005811406686775365525_">
			<g id="freepik--device--inject-162">
				<path class="st1" d="M218.7,388.5c0.2,0.1,0.1,0.3,0,0.4l-10.6,6.1c-0.2,0.1-0.5,0.1-0.8,0l-20.1-11.6c-0.2-0.1-0.2-0.3,0-0.4
					c-0.2,0.2-0.3,0.4-0.3,0.6v0.5c0,0.3,0.2,0.5,0.4,0.7l20.1,11.6c0.2,0.1,0.5,0.1,0.8,0l10.5-6.1c0.2-0.1,0.4-0.4,0.4-0.7v-0.5
					C219.1,388.9,218.9,388.7,218.7,388.5z"/>
				<path class="st3" d="M218.7,388.5c0.2,0.1,0.1,0.3,0,0.4l-10.6,6.1c-0.2,0.1-0.5,0.1-0.8,0l-20.1-11.6c-0.2-0.1-0.2-0.3,0-0.4
					c-0.2,0.2-0.3,0.4-0.3,0.6v0.5c0,0.3,0.2,0.5,0.4,0.7l20.1,11.6c0.2,0.1,0.5,0.1,0.8,0l10.5-6.1c0.2-0.1,0.4-0.4,0.4-0.7v-0.5
					C219.1,388.9,218.9,388.7,218.7,388.5z"/>
				<path class="st1" d="M218.6,388.5l-20.1-11.6c-0.2-0.1-0.5-0.1-0.8,0l-10.5,6.1c-0.2,0.1-0.2,0.3,0,0.5l20.1,11.6
					c0.2,0.1,0.5,0.1,0.8,0l10.5-6.1c0.2,0,0.3-0.1,0.3-0.2S218.8,388.4,218.6,388.5C218.6,388.4,218.6,388.4,218.6,388.5z
					 M215.6,387.7c0.2,0.1,0.2,0.3,0,0.4l-9.3,5.4c-0.2,0.1-0.4,0.1-0.6,0l-15.7-9c-0.2-0.1-0.2-0.3,0-0.4l9.3-5.4
					c0.2-0.1,0.4-0.1,0.6-0.1L215.6,387.7z"/>
				<path class="st14" d="M218.6,388.5l-20.1-11.6c-0.2-0.1-0.5-0.1-0.8,0l-10.5,6.1c-0.2,0.1-0.2,0.3,0,0.5l20.1,11.6
					c0.2,0.1,0.5,0.1,0.8,0l10.5-6.1c0.2,0,0.3-0.1,0.3-0.2S218.8,388.4,218.6,388.5C218.6,388.4,218.6,388.4,218.6,388.5z
					 M215.6,387.7c0.2,0.1,0.2,0.3,0,0.4l-9.3,5.4c-0.2,0.1-0.4,0.1-0.6,0l-15.7-9c-0.2-0.1-0.2-0.3,0-0.4l9.3-5.4
					c0.2-0.1,0.4-0.1,0.6-0.1L215.6,387.7z"/>
				<path class="st5" d="M187.2,383c-0.2,0.2-0.3,0.4-0.3,0.6v0.5c0,0.3,0.2,0.5,0.4,0.7l20.1,11.6c0.1,0.1,0.2,0.1,0.4,0.1v-1.4
					c-0.1,0-0.3,0-0.4-0.1l-20.1-11.6C187.1,383.3,187.1,383.1,187.2,383z"/>
				<path class="st1" d="M187.2,383c-0.2,0.2-0.3,0.4-0.3,0.6v0.5c0,0.3,0.2,0.5,0.4,0.7l20.1,11.6c0.1,0.1,0.2,0.1,0.4,0.1v-1.4
					c-0.1,0-0.3,0-0.4-0.1l-20.1-11.6C187.1,383.3,187.1,383.1,187.2,383z"/>
				<path class="st8" d="M193.5,380.5c0.1,0,0.1-0.1,0.1-0.2s-0.1-0.1-0.1-0.1c-0.2-0.1-0.4-0.1-0.5,0c-0.1,0-0.1,0.1-0.1,0.2
					s0.1,0.1,0.1,0.1C193.2,380.6,193.4,380.6,193.5,380.5z"/>
				<path class="st8" d="M212.4,391.8c-0.2,0-0.4,0-0.6-0.1c-0.2-0.1-0.3-0.2-0.3-0.4c0-0.2,0.1-0.3,0.3-0.4c0.4-0.2,0.9-0.2,1.3,0
					c0.2,0.1,0.3,0.2,0.3,0.4c0,0.2-0.1,0.3-0.3,0.4l0,0C212.8,391.8,212.6,391.8,212.4,391.8z M212.4,390.8c-0.2,0-0.4,0-0.6,0.1
					c-0.1,0.1-0.2,0.2-0.2,0.3c0,0.1,0.1,0.3,0.2,0.3c0.4,0.2,0.8,0.2,1.2,0l0,0c0.1-0.1,0.2-0.2,0.2-0.3c0-0.1-0.1-0.2-0.2-0.3
					C212.8,390.9,212.6,390.8,212.4,390.8L212.4,390.8z"/>
				<path class="st8" d="M193.3,381.5l2-1.1c0.1-0.1,0.1-0.2,0-0.2c-0.1-0.1-0.3-0.1-0.4,0l-2,1.1c-0.1,0.1-0.1,0.2,0,0.2
					C193,381.6,193.1,381.6,193.3,381.5z"/>
				<path class="st1" d="M199.9,378.6c-0.2-0.1-0.4-0.1-0.6,0.1L190,384c-0.2,0.1-0.2,0.3,0,0.4l15.7,9c0.2,0.1,0.4,0.1,0.6,0
					l9.3-5.4c0.2-0.1,0.2-0.3,0-0.4L199.9,378.6z"/>
				<path class="st25" d="M199.9,378.6c-0.2-0.1-0.4-0.1-0.6,0.1L190,384c-0.2,0.1-0.2,0.3,0,0.4l15.7,9c0.2,0.1,0.4,0.1,0.6,0
					l9.3-5.4c0.2-0.1,0.2-0.3,0-0.4L199.9,378.6z"/>
				<path class="st1" d="M198.4,387.3L198.4,387.3L198.4,387.3l0.1-0.8l0,0c0,0,0,0,0.1,0l0.3-0.1h0.1h0.1l2.2,1.2c0,0,0,0,0,0.1
					l0,0l-0.3,0.2h-0.1h-0.1l-1.7-1l-0.1,0.5l0,0h-0.1L198.4,387.3z"/>
				<path class="st1" d="M200.4,386C200.4,386,200.5,386,200.4,386c0.1,0,0.2,0,0.2,0l0.3,0.2l0,0c0,0,0,0,0,0.1l-0.3,0.2h-0.1h-0.1
					l-0.3-0.2H200c0,0,0-0.1,0.1-0.1l0,0L200.4,386z M201.6,386.7L201.6,386.7h0.2l0.3,0.2l0,0c0,0,0,0,0,0.1l-0.3,0.2h-0.1h-0.1
					l-0.3-0.2c0,0,0,0,0-0.1s0,0,0,0L201.6,386.7z"/>
				<path class="st1" d="M202.9,384.8l0.1,0.1l0.2,0.1l0.2,0.1l0.1,0.1c0.1,0.1,0.2,0.2,0.3,0.2c0.1,0.1,0.1,0.2,0.1,0.2
					c0,0.1,0,0.2-0.1,0.3c-0.1,0.1-0.2,0.2-0.4,0.3c-0.2,0.1-0.3,0.2-0.5,0.2s-0.3,0.1-0.5,0c-0.2,0-0.3,0-0.4-0.1l-0.4-0.2
					l-0.3-0.2l-0.3-0.2c-0.1-0.1-0.2-0.1-0.3-0.2s-0.1-0.2-0.1-0.3c0-0.1,0-0.2,0.1-0.3c0.1-0.1,0.2-0.2,0.3-0.3
					c0.2-0.1,0.3-0.2,0.5-0.2s0.3-0.1,0.5,0c0.1,0,0.3,0,0.4,0.1C202.6,384.7,202.8,384.8,202.9,384.8z M202.1,386
					c0.2,0.1,0.3,0.1,0.5,0.1s0.3,0,0.5-0.1s0.2-0.2,0.2-0.3s-0.1-0.2-0.3-0.3l-0.3-0.2l-0.3-0.2c-0.2-0.1-0.3-0.1-0.5-0.1
					s-0.3,0-0.5,0.1s-0.2,0.2-0.2,0.3c0,0.1,0.1,0.2,0.3,0.3l0.3,0.2L202.1,386z"/>
				<path class="st1" d="M205.1,383.6l0.1,0.1l0.2,0.1l0.2,0.1l0.1,0.1c0.1,0.1,0.2,0.2,0.3,0.2c0.1,0.1,0.1,0.2,0.1,0.2
					c0,0.1,0,0.2-0.1,0.3c-0.1,0.1-0.2,0.2-0.3,0.3c-0.2,0.1-0.3,0.2-0.5,0.2s-0.3,0-0.5,0s-0.3,0-0.4-0.1l-0.4-0.2l-0.3-0.2
					l-0.3-0.2c-0.1-0.1-0.2-0.1-0.3-0.2s-0.1-0.2-0.1-0.3c0-0.1,0-0.2,0.1-0.3c0.1-0.1,0.2-0.2,0.3-0.3c0.2-0.1,0.3-0.2,0.5-0.2
					s0.3-0.1,0.5,0c0.1,0,0.3,0,0.4,0.1C204.8,383.4,205,383.5,205.1,383.6z M204.3,384.7c0.2,0.1,0.3,0.1,0.5,0.1s0.3,0,0.5-0.1
					s0.2-0.2,0.2-0.3c0-0.1-0.1-0.2-0.2-0.3L205,384l-0.3-0.2c-0.2-0.1-0.3-0.1-0.5-0.1s-0.3,0-0.5,0.1s-0.2,0.2-0.2,0.3
					c0.1,0.1,0.1,0.2,0.3,0.3l0.3,0.2L204.3,384.7z"/>
			</g>
			<path class="st1" d="M191.1,384.5l-0.1-0.1l0,0L191.1,384.5L191.1,384.5L191.1,384.5L191.1,384.5
				C191.2,384.5,191.2,384.5,191.1,384.5z"/>
			<path class="st1" d="M191.3,384.4l-0.2-0.1l0,0h0.1L191.3,384.4C191.4,384.4,191.4,384.4,191.3,384.4L191.3,384.4L191.3,384.4z"
				/>
			<path class="st1" d="M191.5,384.3l-0.2-0.1l0,0h0.1L191.5,384.3L191.5,384.3L191.5,384.3L191.5,384.3z"/>
			<path class="st1" d="M191.7,384.2l-0.4-0.2l0,0l0,0h0.1L191.7,384.2L191.7,384.2L191.7,384.2L191.7,384.2z"/>
			<path class="st1" d="M192.2,384L192.2,384L192.2,384l-0.3,0.1l0,0l0,0l0,0v-0.2l0,0l0,0h0.1L192.2,384L192.2,384L192.2,384
				L192.2,384h0.1l0,0l0,0l0,0H192.2z M192.1,383.9l-0.2-0.1v0.2L192.1,383.9z"/>
			<path class="st1" d="M192.4,383.8c-0.1,0-0.1,0-0.2,0c-0.1,0-0.1-0.1-0.1-0.1s0-0.1,0.1-0.1h0.1h0.1l0,0l0,0l0,0h-0.1
				c0,0-0.1,0-0.1,0.1C192.2,383.7,192.2,383.8,192.4,383.8L192.4,383.8h0.1l0,0l0,0l-0.1-0.1h-0.1h-0.1l0,0l0.1-0.1h0.1l0.1,0.1
				l0,0L192.4,383.8C192.5,383.8,192.5,383.8,192.4,383.8z"/>
			<path class="st1" d="M195.2,381.8l0.2,0.1h0.1l0.2-0.1l0,0l-0.2-0.1h-0.1L195.2,381.8L195.2,381.8z"/>
			<path class="st1" d="M195.4,381.6h-0.1h-0.1v0.1h0.1h0.1h-0.1 M195.3,381.6L195.3,381.6L195.3,381.6L195.3,381.6h0.1H195.3z"/>
			<path class="st1" d="M199.8,379.1h-0.1l-0.6,0.4c0,0,0,0,0,0.1l0,0l0.2,0.1h0.1h0.1h0.1l0.6-0.4c0.1,0,0.1-0.1,0-0.1l-0.2-0.1
				C199.9,379.1,199.8,379.1,199.8,379.1z M199.4,379.7L199.4,379.7l-0.3-0.1 M199.1,379.5l0.6-0.4h0.1l0.2,0.1 M200.1,379.3
				l-0.6,0.4L200.1,379.3z"/>
			<path class="st1" d="M199.4,379.6L199.4,379.6l-0.2-0.1c0,0,0,0,0-0.1l0.6-0.3l0,0l0.2,0.1c0,0,0,0,0,0.1L199.4,379.6z"/>
			<path class="st1" d="M199.9,379.1h0.1l0,0c0.1,0,0.1,0.1,0.1,0.1l0,0L199.9,379.1L199.9,379.1z"/>
		</g>
		<path class="st8" d="M198.1,374.4c-0.3,0-0.5-0.2-0.5-0.5v-4.7c0-0.3,0.2-0.5,0.5-0.5s0.5,0.2,0.5,0.5v4.7
			C198.6,374.2,198.4,374.4,198.1,374.4z"/>
		<path class="st8" d="M193.9,376.3c-0.2,0-0.3-0.1-0.4-0.2l-2.8-3.8c-0.2-0.2-0.1-0.5,0.1-0.7l0,0c0.2-0.2,0.5-0.1,0.7,0.1l2.8,3.8
			c0.2,0.2,0.1,0.5-0.1,0.7C194.1,376.3,194,376.3,193.9,376.3z"/>
		<path class="st8" d="M202.4,376.3c-0.1,0-0.2,0-0.3-0.1c-0.2-0.2-0.3-0.5-0.1-0.7l2.8-3.8c0.2-0.2,0.5-0.3,0.7-0.1
			c0.2,0.2,0.3,0.5,0.1,0.7l0,0l-2.8,3.8C202.7,376.3,202.6,376.3,202.4,376.3z"/>
	</g>
</g>
<g id="freepik--Dumbbell--inject-162" class="st0">
	<g id="freepik--dumbbell--inject-162">
		<g id="freepik--shadow--inject-162_00000090979417656154262500000000896016828495056048_">
			<path id="freepik--shadow--inject-162_00000106143438986768609220000007644589424719065481_" class="st1" d="M324.8,373.8
				l-1.4-0.8c-0.6-0.2-0.9-0.8-0.7-1.3c0.1-0.3,0.4-0.6,0.7-0.7l3.1-1.8l-9.8-5.6l-3.1,1.8c-1.1,0.6-2.4,0.6-3.5,0l-1.4-0.8
				c-0.6-0.2-0.9-0.8-0.7-1.3c0.1-0.3,0.4-0.6,0.7-0.7l9.5-5.5c1.1-0.6,2.4-0.6,3.5,0l1.4,0.8c0.6,0.2,0.8,0.8,0.6,1.4
				c-0.1,0.3-0.3,0.5-0.6,0.6l-3.5,2l9.8,5.7l3.5-2c1.1-0.6,2.4-0.6,3.5,0l1.4,0.8c0.6,0.2,0.8,0.8,0.6,1.4
				c-0.1,0.3-0.3,0.5-0.6,0.6l-9.5,5.5C327.2,374.4,325.9,374.3,324.8,373.8z"/>
			<path id="freepik--shadow--inject-162_00000003106243466322789940000012508241303769418138_" class="st3" d="M324.8,373.8
				l-1.4-0.8c-0.6-0.2-0.9-0.8-0.7-1.3c0.1-0.3,0.4-0.6,0.7-0.7l3.1-1.8l-9.8-5.6l-3.1,1.8c-1.1,0.6-2.4,0.6-3.5,0l-1.4-0.8
				c-0.6-0.2-0.9-0.8-0.7-1.3c0.1-0.3,0.4-0.6,0.7-0.7l9.5-5.5c1.1-0.6,2.4-0.6,3.5,0l1.4,0.8c0.6,0.2,0.8,0.8,0.6,1.4
				c-0.1,0.3-0.3,0.5-0.6,0.6l-3.5,2l9.8,5.7l3.5-2c1.1-0.6,2.4-0.6,3.5,0l1.4,0.8c0.6,0.2,0.8,0.8,0.6,1.4
				c-0.1,0.3-0.3,0.5-0.6,0.6l-9.5,5.5C327.2,374.4,325.9,374.3,324.8,373.8z"/>
		</g>
		<path class="st8" d="M320,354.6L320,354.6c0-2.7-2.2-4.9-4.9-4.9c-0.9,0-1.8,0.2-2.5,0.7l0,0l-0.1,0.1l-0.1,0.1
			c-2.5,1.8-4,4.5-4.2,7.6v0.1c0,0.1,0,0.3,0,0.5l0,0c0.2,2.5,2.4,4.5,4.9,4.5c0.4,0,0.7,0,1.1-0.1c0.5-0.1,1-0.3,1.5-0.5
			C318.2,360.7,319.8,357.8,320,354.6L320,354.6z"/>
		<path class="st7" d="M315.5,352.1c-2.6,1.7-4.3,4.6-4.5,7.8c0,2.9,2,4,4.5,2.6c2.6-1.7,4.3-4.6,4.5-7.8
			C320,351.8,318,350.6,315.5,352.1z"/>
		<path class="st15" d="M329.1,361.7L329.1,361.7L329.1,361.7l-11.5-6.7l0,0c-0.5-0.3-1.1-0.2-1.5,0.1c-1.2,0.8-2,2.1-2.1,3.6
			c-0.1,0.5,0.2,1.1,0.6,1.4l11.5,6.7l0,0c0.5,0.2,1.1,0.2,1.5-0.1c1.2-0.8,2-2.1,2.1-3.6C329.8,362.6,329.5,362,329.1,361.7z"/>
		<path class="st8" d="M325.6,365.4c0,1.3,0.9,1.9,2.1,1.2c1.2-0.8,2-2.1,2.1-3.6c0-1.3-0.9-1.9-2.1-1.2
			C326.4,362.7,325.6,364,325.6,365.4z"/>
		<path class="st8" d="M334.9,363.2L334.9,363.2c0-2.7-2.2-4.9-4.9-4.9c-0.9,0-1.7,0.2-2.5,0.7l0,0l-0.1,0.1l-0.1,0.1
			c-2.5,1.8-4,4.5-4.2,7.6v0.1c0,0.1,0,0.3,0,0.5l0,0c0.2,2.5,2.4,4.5,4.9,4.5c0.4,0,0.7,0,1.1-0.1c0.5-0.1,1-0.3,1.5-0.5
			C333.1,369.3,334.7,366.4,334.9,363.2L334.9,363.2z"/>
		<path class="st7" d="M330.4,360.7c-2.6,1.7-4.3,4.6-4.5,7.8c0,2.9,2,4,4.5,2.6c2.6-1.7,4.3-4.6,4.5-7.8
			C334.9,360.4,332.9,359.3,330.4,360.7z"/>
	</g>
</g>
</svg>
