<?xml version="1.0" encoding="utf-8"?>
<!-- Generator: Adobe Illustrator 28.0.0, SVG Export Plug-In . SVG Version: 6.00 Build 0)  -->
<svg version="1.1" id="Capa_1" xmlns="http://www.w3.org/2000/svg" xmlns:xlink="http://www.w3.org/1999/xlink" x="0px" y="0px"
	 viewBox="0 0 850.2 232.8" style="enable-background:new 0 0 850.2 232.8;" xml:space="preserve">
<style type="text/css">
	.st0{fill:#E8D6D6;}
	.st1{fill:#606060;}
	.st2{fill:#FFFFFF;}
	.st3{fill:#526656;}
	.st4{fill:url(#SVGID_1_);}
	.st5{fill:url(#SVGID_00000066517071736526004820000014074821720503180423_);}
	.st6{fill:url(#SVGID_00000044858003261239817100000012354796006655134397_);}
	.st7{fill:url(#SVGID_00000139272594928354240540000016417250760946096261_);}
	.st8{fill:url(#SVGID_00000121264219249751840940000009067165780216981397_);}
	.st9{fill:url(#SVGID_00000057126545065446809880000014584546939350985619_);}
	.st10{fill:url(#SVGID_00000063596875904029528320000017044625596815824005_);}
	.st11{fill:url(#SVGID_00000110442796865355616380000003393433385269964694_);}
	.st12{fill:url(#SVGID_00000111898628459332954520000000403281210301593754_);}
	.st13{fill:url(#SVGID_00000045583951497032927370000008347206882528842913_);}
	.st14{fill:url(#SVGID_00000163071492499799841950000010094314554131482281_);}
	.st15{fill:url(#SVGID_00000038407349863597424520000011163259508110094990_);}
	.st16{fill:url(#SVGID_00000171699609051403882530000000181067769357723800_);}
	.st17{fill:url(#SVGID_00000169520665100627686610000011691187188003308163_);}
	.st18{fill:url(#SVGID_00000127738744668185237760000008881020831696820103_);}
	.st19{fill:url(#SVGID_00000076578244157607222830000009700198500382586807_);}
	.st20{fill:url(#SVGID_00000152976205839083485330000000619599812081242794_);}
	.st21{fill:url(#SVGID_00000143578535074785487710000016187028342694438820_);}
	.st22{fill:url(#SVGID_00000039839892479822423430000009264648360957062308_);}
	.st23{fill:url(#SVGID_00000026159673087684286460000004708678349986278552_);}
	.st24{fill:url(#SVGID_00000082327277855089042520000017008936632972865450_);}
	.st25{fill:url(#SVGID_00000115490274341810125810000009630747114207450771_);}
	.st26{fill:url(#SVGID_00000068679757469677150230000000643523873788945034_);}
	.st27{fill:url(#SVGID_00000175284051401191155350000009478778384472590492_);}
	.st28{fill:url(#SVGID_00000145025911973146962270000000654295092656667583_);}
	.st29{fill:url(#SVGID_00000017498550604770709730000014068053907623295404_);}
	.st30{fill:url(#SVGID_00000109740273377077005680000017541838518029406088_);}
	.st31{fill:url(#SVGID_00000132792052203846519340000007382968126633103797_);}
	.st32{fill:url(#SVGID_00000081624011768802037100000016453726011219602104_);}
	.st33{fill:#B68717;}
	.st34{fill:#18B578;}
	.st35{fill:url(#SVGID_00000111183426456399497680000015009122025802475949_);}
	.st36{fill:url(#SVGID_00000150068503615177990040000009185767907609307541_);}
	.st37{fill:url(#SVGID_00000015356551529986442110000014191332447791882141_);}
	.st38{fill:url(#SVGID_00000047034925564244725970000009177631846668883840_);}
	.st39{fill:url(#SVGID_00000117665758116250587250000011244835795893650359_);}
	.st40{fill:url(#SVGID_00000107550782404155868680000016505125217316795291_);}
	.st41{fill:url(#SVGID_00000000918551576936293460000000020264740442298805_);}
	.st42{fill:url(#SVGID_00000058552803488504899080000016202344755532988832_);}
	.st43{fill:url(#SVGID_00000025402264958412597960000002309232063151301041_);}
	.st44{fill:url(#SVGID_00000114049390460863039400000013518008489316903841_);}
	.st45{fill:url(#SVGID_00000070108427115388809640000015124093558849910432_);}
	.st46{fill:url(#SVGID_00000100373889629589321360000012830795313197579926_);}
	.st47{fill:url(#SVGID_00000058572532069034646530000016503692103070553762_);}
	.st48{fill:url(#SVGID_00000075124672676123197630000000821847998517345172_);}
	.st49{fill:url(#SVGID_00000070840776866788587580000016983248933765495739_);}
	.st50{fill:#B5AC18;}
	.st51{fill:url(#SVGID_00000053543801744041826860000005986204507001649288_);}
	.st52{fill:url(#SVGID_00000075150625858978883620000016284049879876795805_);}
	.st53{fill:url(#SVGID_00000162333712417727277040000013298247737496674982_);}
	.st54{fill:url(#SVGID_00000168807698526346810110000000572449227929523892_);}
	.st55{fill:url(#SVGID_00000116224898088701250890000013311762019321587842_);}
	.st56{fill:url(#SVGID_00000156553334376188455570000009703133549600820881_);}
	.st57{fill:url(#SVGID_00000080202345249407706180000012309149534271906212_);}
	.st58{fill:url(#SVGID_00000079488331053618207650000018429439176759051138_);}
	.st59{fill:url(#SVGID_00000148633508180349341380000008468496609719018628_);}
</style>
<g>
	<path class="st3" d="M259.5,135.7H234v-2.5c7.9-0.7,10.8-3.6,14.3-14.7l25.9-81.7h3.4l25.4,84.3c3.4,11.1,3.4,11.2,11.6,12.1v2.5
		h-32.7v-2.5c9.8-0.8,10.9-1.4,7.8-12.1l-4.2-14.3h-29.1l-3.5,11.7c-3.3,10.7-2.3,13.9,6.6,14.7V135.7z M284.5,103.6l-13.3-45.4
		l-13.8,45.4H284.5z"/>
	<path class="st3" d="M346.8,135.7h-32.7v-2.5c10.5-0.8,10.9-1,10.9-14.7V85.1c0-8.5-3.1-9.4-12.2-9.4v-2.5c10.1,0,16.1-3,23.2-9.1
		l1,0.7v10.7c11.1-8.1,15.5-11.3,22.8-11.3c10.7,0,15.2,7.2,15.2,22v32.4c0,13.7,0.5,13.8,11.1,14.7v2.5h-32.7v-2.5
		c9.2-0.8,9.6-1,9.6-14.7V92.3c0-16.9-6-20.8-11.6-20.8c-6.8,0-14.4,7-14.4,19.1v28c0,13.7,0.5,13.8,9.8,14.7V135.7z"/>
	<path class="st3" d="M422.9,135.7v-7.5c-5.7,4.4-12.5,8.8-19.8,8.8c-10,0-13.8-7.9-13.8-14.6c0-7.9,5.1-11.8,19.1-16.5l14.4-4.8
		v-14c0-13.4-3-19.3-10.1-19.3c-13,0-3.1,17.8-14.8,17.8c-4.9,0-6.6-3-6.6-5.7c0-7.7,14-15.7,26.3-15.7s17.3,6.9,17.3,19.4v35
		c0,13.7,0.5,13.8,9.8,14.7v2.5H422.9z M422.9,118.5v-12.9l-9.8,3.1c-9,3-11.6,7-11.6,12.2c0,4.6,2.3,9.1,7.8,9.1
		C414.2,130.1,421.9,127,422.9,118.5z"/>
	<path class="st3" d="M550.3,89c0,28.9-15.1,48-37.9,48c-23.4,0-35.6-19.3-35.6-50.7c0-29,14.8-48.1,37.9-48.1
		C537.6,38.2,550.3,57.4,550.3,89z M537,97.7c0-28.1-7.7-55-26.3-55c-12.4,0-20.3,10.4-20.3,34.5c0,28.9,7.4,55.3,25.1,55.3
		C527.5,132.5,537,122.2,537,97.7z"/>
	<path class="st3" d="M594.3,135.7h-36.6v-2.5c10.5-0.8,10.9-1,10.9-14.7V85.1c0-8.5-3.1-9.4-12.2-9.4v-2.5c10.1,0,16.1-3,21.9-9.1
		l2.3,0.7V76c6.5-8.6,11.8-11.8,18-11.8c5.7,0,9.8,2.7,9.8,7.2c0,3.5-2.5,6.9-6.4,6.9c-5.5,0-5.2-6.8-10-6.8
		c-5.7,0-11.3,8.2-11.3,25.5v21.6c0,13.7,0.5,13.8,13.7,14.7V135.7z"/>
	<path class="st3" d="M648.3,129.3c-3.5,4.2-8.7,7.7-15.6,7.7c-8.2,0-14.2-5.1-14.2-14.2v-52l-7.9-1.3v-2.7
		c9.8,0,16.4-6.1,17.4-15.6h2.5V65l15.9,1.8v2.7l-15.9,1.6v50c0,7.4,2.5,10.3,7.2,10.3c3.9,0,6.9-2,9.2-4.3L648.3,129.3z"/>
	<path class="st3" d="M653.5,102.3c0-21.6,10.7-38.1,28.2-38.1c10.4,0,22.4,6.1,22.4,26.8l-37.9,3.9c0.1,18.3,7.2,34.7,19.6,34.7
		c6.2,0,13-4,18.5-9.8l1.6,2.1c-5.6,6.8-13.9,15.1-25.8,15.1C666,137,653.5,125.3,653.5,102.3z M666.5,88.8h25.2
		C691,70,684,67.9,680.1,67.9C672.1,67.9,667.6,76.5,666.5,88.8z"/>
	<path class="st3" d="M739.5,160.4c-15.9,0-29.3-7-29.3-16.8c0-3.5,1.7-6.5,6.2-9.2l8.2-5.1c-5.1-2.2-8.2-5.1-8.2-9
		c0-5.6,6.6-9.5,12.4-12.4c-9.8-2.6-14.8-9.8-14.8-20.2c0-14.3,10-23.7,25.5-23.7h2l27.2,0.7v2.5l-13,1.2c5.3,3.6,8.1,9.5,8.1,17
		c0,14.3-10.3,23.7-25.6,23.7c-6,0-10.4,1.2-10.4,5.3c0,2.9,2.1,4.6,7,4.6H749c13.4,0,20.2,5.6,20.2,15.1
		C769.2,146.1,759.3,160.4,739.5,160.4z M759.8,140.8c0-5.6-4-9.9-12.9-9.9h-18.5c-4.2,1.3-7.2,5.7-7.2,11.3c0,8.2,6.8,15,18.3,15
		C752.6,157.2,759.8,148.3,759.8,140.8z M751,89.3c0-11.1-3.9-21.7-13.5-21.7c-6.5,0-10.4,4.8-10.4,16.5c0,11.2,2.5,21.7,12.4,21.7
		C746.1,105.8,751,101,751,89.3z"/>
	<path class="st3" d="M807.9,135.7v-7.5c-5.7,4.4-12.5,8.8-19.8,8.8c-10,0-13.8-7.9-13.8-14.6c0-7.9,5.1-11.8,19.1-16.5l14.4-4.8
		v-14c0-13.4-3-19.3-10.1-19.3c-13,0-3.1,17.8-14.8,17.8c-4.9,0-6.6-3-6.6-5.7c0-7.7,14-15.7,26.3-15.7s17.3,6.9,17.3,19.4v35
		c0,13.7,0.5,13.8,9.8,14.7v2.5H807.9z M807.9,118.5v-12.9l-9.8,3.1c-9,3-11.6,7-11.6,12.2c0,4.6,2.3,9.1,7.8,9.1
		C799.2,130.1,806.9,127,807.9,118.5z"/>
</g>
<g>
	<path class="st33" d="M484.1,198.7v-30.2h3.5v30.2H484.1z"/>
	<path class="st33" d="M527.9,198.7h-4l-16.4-25.3h-0.2c0,0.7,0.1,1.4,0.1,2.3c0.1,0.9,0.1,1.8,0.1,2.7s0.1,2,0.1,3v17.3h-3.3v-30.2
		h4l16.4,25.2h0.1c0-0.5-0.1-1.2-0.1-2.1s-0.1-1.8-0.1-2.9c0-1-0.1-2-0.1-2.9v-17.5h3.3V198.7z"/>
	<path class="st33" d="M565.7,168.6l-10.8,30.2h-3.5l-10.8-30.2h3.7l7.1,19.9c0.3,0.8,0.5,1.6,0.8,2.3c0.2,0.7,0.4,1.4,0.6,2.1
		c0.2,0.7,0.3,1.3,0.5,2c0.1-0.6,0.3-1.3,0.5-2s0.4-1.4,0.6-2.1c0.2-0.7,0.5-1.5,0.8-2.3l7-19.8H565.7z"/>
	<path class="st33" d="M595,198.7h-16.8v-30.2H595v3.1h-13.3v9.8h12.5v3.1h-12.5v11.2H595V198.7z"/>
	<path class="st33" d="M618.3,168.6c2.5,0,4.5,0.3,6.1,0.9c1.6,0.6,2.8,1.5,3.6,2.8c0.8,1.3,1.2,2.8,1.2,4.8c0,1.6-0.3,2.9-0.9,4
		c-0.6,1.1-1.3,1.9-2.3,2.6c-0.9,0.7-1.9,1.2-3,1.5l8.3,13.5h-4.1l-7.4-12.6h-6.3v12.6h-3.5v-30.2H618.3z M618.1,171.6h-4.4v11.6
		h4.8c2.5,0,4.3-0.5,5.4-1.5s1.7-2.5,1.7-4.4c0-2-0.6-3.5-1.8-4.4C622.6,172,620.7,171.6,618.1,171.6z"/>
	<path class="st33" d="M661.7,190.7c0,1.8-0.4,3.3-1.3,4.6s-2.1,2.2-3.7,2.9c-1.6,0.7-3.5,1-5.6,1c-1.1,0-2.2-0.1-3.2-0.2
		c-1-0.1-2-0.3-2.8-0.5s-1.6-0.5-2.2-0.8v-3.4c1,0.4,2.3,0.8,3.8,1.2c1.5,0.4,3,0.5,4.7,0.5c1.5,0,2.8-0.2,3.8-0.6
		c1-0.4,1.8-1,2.4-1.8s0.8-1.7,0.8-2.8c0-1-0.2-1.9-0.7-2.6c-0.5-0.7-1.2-1.3-2.3-1.9s-2.5-1.2-4.3-1.8c-1.3-0.5-2.4-1-3.4-1.5
		c-1-0.5-1.8-1.2-2.5-1.8s-1.2-1.5-1.5-2.4c-0.3-0.9-0.5-1.9-0.5-3.1c0-1.6,0.4-3,1.2-4.1c0.8-1.1,2-2,3.4-2.6
		c1.5-0.6,3.1-0.9,5-0.9c1.6,0,3.1,0.2,4.5,0.5c1.4,0.3,2.6,0.7,3.8,1.2l-1.1,3c-1.1-0.5-2.2-0.8-3.5-1.1c-1.2-0.3-2.5-0.5-3.8-0.5
		c-1.3,0-2.4,0.2-3.3,0.6c-0.9,0.4-1.6,0.9-2,1.6c-0.5,0.7-0.7,1.5-0.7,2.5c0,1.1,0.2,1.9,0.7,2.6c0.4,0.7,1.2,1.3,2.1,1.9
		c1,0.5,2.3,1.1,3.9,1.7c1.8,0.6,3.3,1.3,4.5,2.1s2.2,1.6,2.8,2.6C661.4,187.8,661.7,189.1,661.7,190.7z"/>
	<path class="st33" d="M676.3,198.7v-30.2h3.5v30.2H676.3z"/>
	<path class="st33" d="M722.7,183.6c0,2.3-0.3,4.4-0.9,6.3c-0.6,1.9-1.5,3.5-2.6,4.9c-1.2,1.4-2.6,2.4-4.3,3.2
		c-1.7,0.7-3.7,1.1-6,1.1c-2.3,0-4.4-0.4-6.1-1.1s-3.2-1.8-4.3-3.2c-1.1-1.4-2-3-2.6-4.9s-0.9-4-0.9-6.4c0-3.1,0.5-5.8,1.5-8.1
		c1-2.3,2.6-4.1,4.6-5.4c2.1-1.3,4.7-1.9,7.8-1.9c3,0,5.5,0.6,7.5,1.9c2,1.3,3.6,3.1,4.6,5.4S722.7,180.5,722.7,183.6z M698.7,183.6
		c0,2.6,0.4,4.8,1.1,6.6c0.7,1.9,1.8,3.3,3.4,4.3c1.5,1,3.4,1.5,5.7,1.5c2.3,0,4.3-0.5,5.7-1.5c1.5-1,2.6-2.5,3.3-4.3
		c0.7-1.9,1.1-4.1,1.1-6.6c0-3.9-0.8-6.9-2.4-9.1c-1.6-2.2-4.2-3.3-7.6-3.3c-2.3,0-4.3,0.5-5.8,1.5s-2.6,2.4-3.4,4.3
		C699,178.8,698.7,181,698.7,183.6z"/>
	<path class="st33" d="M761.4,198.7h-4l-16.4-25.3h-0.2c0,0.7,0.1,1.4,0.1,2.3c0.1,0.9,0.1,1.8,0.1,2.7s0.1,2,0.1,3v17.3h-3.3v-30.2
		h4l16.4,25.2h0.1c0-0.5-0.1-1.2-0.1-2.1s-0.1-1.8-0.1-2.9c0-1-0.1-2-0.1-2.9v-17.5h3.3V198.7z"/>
	<path class="st33" d="M794.9,198.7h-16.8v-30.2h16.8v3.1h-13.3v9.8h12.5v3.1h-12.5v11.2h13.3V198.7z"/>
	<path class="st33" d="M827,190.7c0,1.8-0.4,3.3-1.3,4.6s-2.1,2.2-3.7,2.9c-1.6,0.7-3.5,1-5.6,1c-1.1,0-2.2-0.1-3.2-0.2
		c-1-0.1-2-0.3-2.8-0.5s-1.6-0.5-2.2-0.8v-3.4c1,0.4,2.3,0.8,3.8,1.2c1.5,0.4,3,0.5,4.7,0.5c1.5,0,2.8-0.2,3.8-0.6
		c1-0.4,1.8-1,2.4-1.8s0.8-1.7,0.8-2.8c0-1-0.2-1.9-0.7-2.6c-0.5-0.7-1.2-1.3-2.3-1.9s-2.5-1.2-4.3-1.8c-1.3-0.5-2.4-1-3.4-1.5
		c-1-0.5-1.8-1.2-2.5-1.8s-1.2-1.5-1.5-2.4c-0.3-0.9-0.5-1.9-0.5-3.1c0-1.6,0.4-3,1.2-4.1c0.8-1.1,2-2,3.4-2.6
		c1.5-0.6,3.1-0.9,5-0.9c1.6,0,3.1,0.2,4.5,0.5c1.4,0.3,2.6,0.7,3.8,1.2l-1.1,3c-1.1-0.5-2.2-0.8-3.5-1.1c-1.2-0.3-2.5-0.5-3.8-0.5
		c-1.3,0-2.4,0.2-3.3,0.6c-0.9,0.4-1.6,0.9-2,1.6c-0.5,0.7-0.7,1.5-0.7,2.5c0,1.1,0.2,1.9,0.7,2.6c0.4,0.7,1.2,1.3,2.1,1.9
		c1,0.5,2.3,1.1,3.9,1.7c1.8,0.6,3.3,1.3,4.5,2.1s2.2,1.6,2.8,2.6C826.7,187.8,827,189.1,827,190.7z"/>
</g>
<g>
	<g>
		<radialGradient id="SVGID_1_" cx="190.3602" cy="101.4029" r="158.6028" gradientUnits="userSpaceOnUse">
			<stop  offset="0" style="stop-color:#E4CB85"/>
			<stop  offset="0.1854" style="stop-color:#DCC284"/>
			<stop  offset="0.67" style="stop-color:#F2F2F2"/>
			<stop  offset="0.7022" style="stop-color:#B68717"/>
		</radialGradient>
		<path class="st4" d="M201,169.4c15.2,17.6,35.8,30.1,58.2,36.4c10.5,3,21.3,4.9,32.2,5.8c5-0.5,10-1.3,14.9-2.3
			c-9.2-1.1-18.1-2.7-26.8-5.3c-24.4-7.2-45.7-22.8-57.9-45.2c-23.2-42.7-20.2-97.3-11.4-144.1c0.1-0.5,0.2-1,0.3-1.5l-79.7,35.4
			c1.7,8.1,3.6,16.1,5.7,24c17.7,67,59.6,138.4,137.1,139.8c3.4,0.1,6.8,0,10.2-0.2c-8.5-0.6-16.9-1.9-25.2-3.9
			c-34.7-7.9-63.6-29.9-81.2-60.7c-14.8-25.7-22.4-55.1-24.5-84.5c-0.2-2.8-0.3-5.4-0.3-8.3l11.9-4.8
			C163.8,90.4,174.2,138.2,201,169.4z"/>
	</g>
	<g>
		
			<radialGradient id="SVGID_00000056400191573323133480000016407971084479768480_" cx="190.3602" cy="101.4029" r="158.6028" gradientUnits="userSpaceOnUse">
			<stop  offset="5.618000e-03" style="stop-color:#E4CB85"/>
			<stop  offset="0.1854" style="stop-color:#DCC284"/>
			<stop  offset="0.6164" style="stop-color:#F2F2F2"/>
			<stop  offset="0.7022" style="stop-color:#B68717"/>
			<stop  offset="0.9428" style="stop-color:#DABB73"/>
			<stop  offset="1" style="stop-color:#E3C889"/>
		</radialGradient>
		<path style="fill:url(#SVGID_00000056400191573323133480000016407971084479768480_);" d="M214.1,207.3
			c-23.9-0.8-43.4-17.1-56.6-33.4c-4-5-7.5-10.3-10.6-15.9c-21.2-38.1-43.5-83.7-53.1-124.6c-6.9,17.1-59.6,146.7-71.2,175.4
			c7.9-1,18.9-5,33.8-9.2c9.1-26,24.2-69.2,34.5-98.4c9.6,26.2,22.3,51.3,38.1,74.3c-18.4-1-37.2-4.6-53.8-12.7
			c0,0-9.4,27.9-11.8,34.9c18.4-4.7,42-9.2,72.3-9.4c1.2,0,1.7,0,2.6-0.1c16.8,23,50.2,34.2,76,20.1
			C214.3,208.2,214.1,207.3,214.1,207.3z"/>
	</g>
</g>
</svg>
