<?xml version="1.0" encoding="utf-8"?>
<!-- Generator: Adobe Illustrator 28.0.0, SVG Export Plug-In . SVG Version: 6.00 Build 0)  -->
<svg version="1.1" id="Capa_1" xmlns="http://www.w3.org/2000/svg" xmlns:xlink="http://www.w3.org/1999/xlink" x="0px" y="0px"
	 viewBox="0 0 500 500" style="enable-background:new 0 0 500 500;" xml:space="preserve">
<style type="text/css">
	.st0{fill:url(#SVGID_1_);}
	.st1{fill:url(#SVGID_00000116920059198835576930000006928347401437583547_);}
	.st2{fill:url(#SVGID_00000152978914492378157420000009838267738695033254_);}
</style>
<g>
	<g>
		<radialGradient id="SVGID_1_" cx="292.4388" cy="236.2915" r="259.4201" gradientUnits="userSpaceOnUse">
			<stop  offset="0" style="stop-color:#E4CB85"/>
			<stop  offset="0.1854" style="stop-color:#DCC284"/>
			<stop  offset="0.67" style="stop-color:#F2F2F2"/>
			<stop  offset="0.7022" style="stop-color:#B68717"/>
		</radialGradient>
		<path class="st0" d="M309.8,347.5c24.8,28.8,58.6,49.2,95.1,59.6c17.2,5,34.8,8,52.6,9.4c8.2-0.9,16.4-2.2,24.4-3.7
			c-15-1.7-29.5-4.4-43.8-8.7c-40-11.7-74.7-37.3-94.7-73.9c-38-69.9-33-159.2-18.6-235.7c0.2-0.8,0.4-1.7,0.5-2.5l-130.4,58
			c2.7,13.2,5.8,26.3,9.3,39.3c29,109.7,97.5,226.4,224.2,228.6c5.5,0.2,11.1,0,16.6-0.3c-13.9-1.1-27.7-3.1-41.2-6.3
			c-56.7-13-104-48.8-132.8-99.3c-24.3-42-36.7-90.1-40.1-138.2c-0.3-4.6-0.5-8.8-0.5-13.6l19.4-7.9
			C248.9,218.3,266,296.5,309.8,347.5z"/>
		
			<radialGradient id="SVGID_00000047032189805036651280000003243895423394954638_" cx="292.4388" cy="236.2915" r="259.4201" gradientUnits="userSpaceOnUse">
			<stop  offset="5.618000e-03" style="stop-color:#E4CB85"/>
			<stop  offset="0.1854" style="stop-color:#DCC284"/>
			<stop  offset="0.6164" style="stop-color:#F2F2F2"/>
			<stop  offset="0.7022" style="stop-color:#B68717"/>
			<stop  offset="0.9428" style="stop-color:#DABB73"/>
			<stop  offset="1" style="stop-color:#E3C889"/>
		</radialGradient>
		<path style="fill:url(#SVGID_00000047032189805036651280000003243895423394954638_);" d="M330.7,70.3
			C330.7,70.3,330.7,70.3,330.7,70.3c0,0.1-0.1,0.1-0.1,0.1c0,0,0.1,0,0.1,0L330.7,70.3z"/>
	</g>
	<g>
		
			<radialGradient id="SVGID_00000024721191339399938160000003680031232207051181_" cx="292.4388" cy="236.2915" r="259.4201" gradientUnits="userSpaceOnUse">
			<stop  offset="5.618000e-03" style="stop-color:#E4CB85"/>
			<stop  offset="0.1854" style="stop-color:#DCC284"/>
			<stop  offset="0.6164" style="stop-color:#F2F2F2"/>
			<stop  offset="0.7022" style="stop-color:#B68717"/>
			<stop  offset="0.9428" style="stop-color:#DABB73"/>
			<stop  offset="1" style="stop-color:#E3C889"/>
		</radialGradient>
		<path style="fill:url(#SVGID_00000024721191339399938160000003680031232207051181_);" d="M331.2,409.5
			c-39.1-1.2-71.1-28-92.6-54.7c-6.6-8.1-12.3-16.9-17.4-26c-34.6-62.3-71.2-136.9-86.8-203.8C123.1,153,36.9,365,18,411.8
			c12.9-1.7,30.9-8.2,55.4-15.1c14.9-42.6,39.7-113.2,56.4-160.9c15.6,42.8,36.4,83.9,62.4,121.5c-30.1-1.6-60.8-7.6-87.9-20.8
			c0,0-15.4,45.6-19.3,57.1c30-7.8,68.7-15.1,118.2-15.4c1.9-0.1,2.8,0.1,4.3-0.1c27.5,37.7,82.2,55.9,124.2,32.9
			C331.6,411,331.2,409.5,331.2,409.5z"/>
	</g>
</g>
</svg>
