<?xml version="1.0" encoding="utf-8"?>
<!-- Generator: Adobe Illustrator 28.0.0, SVG Export Plug-In . SVG Version: 6.00 Build 0)  -->
<svg version="1.1" id="Capa_1" xmlns="http://www.w3.org/2000/svg" xmlns:xlink="http://www.w3.org/1999/xlink" x="0px" y="0px"
	 viewBox="0 0 500 500" style="enable-background:new 0 0 500 500;" xml:space="preserve">
<style type="text/css">
	.st0{fill:#EBEBEB;}
	.st1{fill:#F0F0F0;}
	.st2{fill:#F5F5F5;}
	.st3{fill:#E0E0E0;}
	.st4{fill:#FFC100;}
	.st5{opacity:0.15;enable-background:new    ;}
	.st6{fill:#455A64;}
	.st7{opacity:0.7;fill:#FFFFFF;enable-background:new    ;}
	.st8{opacity:0.2;enable-background:new    ;}
	.st9{fill:#FFFFFF;}
	.st10{opacity:0.1;enable-background:new    ;}
	.st11{opacity:0.3;fill:#FFFFFF;enable-background:new    ;}
	.st12{opacity:0.6;fill:#FFFFFF;enable-background:new    ;}
	.st13{opacity:0.2;}
	.st14{fill:#263238;}
	.st15{fill:#FFBDA7;}
	.st16{fill:#B16668;}
	.st17{fill:#F28F8F;}
	.st18{fill:#F0997A;}
	.st19{fill:#37474F;}
	.st20{opacity:0.5;fill:#FFC100;enable-background:new    ;}
	.st21{fill:#FFA8A7;}
	.st22{opacity:0.5;fill:#F28F8F;enable-background:new    ;}
	.st23{fill:#9A4A4D;}
</style>
<g id="freepik--Trees--inject-114">
	<g id="freepik--Palms--inject-114">
		<g id="freepik--Palm--inject-114">
			<path class="st0" d="M334.4,213.2c-3.9-41.9-5.3-104.2-3.6-140.2l3.4-0.1c-0.8,22.5,2.1,103.2,8.4,140.2L334.4,213.2z"/>
			<path class="st1" d="M328.5,56.7c-0.3,5.8-1.8,14,2.2,19.6c1.1,0.4,2.3,0.4,3.5,0.2c2-2,3.6-4.3,3.8-19.6c0,0-1.2-1.5-4.7-1.7
				S328.5,56.7,328.5,56.7z"/>
			<path class="st2" d="M320.6,59.5c-7.8,8-10.2,18.6-9.2,29.1c0.5-5.7,1.8-12.1,5.4-16.9c1.9-2.4,4-5.6,7-6.8
				c-2,6.1-3.9,18.6-3.9,18.6s3.6-15,7-22c-1.4,7.7-1.7,15.5-0.9,23.3c-0.1-7.6,0.7-24.7,7.2-30.2c5.3,6,6.9,18.2,7.6,26
				c0.4-6.8,0.2-13.3-1.9-19.9c5,6.6,6.3,16,7.5,23.9c0.1-7.1-0.4-14.8-3.1-21.5c8,5.4,9.3,19.8,10,28.5c0.5-10-0.3-20.8-5.8-29.5
				c4.2,3.7,7.3,8.5,8.9,13.8c-1.3-6.2-3.7-12.7-8.1-17.6c6.2,3.5,9.9,7.6,13.5,13.8c-1.4-6.3-6.5-17.5-10.5-21
				c5.4-0.2,8.6,4,11,9.2c-1.3-5.1-3.7-11.4-9.2-13.6c-3.2-1.3-6.6-1.4-10.2-1.5c4-4.7,10.8-2.9,15.7-1.2c-4.4-2.6-8.9-4.2-14-3.3
				c5.5-4.3,11.3-2.4,16.1,1.7c-3-3.9-7.2-7.5-12.4-7.3c-4.6,0.2-8.9,3-11.8,6.5c0.7-4.4,1.6-9.9,5.2-13c-4.2,2.1-6.4,7.2-7.8,11.5
				c-1-6-0.7-12,0.8-17.9c-2.5,4.3-3.3,10.3-3.3,15.2c-1.3-2.7-5.8-6.8-5.8-6.8s4.6,8.7,4.9,13.1c-6-9.3-15.1-9.2-23.3-2.5
				c7.8-4.6,13.6-3.8,18.9,3.7c-5.2-3.7-10.4-3.2-16.2-1.5c6.8-1.3,11.4,1.6,16.1,6.1c-6.9-2.3-13.5,0.6-17.9,6
				c4.1-3.8,10.5-5.4,16.1-1.7c-9.4,1.2-16.9,8.4-18.4,17.8C307.5,64.8,313.6,59.3,320.6,59.5z"/>
			<path class="st0" d="M332.9,56.9c-8.4,7.3-10.4,21.7-11,31.9c-0.5-7.1-0.2-14.3,0.9-21.3c-4,4.3-6.4,12-7.4,19.3
				c-0.1-9.8-0.9-18,7.5-26.5c-8.2,2.9-12.4,7.6-16.2,17c0.9-7.2,4.8-17.8,17-21.5c-8.5-2.1-16.3,3.7-20.2,9.7
				c1.7-7.3,12.2-15.2,20.9-15.1c-9.3-6.1-17.7,0.2-21.7,7.1c1.2-8.2,12.9-17.1,21.4-11.8c-3.3-4-6.6-5.4-11.7-4.2
				c6.4-3.6,12-1.3,17,3.4c-1.5-5.3-4.3-13.7-11.2-13.3c7-1.3,11,4.8,13.4,10.4c0.2-5.9,2.8-12.3,7.9-15.7c-2.5,3.9-4,8.4-4.5,13
				c2.1-3.6,6.2-8.8,11.1-6.4c-5.1,0.7-7.5,7.4-8.7,11.5c4.4-1.8,9.3-2.2,13.9-1c7.2,1.9,11.3,8.2,12.1,15.8
				c-2.5-8.2-9.1-13.3-17.7-10.7c11.1,1.2,17.6,14.6,17.9,25.1c-2.3-10-10.2-18.8-17-18.8C355.6,61.3,359,72.7,359,83
				c-0.6-11.1-6.3-21.8-17.4-24.8c6.5,8.8,8.3,18.7,7.9,29.4c0-6.8-2-13.4-5.7-19.1c0.7,7.7-2.3,23.3-2.3,23.3s1.1-17.3-1.5-25.1
				c0.3,5.4-0.3,10.9-1.8,16.1C338.7,76.7,339.4,61.4,332.9,56.9z"/>
			<path class="st3" d="M332,55.7c-4.3,7.5-4.2,18.3-2.8,26.4c-0.5-6.8-0.4-18.2,4-24c1.8,6.5,2.6,13.3,2.5,20
				c0.8-7.7,0.4-15.4-1.3-22.9c4.2,4.1,7,9.5,8,15.3c-0.8-5.5-2-11.6-5.7-16.1c5.6,0.3,10.6,3.6,12.9,8.7
				c-2.2-5.7-6.4-9.6-12.6-10.5c2.8-3.4,8.6-5.9,12.7-3.3c-4.1-3.6-10.7-1.7-14.3,1.7c0.5-3.6,2.9-8.5,6.9-9.2
				c-4.5,0.1-6.5,5.1-8,8.5c0.2-4.2-0.6-8.4-2.5-12.2c1.5,3.9,2,8.1,1.5,12.2c-1.1-2.9-2.6-6.7-6.2-7.2c2.8,1.9,4.5,4.9,4.9,8.3
				c-2.9-3-5.9-5.5-10.2-6.1c3.9,1.2,7.1,3.8,9.2,7.2c-4.1-1.2-8.2-1.5-11.7,1.5c3.2-1.8,8.4-2.1,11.5,0.1
				c-4.8,1.9-7.1,6.6-7.8,11.5C324,61.7,327.3,55.8,332,55.7z"/>
		</g>
		<path id="freepik--palm--inject-114" class="st1" d="M370.3,137.1c-0.5-2-1.2-4-2.1-5.8c1.6,2,2.7,4.3,3.3,6.8
			c-0.1-4.5-2.3-10-6.2-12.5c2.5,0.3,4,2,5.2,4.6c-0.4-1.8-1.2-3.5-2.2-4.9c1.5,1.3,2.6,2.9,3.1,4.8c-0.5-4.2-2.7-7.7-6.7-8.8
			c-0.9-0.2-1.8-0.4-2.8-0.4c2.1-0.7,4.6,0,6.6,0.7c-2.4-1.4-4.9-2.3-7.8-1.8c3-2.4,6.2-1.3,8.9,0.9c-1.6-2.2-4-4.2-6.9-4.1
			c-1.6,0.1-3.1,0.6-4.4,1.6c0.6-1.4,1.9-2.5,3.4-2.8c-2-1-3.7,0.3-5,1.8c0.3-1.6,1.1-3,2.3-4.2c-1.3,0.7-2.3,1.8-2.9,3.1
			c0.4-1.5,1.1-3,1.9-4.3c-1.7,1.2-3,2.9-3.6,4.9c-0.1-2.4,0.1-4.8,0.7-7.1c-1.3,2.6-1.9,5.5-1.8,8.4c-0.9-1.4-2-2.7-3.2-3.8
			c0,0,0.5,1,1.1,2.2c-1.2-1.4-3.1-2.1-4.9-1.7c3.1-0.2,4.7,2.8,5.6,5.5c-3.3-3.9-7.9-3.5-12-0.2c3-1.8,5.5-2.1,7.7-0.7
			c-1.6-0.3-3.2,0-4.5,0.9c1.6-0.5,3.3-0.3,4.6,0.6c-2.1-0.5-4.3-0.3-6.4,0.4c1.6-0.3,3.2-0.2,4.7,0.4c-3.9,0.2-7.8,3.9-8.3,7.4
			c1.9-3.4,5.8-6.5,10.2-4.8c-3,0-5.8,1.4-7.6,3.7c1.5-1.4,3.5-2.2,5.6-2.1c-3.7,1.4-7.1,4.6-7.8,7.6c1.7-2.7,4.3-4.6,7.4-5.4
			c-3.5,1.7-5.9,5-6.5,8.8c0.9-2.7,2.8-4.9,5.4-6.1c-2.6,2.4-4.2,5.7-4.6,9.3c1.6-4,3.3-6.5,6.1-8.1c-3,4.2-4.2,9.3-3.6,14.3
			c0.3-3,0.9-6.3,2.6-8.9c-0.4,2.6-0.5,5.2-0.4,7.9c0.5-4,1.9-8.3,4.1-10.7c-0.1,0.3-0.1,0.7-0.2,1.1c-0.8,3.5-1.5,7.8-1.5,7.8
			s0.5-1.9,1.1-4.3c-0.2,2.4-0.2,4.9,0,7.3c0.1-4.1,0.9-8.2,2.3-12.1c-0.4,3.3-0.4,6.6-0.1,9.8c-0.1-4,0.3-8,1.3-11.9
			c0,1.1,0,2.3,0.1,3.4c-0.1,2.3,0,4.7,0.4,7c-0.1-1.6-0.1-3.2-0.1-4.8c0.1,0.5,0.3,0.9,0.6,1.3c0.1,0.1,0.2,0.1,0.2,0.1
			c-0.7,25.3-0.1,50.7,2,75.9l4.5-0.1c-3.3-19.5-4.9-61.1-4.7-75.6c0.2,0,0.4-0.2,0.6-0.3c0.1-0.1,0.2-0.2,0.3-0.4
			c0,0.5,0,1.1,0,1.6c0.1-0.6,0.1-1.2,0.1-1.9c0.4-0.7,0.8-1.9,0.9-4.9c0.5,3.1,0.6,6.2,0.4,9.3c0.5-1.6,0.8-3.3,0.9-4.9
			c0.2,1.3,0.3,2.6,0.4,3.6c0.2-2.4,0.1-4.7-0.2-7.1c1.2,4.5,0.6,13.4,0.7,13.4c0.7-3.6,1.1-7.3,1.3-11c0.6,2.3,1,4.6,1.3,6.9
			c0.1-2.4-0.1-4.9-0.5-7.3c1.5,2.8,2.3,5.9,2.2,9c0.3-4.2-0.4-8.3-2-12.2c3.1,3.6,3.7,10.2,4,14.4c0.3-5.5-0.2-11.5-3.2-16.3
			c2.3,2,4,4.7,4.9,7.6c-0.4-2-1-3.9-1.9-5.8c2.1,2.8,3.3,6.2,3.5,9.7c0.1-4.1-1-8.2-3.2-11.7C367.6,132.9,369.1,134.9,370.3,137.1z
			"/>
		<g id="freepik--palm--inject-114_00000039109820799964971950000004690094616241476798_">
			<path class="st0" d="M394.5,230.9c3.6-41.9,13.4-103.5,21.5-138.6l3.4,0.5c-4.7,22-16.3,101.9-16.8,139.4L394.5,230.9z"/>
			<path class="st1" d="M416.6,75.8c-1.3,5.7-4.3,13.5-1.4,19.6c1,0.5,2.2,0.8,3.4,0.8c2.3-1.7,4.3-3.6,7.3-18.6c0,0-1-1.7-4.3-2.5
				S416.6,75.8,416.6,75.8z"/>
			<path class="st2" d="M408.3,77.2c-9,6.5-13.4,16.5-14.2,27c1.5-5.6,3.9-11.6,8.3-15.7c2.2-2.1,4.9-4.8,8.1-5.4
				c-3,5.6-7.1,17.6-7.1,17.6s6.2-14.2,10.8-20.4c-2.7,7.3-4.5,15-5.1,22.8c1.2-7.5,5-24.2,12.5-28.5c4.1,6.8,3.6,19.2,2.9,26.9
				c1.6-6.7,2.6-13.1,1.6-19.9c3.7,7.4,3.3,16.9,3.1,24.9c1.4-7,2.2-14.6,0.7-21.7c6.9,6.7,5.6,21.2,4.8,29.8
				c2.2-9.7,3.4-20.6-0.5-30.1c3.5,4.4,5.6,9.6,6.3,15.2c-0.2-6.4-1.4-13.2-4.8-18.7c5.5,4.6,8.4,9.2,10.8,15.9
				c-0.2-6.4-3.3-18.4-6.6-22.5c5.4,0.8,7.8,5.5,9.1,11c-0.4-5.2-1.6-11.8-6.7-15c-3-1.8-6.3-2.6-9.7-3.2c4.7-3.9,11.1-1,15.6,1.6
				c-3.8-3.3-8-5.8-13.2-5.8c6.2-3.2,11.5-0.4,15.6,4.5c-2.2-4.4-5.7-8.7-10.9-9.4c-4.6-0.7-9.3,1.3-12.8,4.3
				c1.5-4.2,3.4-9.5,7.4-11.9c-4.5,1.4-7.6,6-9.7,9.9c0.1-6,1.5-12,3.9-17.5c-3.2,3.8-5.1,9.5-6,14.4c-0.8-2.9-4.5-7.7-4.5-7.7
				s3,9.4,2.5,13.8c-4.2-10.2-13.3-11.8-22.5-6.7c8.5-3.2,14-1.3,17.9,7c-4.5-4.5-9.6-5-15.7-4.4c6.9-0.1,10.9,3.6,14.8,8.8
				c-6.3-3.5-13.4-1.8-18.7,2.7c4.7-3,11.3-3.4,16.1,1.2c-9.5-0.5-18.2,5.3-21.3,14.3C394.5,80.1,401.5,75.8,408.3,77.2z"/>
			<path class="st0" d="M420.9,76.8c-9.6,5.7-14.1,19.5-16.5,29.5c0.8-7.1,2.3-14.1,4.7-20.8c-4.7,3.5-8.4,10.7-10.7,17.7
				c1.7-9.7,2.3-17.8,12.1-24.7c-8.6,1.4-13.6,5.2-19,13.9c2.2-6.9,7.9-16.7,20.6-18.2c-8-3.6-16.7,0.7-21.6,5.9
				c3-6.9,14.7-12.8,23.3-11.1c-8-7.7-17.5-3-22.6,3.1c2.6-7.9,15.7-14.5,23.1-7.8c-2.5-4.5-5.6-6.5-10.8-6.2
				c6.9-2.4,12,0.8,16.1,6.3c-0.6-5.5-1.8-14.2-8.7-15.1c7.1,0,10,6.7,11.4,12.6c1.3-5.8,5-11.6,10.5-14c-3.2,3.4-5.5,7.5-6.8,12
				c2.8-3.2,7.7-7.6,12.1-4.3c-5.1-0.3-8.7,6-10.6,9.8c4.6-1,9.5-0.5,13.8,1.5c6.8,3.1,9.6,10.1,9.1,17.7c-1-8.5-6.6-14.7-15.5-13.7
				c10.7,3.2,14.7,17.5,13.2,27.9c-0.4-10.3-6.7-20.3-13.4-21.5c7.6,7.9,8.9,19.6,7.1,29.8c1.4-11.1-2.3-22.6-12.7-27.5
				c4.8,9.8,4.9,19.8,2.5,30.3c1.2-6.7,0.4-13.5-2.2-19.8c-0.7,7.7-6.4,22.5-6.4,22.5s4.2-16.8,3-25c-0.6,5.4-2.2,10.7-4.6,15.5
				C423.1,97.3,426.5,82.4,420.9,76.8z"/>
			<path class="st3" d="M420.2,75.4c-5.5,6.6-7.4,17.3-7.4,25.4c0.7-6.8,2.9-18,8.2-22.9c0.6,6.7,0.2,13.5-1.1,20.2
				c2.2-7.4,3.1-15.1,2.8-22.8c3.4,4.8,5.2,10.6,5.2,16.5c0.2-5.6,0.1-11.8-2.7-16.8c5.5,1.3,9.8,5.5,11.1,10.9
				c-1.2-6-4.6-10.6-10.5-12.6c3.4-2.9,9.5-4.2,13.1-1c-3.5-4.3-10.3-3.6-14.4-0.9c1.1-3.4,4.4-7.9,8.5-7.8c-4.4-0.7-7.3,3.9-9.4,7
				c1-4.1,0.9-8.4-0.3-12.5c0.7,4.1,0.5,8.3-0.7,12.2c-0.5-3.1-1.4-7.1-4.8-8.2c2.4,2.4,3.6,5.6,3.4,9c-2.4-3.5-4.8-6.5-9-7.8
				c3.6,1.9,6.4,5,7.8,8.8c-3.8-1.9-7.8-3-11.7-0.6c3.5-1.2,8.6-0.5,11.3,2.2c-5.1,1-8.1,5.2-9.8,9.9
				C411.2,79.9,415.5,74.7,420.2,75.4z"/>
		</g>
		<path id="freepik--palm--inject-114_00000013885599750036751050000005011608922964481717_" class="st1" d="M467.7,217.8
			c0.3-2,0.4-4.1,0.3-6.2c0.7,2.4,0.9,5,0.4,7.5c1.6-4.2,1.8-10.1-0.8-13.9c2.2,1.2,2.9,3.4,3,6.3c0.3-1.8,0.3-3.6-0.1-5.4
			c0.9,1.7,1.2,3.7,1,5.6c1.2-4.1,0.5-8.2-2.7-10.7c-0.7-0.6-1.6-1-2.4-1.4c2.2,0.2,4.2,1.8,5.8,3.3c-1.7-2.3-3.6-4.1-6.4-4.7
			c3.7-1,6.3,1.2,7.8,4.3c-0.7-2.6-2-5.4-4.7-6.4c-1.5-0.5-3.1-0.6-4.6-0.3c1.1-1.1,2.7-1.5,4.2-1.2c-1.4-1.7-3.5-1.2-5.3-0.3
			c0.9-1.3,2.2-2.4,3.7-3c-1.4,0.2-2.8,0.7-3.9,1.7c1-1.3,2.2-2.4,3.5-3.2c-2,0.4-3.9,1.5-5.2,3.1c0.9-2.2,2-4.4,3.5-6.3
			c-2.2,1.9-3.9,4.3-5,7c-0.3-1.6-0.8-3.2-1.5-4.7c0,0,0.1,1.1,0.1,2.5c-0.6-1.8-2-3.1-3.9-3.5c2.9,1,3.2,4.4,3,7.2
			c-1.5-4.8-5.9-6.3-11-4.9c3.5-0.5,5.9,0.2,7.4,2.4c-1.3-0.9-2.9-1.2-4.5-1c1.6,0.2,3.1,1,4,2.4c-1.8-1.3-3.8-2-6-2.1
			c1.6,0.3,3,1.1,4.1,2.2c-3.7-1.3-8.7,0.6-10.5,3.6c3.1-2.4,7.9-3.7,11.3-0.5c-2.7-1.2-5.9-1-8.4,0.5c1.9-0.7,4.1-0.6,5.9,0.3
			c-3.9-0.1-8.3,1.5-10.1,4c2.6-1.8,5.8-2.5,8.9-2.1c-3.9,0.2-7.4,2.3-9.4,5.6c1.9-2.2,4.5-3.4,7.4-3.5c-3.3,1.2-6.1,3.6-7.9,6.7
			c3-3.1,5.6-4.6,8.8-5.1c-4.3,2.7-7.5,6.9-8.9,11.8c1.3-2.8,3.4-5.3,5.9-7.1c-1.4,2.2-2.5,4.6-3.4,7.1c2.1-3.5,5-6.9,7.9-8.2
			c-0.2,0.3-0.4,0.6-0.6,0.9c-2.1,2.9-4.4,6.6-4.4,6.6s1.2-1.6,2.7-3.5c-1.1,2.2-2.1,4.4-2.8,6.7c1.7-3.8,4-7.2,6.8-10.2
			c-1.7,2.8-3,5.9-4,9c1.5-3.7,3.4-7.2,5.9-10.4c-0.5,1-0.9,2.1-1.2,3.1c-1,2.1-1.8,4.3-2.4,6.6c0.5-1.5,1.1-3,1.8-4.4
			c-0.1,0.5,0,1.1,0.2,1.6c0,0.1,0.1,0.2,0.2,0.2c-10.6,23-19.9,46.6-27.8,70.6l4.2,1.7c4.6-19.2,19.4-58.1,25.3-71.4
			c0.2,0,0.4,0,0.6-0.1c0.1-0.1,0.3-0.1,0.4-0.2c-0.2,0.5-0.4,1-0.6,1.5c0.3-0.5,0.6-1.1,0.9-1.6c0.7-0.5,1.4-1.4,2.8-4.1
			c-0.7,3-1.9,6-3.3,8.7c1.1-1.3,2-2.7,2.8-4.2c-0.3,1.3-0.7,2.5-1,3.5c1.1-2.1,1.9-4.3,2.6-6.6c-0.6,4.6-4.6,12.6-4.6,12.6
			c2-3.1,3.9-6.3,5.5-9.6c-0.4,2.3-0.9,4.6-1.5,6.9c1-2.2,1.8-4.5,2.4-6.9c0.3,3.1-0.2,6.3-1.5,9.1c1.9-3.7,2.9-7.8,3-12
			c1.4,4.5-0.6,10.8-2,14.8c2.4-5,4.3-10.7,3.4-16.3c1.3,2.8,1.9,5.9,1.5,9c0.4-2,0.6-4,0.5-6c0.9,3.4,0.7,7-0.6,10.3
			c1.7-3.8,2.2-8,1.6-12.1C466.8,213.1,467.5,215.4,467.7,217.8z"/>
		<g id="freepik--palm--inject-114_00000017485186056379723190000007984389039555619992_">
			<path class="st0" d="M105.5,230.9C101.8,189,92.1,127.4,84,92.3l-3.4,0.5c4.7,22,16.3,101.9,16.8,139.4L105.5,230.9z"/>
			<path class="st1" d="M83.4,75.8c1.3,5.7,4.3,13.5,1.3,19.6c-1,0.5-2.2,0.8-3.4,0.8c-2.3-1.6-4.3-3.6-7.3-18.6c0,0,1-1.7,4.3-2.5
				S83.4,75.8,83.4,75.8z"/>
			<path class="st2" d="M108.9,86.3c-3.1-9-11.8-14.9-21.3-14.3c4.8-4.6,11.4-4.2,16.1-1.2c-5.3-4.4-12.4-6.1-18.7-2.6
				c3.8-5.3,7.9-9,14.8-8.8c-6-0.7-11.2-0.2-15.7,4.4c3.9-8.3,9.4-10.2,17.9-7c-9.2-5.1-18.3-3.5-22.5,6.7C79,59,82,49.6,82,49.6
				s-3.7,4.8-4.5,7.7c-0.9-4.8-2.8-10.5-6-14.4c2.5,5.5,3.8,11.4,3.9,17.5c-2.1-4-5.2-8.6-9.7-9.9c4,2.4,6,7.7,7.4,11.9
				c-3.4-3-8.2-5-12.8-4.3c-5.2,0.8-8.7,5-10.9,9.4c4-4.9,9.4-7.7,15.6-4.5c-5.2,0-9.4,2.4-13.2,5.8c4.5-2.6,10.9-5.5,15.6-1.6
				c-3.4,0.7-6.8,1.4-9.7,3.2c-5.1,3.2-6.3,9.8-6.7,15c1.4-5.5,3.8-10.2,9.1-11c-3.3,4.1-6.3,16.1-6.6,22.5
				c2.4-6.8,5.3-11.4,10.8-15.9c-3.4,5.5-4.6,12.3-4.8,18.7c0.6-5.5,2.8-10.8,6.3-15.2c-3.9,9.5-2.7,20.3-0.5,30.1
				c-0.8-8.6-2.2-23.1,4.8-29.8c-1.5,7.1-0.6,14.7,0.7,21.7c-0.2-8-0.6-17.5,3.1-24.9c-0.9,6.8,0,13.2,1.6,19.9
				c-0.7-7.7-1.3-20.1,2.9-26.9c7.4,4.3,11.2,21,12.5,28.5c-0.7-7.8-2.4-15.4-5.1-22.7c4.6,6.2,10.8,20.4,10.8,20.4
				s-4.1-12-7.1-17.6c3.2,0.7,5.8,3.4,8.1,5.4c4.4,4.1,6.8,10.1,8.3,15.7c-0.8-10.5-5.2-20.5-14.2-27
				C98.5,75.8,105.5,80.1,108.9,86.3z"/>
			<path class="st0" d="M79.1,76.8c9.6,5.7,14.1,19.5,16.5,29.5c-0.8-7.1-2.3-14.1-4.7-20.8c4.7,3.5,8.4,10.7,10.7,17.7
				c-1.7-9.7-2.3-17.8-12.1-24.7c8.6,1.4,13.6,5.2,19,13.9c-2.2-6.9-7.8-16.7-20.6-18.2c8-3.6,16.7,0.7,21.6,5.9
				c-3-6.9-14.7-12.8-23.3-11.1c8-7.7,17.5-3,22.6,3.1c-2.7-7.9-15.8-14.5-23.2-7.8c2.5-4.5,5.6-6.5,10.8-6.2
				c-6.9-2.4-12,0.8-16.1,6.3c0.6-5.5,1.8-14.2,8.7-15.1c-7.1,0-10,6.7-11.3,12.6c-1.3-5.8-5-11.6-10.5-14c3.2,3.4,5.5,7.5,6.8,12
				c-2.8-3.2-7.7-7.6-12.1-4.3c5.1-0.3,8.7,6,10.6,9.8c-4.6-1-9.5-0.5-13.8,1.4C51.7,70,48.8,77,49.4,84.6c1-8.5,6.6-14.7,15.5-13.7
				c-10.7,3.2-14.7,17.5-13.2,27.9c0.4-10.3,6.7-20.3,13.4-21.5c-7.6,7.9-8.9,19.6-7.1,29.8c-1.4-11.1,2.3-22.6,12.7-27.5
				c-4.8,9.8-4.9,19.8-2.5,30.3c-1.2-6.7-0.4-13.5,2.2-19.8c0.7,7.7,6.4,22.5,6.4,22.5s-4.2-16.8-3-25c0.6,5.4,2.2,10.7,4.6,15.5
				C76.9,97.3,73.5,82.4,79.1,76.8z"/>
			<path class="st3" d="M79.8,75.4c5.5,6.6,7.4,17.3,7.4,25.4C86.5,94.1,84.3,83,79,78c-0.6,6.7-0.2,13.5,1.1,20.2
				C78,90.8,77,83.1,77.4,75.4c-3.4,4.8-5.2,10.6-5.2,16.5c-0.2-5.6-0.1-11.8,2.7-16.8c-5.5,1.2-9.8,5.4-11.2,10.8
				c1.2-6,4.6-10.6,10.5-12.6c-3.3-2.9-9.5-4.2-13.1-1c3.5-4.3,10.3-3.6,14.4-0.9c-1.1-3.4-4.4-7.9-8.4-7.8c4.4-0.7,7.3,3.9,9.4,7
				c-1-4.1-0.9-8.4,0.3-12.5c-0.7,4.1-0.5,8.3,0.7,12.2c0.5-3.1,1.4-7.1,4.8-8.2c-2.4,2.4-3.6,5.6-3.4,9c2.3-3.5,4.8-6.5,9-7.8
				c-3.6,1.9-6.4,5-7.8,8.8c3.8-1.9,7.8-3,11.7-0.6c-3.5-1.2-8.6-0.5-11.3,2.2c5.1,1,8.2,5.2,9.8,9.9C88.8,79.9,84.4,74.7,79.8,75.4
				z"/>
		</g>
		<path id="freepik--palm--inject-114_00000012454594039905660090000012373418160070750086_" class="st1" d="M32.3,217.8
			c-0.3-2-0.4-4.1-0.3-6.2c-0.7,2.4-0.9,5-0.4,7.5c-1.6-4.2-1.8-10.1,0.8-13.9c-2.2,1.2-2.9,3.4-3,6.3c-0.3-1.8-0.3-3.6,0.1-5.4
			c-0.9,1.7-1.2,3.7-1,5.6c-1.2-4.1-0.5-8.2,2.7-10.7c0.7-0.6,1.6-1,2.4-1.4c-2.2,0.2-4.2,1.8-5.8,3.3c1.7-2.3,3.6-4.1,6.4-4.7
			c-3.7-1-6.3,1.2-7.8,4.3c0.7-2.6,2-5.4,4.7-6.4c1.5-0.5,3.1-0.6,4.6-0.3c-1.1-1.1-2.7-1.5-4.2-1.2c1.4-1.7,3.5-1.2,5.3-0.3
			c-0.9-1.3-2.2-2.4-3.7-3c1.4,0.2,2.8,0.8,3.9,1.7c-1-1.3-2.2-2.4-3.5-3.2c2,0.4,3.9,1.5,5.2,3.1c-0.9-2.2-2-4.4-3.5-6.3
			c2.2,1.9,3.9,4.3,5,7c0.3-1.6,0.8-3.2,1.5-4.7c0,0-0.1,1.1-0.1,2.5c0.6-1.8,2-3.1,3.9-3.5c-2.9,1-3.2,4.4-3,7.2
			c1.5-4.8,5.8-6.3,11-4.9c-3.5-0.5-5.9,0.2-7.4,2.4c1.3-0.9,2.9-1.2,4.5-1c-1.6,0.2-3.1,1-4,2.4c1.8-1.3,3.8-2,6-2.1
			c-1.6,0.3-3,1.1-4.1,2.2c3.7-1.3,8.7,0.6,10.5,3.6c-3.1-2.4-7.9-3.7-11.3-0.5c2.7-1.2,5.9-1,8.4,0.5c-1.9-0.7-4.1-0.6-5.9,0.3
			c3.9-0.1,8.3,1.5,10.1,4c-2.6-1.8-5.8-2.5-8.9-2.1c3.9,0.2,7.4,2.3,9.4,5.6c-1.9-2.2-4.5-3.4-7.4-3.5c3.3,1.2,6.1,3.6,7.8,6.7
			c-3-3.1-5.6-4.6-8.8-5.1c4.3,2.7,7.5,6.9,8.9,11.8c-1.3-2.8-3.4-5.3-5.9-7.1c1.4,2.2,2.5,4.6,3.4,7.1c-2.1-3.5-5-6.9-7.9-8.2
			c0.2,0.3,0.4,0.6,0.6,0.9c2.1,2.9,4.4,6.6,4.4,6.6s-1.2-1.6-2.7-3.5c1.1,2.2,2,4.4,2.8,6.7c-1.7-3.8-4-7.2-6.8-10.2
			c1.7,2.8,3,5.9,4,9c-1.5-3.7-3.4-7.2-5.8-10.4c0.5,1,0.9,2.1,1.2,3.1c1,2.1,1.8,4.3,2.3,6.6c-0.5-1.5-1.1-3-1.8-4.4
			c0,0.5-0.1,1.1-0.3,1.6c0,0.1-0.1,0.2-0.2,0.2c10.6,23,19.9,46.6,27.9,70.6l-4.2,1.7c-4.6-19.2-19.4-58.1-25.3-71.4
			c-0.2,0-0.4,0-0.6-0.1c-0.1-0.1-0.3-0.1-0.4-0.2c0.2,0.5,0.4,1,0.6,1.5c-0.3-0.5-0.6-1.1-0.9-1.6c-0.7-0.5-1.4-1.4-2.8-4.1
			c0.7,3,1.9,6,3.3,8.7c-1.1-1.3-2-2.7-2.8-4.2c0.3,1.3,0.7,2.5,1,3.5c-1.1-2.1-1.9-4.3-2.6-6.6c0.6,4.6,4.6,12.6,4.6,12.6
			c-2-3.1-3.8-6.3-5.5-9.6c0.4,2.3,0.9,4.6,1.5,6.9c-1-2.2-1.8-4.5-2.4-6.9c-0.3,3.1,0.2,6.3,1.5,9.1c-1.9-3.7-2.9-7.8-3-12
			c-1.4,4.5,0.6,10.8,2,14.8c-2.4-5-4.3-10.7-3.4-16.3c-1.3,2.8-1.9,5.9-1.5,9c-0.4-2-0.6-4-0.5-6c-0.9,3.4-0.7,7,0.6,10.3
			c-1.7-3.8-2.2-8-1.6-12.1C33.2,213.1,32.5,215.4,32.3,217.8z"/>
		<path id="freepik--palm--inject-114_00000027566238037605507310000002124378708120225157_" class="st1" d="M290,167.5
			c0.6-2.3,1.4-4.5,2.4-6.6c-1.8,2.2-3.1,4.8-3.8,7.6c0.2-5.1,2.6-11.3,7-14.2c-2.8,0.3-4.6,2.3-5.9,5.2c0.4-2,1.3-3.9,2.5-5.6
			c-1.7,1.4-2.9,3.3-3.5,5.4c0.5-4.8,3.1-8.8,7.6-9.9c1-0.3,2.1-0.4,3.2-0.4c-2.4-0.8-5.2,0-7.5,0.8c2.7-1.6,5.6-2.7,8.8-2.1
			c-3.4-2.7-7.1-1.5-10.1,1c1.9-2.5,4.5-4.7,7.8-4.6c1.8,0.1,3.5,0.7,5,1.8c-0.9-1.6-2.1-2.9-3.8-3.2c2.2-1.1,4.2,0.3,5.6,2
			c-0.4-1.8-1.3-3.4-2.6-4.7c1.4,0.8,2.6,2,3.3,3.5c-0.5-1.8-1.2-3.4-2.2-4.9c1.9,1.4,3.4,3.3,4.1,5.5c0.1-2.7-0.2-5.4-0.8-8.1
			c1.5,3,2.2,6.2,2.1,9.5c1-1.6,2.2-3,3.6-4.3c0,0-0.6,1.1-1.2,2.5c1.4-1.6,3.5-2.3,5.6-1.9c-3.5-0.2-5.3,3.1-6.4,6.2
			c3.7-4.4,8.9-4,13.6-0.2c-3.4-2-6.2-2.4-8.8-0.8c1.8-0.3,3.6,0.1,5.1,1c-1.8-0.6-3.7-0.3-5.3,0.7c2.4-0.5,4.9-0.4,7.2,0.5
			c-1.8-0.4-3.6-0.2-5.3,0.4c4.4,0.3,8.8,4.4,9.4,8.4c-2.2-3.8-6.6-7.4-11.6-5.5c3.4,0,6.5,1.6,8.6,4.2c-1.7-1.6-4-2.5-6.3-2.4
			c4.2,1.6,8,5.2,8.8,8.6c-1.9-3-4.9-5.2-8.4-6.1c3.9,1.9,6.7,5.7,7.3,10c-1-3.1-3.2-5.6-6.2-6.9c2.9,2.8,4.8,6.5,5.2,10.5
			c-1.8-4.5-3.8-7.3-6.9-9.2c3.3,4.7,4.8,10.5,4.1,16.2c-0.3-3.4-1-7.1-3-10.1c0.5,2.9,0.6,5.9,0.4,8.9c-0.6-4.6-2.1-9.4-4.6-12.1
			c0.1,0.4,0.1,0.8,0.2,1.2c0.9,3.9,1.7,8.8,1.7,8.8s-0.5-2.2-1.3-4.9c0.2,2.7,0.2,5.5,0,8.2c-0.1-4.7-1-9.3-2.6-13.7
			c0.5,3.7,0.5,7.4,0.1,11.1c0.1-4.5-0.4-9.1-1.6-13.4c0,1.3,0,2.5-0.1,3.8c0.1,2.7,0,5.4-0.5,8c0.1-1.8,0.2-3.6,0.1-5.4
			c-0.1,0.5-0.4,1.1-0.7,1.5c-0.1,0.1-0.2,0.1-0.3,0.2c0.9,22.8,1.9,55.8-0.5,81.3l-5.1-0.1c3.7-22.1,3.8-64.5,3.5-81
			c-0.2-0.1-0.5-0.2-0.6-0.4c-0.1-0.1-0.2-0.3-0.3-0.4c0,0.6,0,1.2,0,1.8c-0.1-0.7-0.1-1.4-0.2-2.1c-0.5-0.8-0.9-2.1-1.1-5.5
			c-0.6,3.5-0.7,7-0.4,10.6c-0.5-1.8-0.9-3.7-1-5.6c-0.2,1.5-0.4,2.9-0.5,4.1c-0.2-2.7-0.1-5.3,0.2-8c-1.4,5.1-0.7,15.1-0.8,15.2
			c-0.8-4.1-1.3-8.2-1.5-12.4c-0.6,2.6-1.1,5.2-1.5,7.8c-0.1-2.8,0.1-5.5,0.5-8.2c-1.7,3.1-2.6,6.6-2.6,10.2
			c-0.3-4.7,0.4-9.5,2.3-13.8c-3.5,4.1-4.1,11.6-4.5,16.3c-0.3-6.2,0.2-13.1,3.6-18.5c-2.6,2.3-4.5,5.3-5.6,8.7
			c0.5-2.2,1.2-4.4,2.1-6.5c-2.4,3.2-3.8,7-3.9,11c-0.1-4.7,1.2-9.3,3.6-13.3C293.1,163,291.3,165.1,290,167.5z"/>
		<g id="freepik--palm--inject-114_00000180347155942824223840000016606914702806524335_">
			<path class="st0" d="M165.6,213.2c3.9-41.9,5.3-104.2,3.6-140.2l-3.4-0.1c0.8,22.5-2.1,103.2-8.4,140.2L165.6,213.2z"/>
			<path class="st1" d="M171.5,56.7c0.3,5.8,1.8,14-2.2,19.6c-1.1,0.4-2.3,0.4-3.5,0.2c-2-2-3.6-4.3-3.8-19.6c0,0,1.2-1.5,4.7-1.7
				S171.5,56.7,171.5,56.7z"/>
			<path class="st2" d="M194.7,71.6c-1.5-9.4-8.9-16.7-18.4-17.9c5.6-3.7,12-2.1,16.1,1.7c-4.4-5.4-11.1-8.3-17.9-6
				c4.7-4.5,9.4-7.4,16.1-6.1c-5.8-1.7-11-2.2-16.2,1.5c5.3-7.5,11.1-8.3,18.9-3.7c-8.2-6.7-17.4-6.7-23.3,2.5
				c0.3-4.4,4.9-13.1,4.9-13.1s-4.5,4.1-5.8,6.8c0-4.9-0.8-10.9-3.3-15.2c1.5,5.9,1.7,11.9,0.8,17.9c-1.4-4.3-3.6-9.4-7.8-11.5
				c3.6,3.1,4.5,8.6,5.2,13c-2.9-3.5-7.2-6.3-11.8-6.5c-5.2-0.2-9.4,3.4-12.4,7.3c4.8-4.1,10.6-6,16.1-1.7c-5.2-0.9-9.7,0.7-14,3.3
				c4.9-1.7,11.7-3.5,15.7,1.2c-3.5,0-6.9,0.2-10.2,1.5c-5.6,2.2-7.9,8.5-9.2,13.6c2.3-5.2,5.5-9.4,10.9-9.2
				c-3.9,3.5-9.1,14.7-10.5,21c3.6-6.2,7.3-10.2,13.5-13.8c-4.3,4.8-6.8,11.3-8.1,17.6c1.6-5.3,4.7-10.1,8.8-13.8
				c-5.5,8.7-6.3,19.5-5.8,29.5c0.7-8.6,2-23.1,10-28.5c-2.7,6.7-3.2,14.3-3.1,21.5c1.2-7.9,2.5-17.3,7.5-23.9
				c-2.1,6.6-2.3,13-1.9,19.9c0.7-7.7,2.3-20,7.6-26c6.5,5.6,7.3,22.6,7.2,30.2c0.7-7.8,0.4-15.6-0.9-23.3c3.4,7,7,22,7,22
				s-1.9-12.5-3.9-18.6c3,1.2,5.2,4.3,7,6.8c3.6,4.8,4.9,11.2,5.4,16.9c1-10.4-1.4-21.1-9.2-29.1C186.4,59.3,192.5,64.8,194.7,71.6z
				"/>
			<path class="st0" d="M167.1,56.9c8.4,7.3,10.4,21.7,10.9,31.9c0.5-7.1,0.2-14.3-0.9-21.3c4,4.3,6.4,12,7.4,19.3
				c0.1-9.8,0.9-18-7.5-26.5c8.2,2.9,12.4,7.6,16.2,17c-0.9-7.2-4.8-17.8-17-21.5c8.6-2.1,16.3,3.7,20.2,9.7
				c-1.7-7.3-12.2-15.2-20.9-15.1c9.3-6.1,17.7,0.2,21.7,7.1c-1.2-8.2-12.9-17.1-21.4-11.8c3.3-4,6.6-5.4,11.7-4.2
				c-6.4-3.6-12-1.3-17,3.4c1.5-5.3,4.3-13.7,11.2-13.3c-7-1.3-11,4.8-13.4,10.4c-0.2-5.9-2.8-12.3-7.9-15.7c2.5,3.9,4,8.4,4.5,13
				c-2.1-3.6-6.2-8.8-11.1-6.4c5.1,0.7,7.5,7.4,8.7,11.5c-4.4-1.8-9.3-2.2-13.9-1c-7.2,1.9-11.3,8.2-12.1,15.8
				c2.5-8.2,9.1-13.3,17.7-10.7c-11.1,1.2-17.6,14.6-17.9,25.1c2.3-10,10.2-18.8,17-18.8C144.4,61.3,141,72.7,141,83
				c0.6-11.1,6.3-21.8,17.4-24.8c-6.5,8.8-8.3,18.7-7.9,29.4c0-6.8,2-13.4,5.7-19.1c-0.7,7.7,2.3,23.3,2.3,23.3s-1.1-17.3,1.5-25.1
				c-0.3,5.4,0.3,10.9,1.8,16.1C161.3,76.7,160.6,61.4,167.1,56.9z"/>
			<path class="st3" d="M168,55.7c4.3,7.5,4.2,18.3,2.8,26.4c0.5-6.8,0.4-18.2-4-24c-1.8,6.5-2.6,13.3-2.5,20
				c-0.8-7.7-0.4-15.4,1.3-22.9c-4.2,4.1-7,9.5-8,15.3c0.8-5.5,2-11.6,5.7-16.1c-5.6,0.3-10.6,3.6-12.9,8.7
				c2.2-5.7,6.4-9.6,12.6-10.5c-2.8-3.4-8.6-5.9-12.7-3.3c4.1-3.6,10.7-1.7,14.3,1.7c-0.5-3.6-2.9-8.5-6.9-9.2
				c4.5,0.1,6.5,5.1,8,8.5c-0.2-4.2,0.6-8.4,2.6-12.2c-1.5,3.9-2,8.1-1.5,12.2c1.1-2.9,2.6-6.7,6.2-7.2c-2.8,1.9-4.5,4.9-4.9,8.3
				c2.9-3,5.9-5.5,10.2-6.1c-3.8,1.2-7.1,3.8-9.2,7.2c4.1-1.2,8.2-1.5,11.7,1.5c-3.2-1.8-8.4-2.1-11.5,0.1c4.8,1.9,7.1,6.6,7.8,11.5
				C176.1,61.7,172.7,55.8,168,55.7z"/>
		</g>
		<path id="freepik--palm--inject-114_00000114069276330458703340000012636726154824263302_" class="st1" d="M129.7,137.1
			c0.5-2,1.2-4,2.1-5.8c-1.6,2-2.7,4.3-3.3,6.8c0.1-4.5,2.3-10,6.2-12.5c-2.5,0.3-4,2-5.2,4.6c0.4-1.8,1.2-3.5,2.2-4.9
			c-1.5,1.3-2.6,2.9-3.1,4.8c0.4-4.2,2.7-7.7,6.7-8.8c0.9-0.2,1.8-0.4,2.8-0.4c-2.1-0.7-4.6,0-6.6,0.7c2.4-1.4,4.9-2.3,7.8-1.8
			c-3-2.4-6.2-1.3-8.9,0.9c1.6-2.2,4-4.2,6.9-4.1c1.6,0.1,3.1,0.6,4.4,1.6c-0.6-1.4-1.9-2.5-3.4-2.8c2-1,3.7,0.3,4.9,1.8
			c-0.3-1.6-1.1-3-2.3-4.2c1.3,0.7,2.3,1.8,2.9,3.1c-0.4-1.5-1.1-3-1.9-4.3c1.7,1.2,3,2.9,3.6,4.9c0.1-2.4-0.1-4.8-0.7-7.1
			c1.3,2.6,1.9,5.5,1.8,8.4c0.9-1.4,2-2.7,3.2-3.8c0,0-0.5,1-1.1,2.2c1.2-1.4,3.1-2.1,4.9-1.7c-3.1-0.2-4.7,2.8-5.6,5.5
			c3.3-3.9,7.9-3.5,12-0.2c-3-1.8-5.5-2.1-7.7-0.7c1.6-0.3,3.2,0,4.5,0.9c-1.6-0.5-3.3-0.3-4.6,0.6c2.1-0.5,4.3-0.3,6.4,0.4
			c-1.6-0.3-3.2-0.2-4.7,0.4c3.9,0.2,7.8,3.9,8.3,7.4c-1.9-3.4-5.8-6.5-10.2-4.8c3,0,5.8,1.4,7.6,3.7c-1.5-1.4-3.5-2.2-5.6-2.1
			c3.7,1.4,7.1,4.6,7.8,7.6c-1.7-2.7-4.3-4.6-7.4-5.4c3.5,1.7,5.9,5,6.5,8.8c-0.9-2.7-2.8-4.9-5.4-6.1c2.6,2.4,4.2,5.7,4.6,9.3
			c-1.6-4-3.3-6.5-6.1-8.1c3,4.2,4.2,9.3,3.6,14.3c-0.3-3-0.9-6.3-2.6-8.9c0.4,2.6,0.5,5.2,0.4,7.9c-0.6-4-1.9-8.3-4.1-10.7
			c0.1,0.3,0.1,0.7,0.2,1.1c0.8,3.5,1.5,7.8,1.5,7.8s-0.4-1.9-1.1-4.3c0.2,2.4,0.2,4.9,0,7.3c-0.1-4.1-0.9-8.2-2.3-12.1
			c0.4,3.3,0.4,6.6,0.1,9.8c0.1-4-0.3-8-1.3-11.9c0,1.1,0,2.3-0.1,3.4c0.1,2.3,0,4.7-0.4,7c0.1-1.6,0.1-3.2,0.1-4.8
			c-0.1,0.5-0.3,0.9-0.6,1.3c-0.1,0.1-0.2,0.1-0.2,0.1c0.7,25.3,0.1,50.7-2.1,75.9l-4.5-0.1c3.3-19.5,4.9-61.1,4.7-75.6
			c-0.2,0-0.4-0.2-0.6-0.3c-0.1-0.1-0.2-0.2-0.3-0.4c0,0.5,0,1.1,0,1.6c-0.1-0.6-0.1-1.2-0.1-1.9c-0.4-0.7-0.8-1.9-0.9-4.9
			c-0.5,3.1-0.6,6.2-0.4,9.3c-0.5-1.6-0.8-3.3-0.9-4.9c-0.2,1.3-0.3,2.6-0.4,3.6c-0.2-2.4-0.1-4.7,0.2-7.1
			c-1.2,4.5-0.6,13.4-0.7,13.4c-0.7-3.6-1.1-7.3-1.3-11c-0.6,2.3-1,4.6-1.3,6.9c-0.1-2.4,0.1-4.9,0.5-7.3c-1.5,2.8-2.3,5.9-2.2,9
			c-0.3-4.2,0.4-8.3,2-12.2c-3.1,3.6-3.7,10.2-4,14.4c-0.3-5.5,0.2-11.5,3.2-16.3c-2.3,2-4,4.7-4.9,7.6c0.4-2,1-3.9,1.9-5.8
			c-2.1,2.8-3.3,6.2-3.5,9.7c-0.1-4.1,1-8.2,3.2-11.7C132.4,132.9,130.9,134.9,129.7,137.1z"/>
		<path id="freepik--palm--inject-114_00000034062042887794358060000017443732500012964278_" class="st1" d="M208.3,162.9
			c-0.6-2.3-1.4-4.5-2.4-6.6c1.8,2.2,3.1,4.9,3.8,7.7c-0.2-5.1-2.6-11.3-7-14.2c2.8,0.3,4.6,2.3,5.9,5.2c-0.5-2-1.3-3.9-2.6-5.6
			c1.7,1.4,2.9,3.3,3.5,5.4c-0.5-4.8-3.1-8.8-7.6-9.9c-1-0.3-2.1-0.4-3.1-0.4c2.4-0.8,5.2,0,7.5,0.8c-2.7-1.6-5.6-2.7-8.8-2.1
			c3.4-2.7,7.1-1.5,10.1,1c-1.9-2.5-4.5-4.7-7.8-4.6c-1.8,0.1-3.5,0.7-5,1.8c0.9-1.6,2.1-2.9,3.8-3.2c-2.2-1.1-4.2,0.3-5.6,2
			c0.4-1.8,1.3-3.4,2.6-4.7c-1.4,0.8-2.6,2-3.3,3.5c0.5-1.8,1.2-3.4,2.2-4.9c-1.9,1.4-3.3,3.3-4.1,5.5c-0.1-2.7,0.2-5.4,0.8-8.1
			c-1.5,3-2.2,6.2-2.1,9.5c-1-1.6-2.2-3-3.6-4.3c0,0,0.6,1.1,1.2,2.6c-1.4-1.6-3.5-2.3-5.6-1.9c3.5-0.2,5.3,3.1,6.4,6.2
			c-3.7-4.4-8.9-4-13.6-0.2c3.4-2,6.2-2.4,8.8-0.8c-1.8-0.3-3.6,0.1-5.1,1c1.8-0.6,3.7-0.3,5.3,0.7c-2.4-0.5-4.9-0.4-7.2,0.5
			c1.8-0.4,3.6-0.2,5.3,0.4c-4.4,0.3-8.8,4.4-9.4,8.4c2.2-3.8,6.6-7.4,11.6-5.5c-3.4,0-6.5,1.5-8.6,4.2c1.7-1.6,4-2.4,6.3-2.4
			c-4.2,1.6-8,5.2-8.8,8.6c1.9-3,4.9-5.2,8.4-6.1c-3.9,1.9-6.7,5.7-7.3,10c1-3.1,3.2-5.6,6.2-6.9c-2.9,2.8-4.7,6.5-5.1,10.6
			c1.8-4.6,3.8-7.3,6.9-9.2c-3.3,4.7-4.8,10.5-4.1,16.2c0.3-3.4,1-7.1,3-10.1c-0.5,2.9-0.6,5.9-0.4,8.9c0.6-4.6,2.1-9.4,4.6-12.1
			c-0.1,0.4-0.1,0.8-0.2,1.2c-0.9,3.9-1.7,8.8-1.7,8.8s0.5-2.2,1.3-4.9c-0.2,2.7-0.2,5.5,0,8.2c0.1-4.7,1-9.3,2.5-13.7
			c-0.5,3.7-0.5,7.4-0.1,11.1c-0.1-4.5,0.4-9,1.5-13.4c0,1.3,0,2.6,0.1,3.8c-0.1,2.7,0,5.3,0.5,7.9c-0.1-1.8-0.1-3.6-0.1-5.4
			c0.1,0.5,0.4,1.1,0.7,1.5c0.1,0.1,0.2,0.1,0.3,0.2c-0.8,28.7-0.1,57.4,2.3,85.9l5.1-0.1c-3.7-22.1-5.5-69.2-5.3-85.7
			c0.2,0,0.5-0.2,0.6-0.3c0.1-0.1,0.2-0.3,0.3-0.4c0,0.6,0,1.2,0,1.8c0.1-0.7,0.1-1.4,0.2-2.1c0.5-0.8,0.9-2.1,1.1-5.5
			c0.6,3.5,0.7,7,0.4,10.6c0.5-1.8,0.9-3.7,1-5.6c0.2,1.5,0.4,2.9,0.5,4.1c0.2-2.7,0.1-5.3-0.2-8c1.4,5.1,0.7,15.1,0.8,15.1
			c0.8-4.1,1.3-8.2,1.5-12.4c0.6,2.6,1.1,5.2,1.5,7.8c0.1-2.8-0.1-5.5-0.5-8.2c1.7,3.1,2.6,6.6,2.6,10.2c0.3-4.7-0.4-9.5-2.3-13.8
			c3.5,4.1,4.1,11.6,4.5,16.3c0.3-6.2-0.2-13.1-3.6-18.5c2.6,2.3,4.5,5.3,5.6,8.7c-0.5-2.2-1.2-4.4-2.1-6.5c2.4,3.2,3.8,7,3.9,11
			c0.1-4.7-1.1-9.3-3.6-13.4C205.1,158.3,206.9,160.5,208.3,162.9z"/>
	</g>
</g>
<g id="freepik--Umbrellas--inject-114">
	<g id="freepik--Umbrella--inject-114">
		<path class="st4" d="M113.3,139c-4.7,1.7-13.3,8.9-18.1,14.5c-8,3-21.4,8.7-29.2,13.6l-5.2-12.1l-7.8-18
			C73.6,132.4,90.4,130.7,113.3,139z"/>
		<path class="st5" d="M113.3,139c-4.7,1.7-13.3,8.9-18.1,14.5c-8,3-21.4,8.7-29.2,13.6l-5.2-12.1l-7.8-18
			C73.6,132.4,90.4,130.7,113.3,139z"/>
		<path class="st0" d="M113.3,139c-4.7,1.7-13.3,8.9-18.1,14.5c-13-14-28-18.8-40.6-16.8C74,133.1,94.1,133.9,113.3,139z"/>
		<path class="st5" d="M60.7,154.9l1.6,3.7c7.1-4.2,17.2-8.6,28.4-9.5c6.1-5.1,19-9.6,22.6-10.1C113.3,139,89.9,136.5,60.7,154.9z"
			/>
		<path class="st4" d="M13,182.3c4.4-2.3,15.6-3.5,23-3.2c7.6-3.8,21-9.6,30-12l-5.2-12.1l-7.8-18C35.5,148.9,22.6,159.9,13,182.3z"
			/>
		<path class="st0" d="M13,182.3c4.4-2.3,15.6-3.5,23-3.2c7.6-3.8,21-9.6,30-12l-5.2-12.1l-7.8-18C35.5,148.9,22.6,159.9,13,182.3z"
			/>
		<path class="st4" d="M13,182.3c4.4-2.3,15.6-3.5,23-3.2c-1.2-19.1,5.5-33.3,15.7-41.1C35.7,149.7,22.5,164.8,13,182.3z"/>
		<path class="st5" d="M13,182.3c4.4-2.3,15.6-3.5,23-3.2c-1.2-19.1,5.5-33.3,15.7-41.1C35.7,149.7,22.5,164.8,13,182.3z"/>
		<path class="st5" d="M60.7,154.9l1.6,3.7c-7.9,2.2-18.1,6.7-26.4,14.2c-7.9,1-20.1,7.2-22.9,9.5C13,182.3,27.3,163.5,60.7,154.9z"
			/>
		<path class="st6" d="M55.5,139.8l41,96.3c0.1,0.2,0,0.4-0.1,0.6c-0.4,0.4-0.9,0.7-1.5,0.6c-0.2,0-0.4-0.1-0.5-0.3l-41-96.3
			L55.5,139.8z"/>
		<path class="st6" d="M54.5,140.5l-0.2,0.1l-0.2,0.1h-0.2c-0.3,0-0.3-0.1-0.3-0.3c-0.1-0.3-0.3-0.8-0.5-1.3c-0.4-1.1-1-2.5-1.5-4
			c-0.3-0.7-0.5-1.5-0.7-2.2c-0.1-0.4-0.2-0.7-0.3-1s-0.2-0.6-0.3-0.9s-0.2-0.5-0.2-0.8s-0.1-0.4-0.2-0.6c-0.1-0.3-0.1-0.5-0.1-0.5
			l0.3,0.4c0.1,0.1,0.2,0.3,0.3,0.5s0.3,0.4,0.4,0.7l0.5,0.8c0.2,0.3,0.3,0.6,0.5,0.9c0.3,0.6,0.7,1.3,1.1,2
			c0.7,1.4,1.4,2.8,1.8,3.9c0.2,0.5,0.4,1,0.6,1.3c0,0.2,0.2,0.2,0,0.4l-0.2,0.1l-0.2,0.1L54.5,140.5z"/>
		<path class="st4" d="M113.3,139c-8.2,0.9-16.1,3.4-23.3,7.2c-10.6,0.8-23,7.4-28.2,11.2L53,136.9C68.5,131.9,90.4,130.7,113.3,139
			z"/>
		<path class="st1" d="M90,146.2c-10.6,0.8-23,7.4-28.2,11.2L53,136.9c7.5-1.5,16.8,0.9,24.1,3.6C81.5,142.1,85.8,144,90,146.2z"/>
		<path class="st1" d="M13,182.2c6.3-5.3,13.5-9.4,21.3-12c7.9-7.1,21.1-11.6,27.5-12.8l-8.9-20.5C38.6,144.8,22.6,159.9,13,182.2z"
			/>
		<path class="st4" d="M34.3,170.2c7.9-7.1,21.1-11.6,27.5-12.8l-8.9-20.5c-6.2,4.4-10.8,12.8-14,20
			C37.1,161.3,35.5,165.7,34.3,170.2z"/>
		<path class="st0" d="M52.9,136.9c-0.4,0.3-0.9,0.6-1.3,1L52.9,136.9z"/>
	</g>
	<g id="freepik--umbrella--inject-114">
		<path class="st4" d="M390.6,137.5c4.7,1.7,13.3,8.9,18.1,14.5c8,3,21.4,8.7,29.2,13.6l5.2-12.2l7.8-18
			C430.2,130.9,413.4,129.1,390.6,137.5z"/>
		<path class="st5" d="M390.6,137.5c4.7,1.7,13.3,8.9,18.1,14.5c8,3,21.4,8.7,29.2,13.6l5.2-12.2l7.8-18
			C430.2,130.9,413.4,129.1,390.6,137.5z"/>
		<path class="st0" d="M390.6,137.5c4.7,1.7,13.3,8.9,18.1,14.5c13-14,28-18.8,40.6-16.8C429.8,131.6,409.8,132.4,390.6,137.5z"/>
		<path class="st5" d="M443.2,153.4l-1.6,3.7c-7.1-4.2-17.2-8.6-28.4-9.5c-6.1-5.1-19-9.6-22.6-10.1
			C390.6,137.5,414,135,443.2,153.4z"/>
		<path class="st4" d="M490.9,180.7c-4.4-2.3-15.6-3.5-23-3.2c-7.6-3.8-21-9.6-30-12l5.2-12.2l7.8-18
			C468.4,147.3,481.3,158.4,490.9,180.7z"/>
		<path class="st0" d="M490.9,180.7c-4.4-2.3-15.6-3.5-23-3.2c-7.6-3.8-21-9.6-30-12l5.2-12.2l7.8-18
			C468.4,147.3,481.3,158.4,490.9,180.7z"/>
		<path class="st4" d="M490.9,180.7c-4.4-2.3-15.6-3.5-23-3.2c1.2-19.1-5.5-33.3-15.6-41.1C468.2,148.2,481.4,163.3,490.9,180.7z"/>
		<path class="st5" d="M490.9,180.7c-4.4-2.3-15.6-3.5-23-3.2c1.2-19.1-5.5-33.3-15.6-41.1C468.2,148.2,481.4,163.3,490.9,180.7z"/>
		<path class="st5" d="M443.2,153.4l-1.6,3.7c7.9,2.2,18.1,6.7,26.5,14.2c7.9,0.9,20.1,7.2,22.9,9.5
			C490.9,180.7,476.6,162,443.2,153.4z"/>
		<path class="st6" d="M448.3,138.2l-41,96.3c-0.1,0.2,0,0.4,0.1,0.6c0.4,0.4,0.9,0.7,1.5,0.6c0.2,0,0.4-0.1,0.5-0.3l41-96.3
			L448.3,138.2z"/>
		<path class="st6" d="M449.4,139l0.2,0.1l0.2,0.1h0.2c0.3,0,0.3-0.1,0.4-0.3c0.1-0.3,0.3-0.8,0.5-1.3c0.4-1.1,1-2.5,1.5-4
			c0.3-0.7,0.5-1.5,0.7-2.2c0.1-0.4,0.2-0.7,0.3-1l0.3-0.9c0.1-0.3,0.1-0.5,0.2-0.8s0.1-0.4,0.2-0.6c0.1-0.3,0.1-0.5,0.1-0.5
			L454,128c-0.1,0.1-0.2,0.3-0.3,0.5s-0.3,0.4-0.4,0.7s-0.3,0.5-0.5,0.8s-0.3,0.6-0.5,0.9c-0.4,0.6-0.7,1.3-1.1,2
			c-0.7,1.4-1.4,2.8-1.8,3.9l-0.6,1.3c0,0.2-0.2,0.2,0,0.4c0,0.1,0.1,0.1,0.2,0.1l0.2,0.1L449.4,139z"/>
		<path class="st4" d="M390.6,137.5c8.2,0.9,16.1,3.4,23.3,7.2c10.6,0.8,23,7.4,28.2,11.2l8.9-20.5
			C435.4,130.4,413.4,129.1,390.6,137.5z"/>
		<path class="st1" d="M413.9,144.7c10.6,0.8,23,7.4,28.2,11.2l8.9-20.5c-7.5-1.5-16.8,0.9-24.1,3.6
			C422.4,140.6,418,142.5,413.9,144.7z"/>
		<path class="st1" d="M490.8,180.7c-6.3-5.3-13.5-9.4-21.3-12c-7.9-7.1-21.1-11.7-27.5-12.8l8.9-20.5
			C465.2,143.2,481.2,158.4,490.8,180.7z"/>
		<path class="st4" d="M469.6,168.7c-7.9-7.1-21.1-11.7-27.5-12.8l8.9-20.5c6.2,4.4,10.8,12.8,14,20
			C466.8,159.7,468.3,164.2,469.6,168.7z"/>
		<path class="st0" d="M450.9,135.4c0.4,0.3,0.9,0.6,1.3,1L450.9,135.4z"/>
	</g>
</g>
<g id="freepik--Floor--inject-114">
	<g id="freepik--floor--inject-114">
		<path class="st4" d="M76.7,447.7c-95.7-58.9-95.7-154.5,0-213.5s250.9-58.9,346.6,0s95.7,154.5,0,213.5S172.4,506.6,76.7,447.7z"
			/>
		<path class="st7" d="M76.7,447.7c-95.7-58.9-95.7-154.5,0-213.5s250.9-58.9,346.6,0s95.7,154.5,0,213.5S172.4,506.6,76.7,447.7z"
			/>
	</g>
</g>
<g id="freepik--Plants--inject-114">
	<g id="freepik--plants--inject-114">
		<path class="st4" d="M57.3,329.5l5.2-3.5c0,0,2.2-13.8,0-25.9c-3.1-17-14.9-22.6-19.1-20.8s-5,6.9,2.8,16.6
			C50.9,301.5,57,313.7,57.3,329.5z"/>
		<path class="st8" d="M57.3,329.5l5.2-3.5c0,0,2.2-13.8,0-25.9c-3.1-17-14.9-22.6-19.1-20.8s-5,6.9,2.8,16.6
			C50.9,301.5,57,313.7,57.3,329.5z"/>
		<path class="st9" d="M59,322.7L59,322.7c-0.2,0-0.4-0.2-0.3-0.4c0,0,0,0,0,0c1.8-16.1-5.1-33.4-12.5-40.3c-0.2-0.1-0.2-0.4,0-0.5
			c0.1-0.2,0.4-0.2,0.5,0l0,0c7.5,7,14.6,24.7,12.7,41C59.4,322.6,59.2,322.7,59,322.7z"/>
		<path class="st4" d="M43.5,338.9c-0.8,0.5-3.3-1.3-4-1.7c-1.2-0.8-2.1-1.8-2.8-3c-0.7-1.4-1-3-0.8-4.5c0.1-0.8,0.3-1.6,0.5-2.4
			c0.2-0.8,0.4-1.6,0.6-2.4c0.3-0.8,0.4-1.6,0.3-2.4c-0.2-1.6-1.7-2.7-3-3.6s-3-2.4-3-4.4c0.1-1.5,0.6-2.9,1.6-4.1
			c0.9-1.2,2-2.2,2.8-3.5c0.6-0.9,0.9-1.9,0.9-3c-0.1-0.7-0.3-1.3-0.7-1.9c-0.8-1.2-1.5-2.4-2.2-3.7c-0.6-1.3-0.4-2.9,0.5-4
			c0.9-0.7,2.1-1.1,3.3-0.9c1.1,0.1,2.2,0.4,3.1,1c3.1,1.6,5,5.2,8.2,6.4c1.3,0.4,2.7,0.7,4,0.9c1.4,0.2,2.6,1,3.3,2.1
			c1.3,2.4-0.9,5.3,0,7.9c0.8,2.2,3,3,4.3,5c0.5,0.9,0.8,1.9,0.7,2.9c-0.1,1.7-0.4,3.4-1.1,5c-0.8,1.6-1.6,3.2-2.6,4.7L43.5,338.9z"
			/>
		<path class="st9" d="M51.6,333.9L51.6,333.9c-0.2,0-0.4-0.2-0.4-0.4c0,0,0,0,0,0c0.2-15.2-7.3-31.7-12.6-36.4
			c-0.1-0.1-0.2-0.4,0-0.5c0,0,0,0,0,0c0.2-0.1,0.4-0.1,0.5,0c5.4,4.8,13.1,21.6,12.9,37C52,333.7,51.8,333.9,51.6,333.9
			C51.6,333.9,51.6,333.9,51.6,333.9z"/>
		<path class="st9" d="M48.7,315.5c0,0-0.1,0-0.1,0c-3.6-0.9-7.3-1.4-11-1.5c-0.2,0-0.4-0.2-0.4-0.4c0,0,0,0,0,0
			c0-0.2,0.2-0.4,0.4-0.4c0,0,0,0,0,0c3.8,0.1,7.6,0.6,11.2,1.5c0.2,0.1,0.3,0.3,0.3,0.5c0,0,0,0,0,0
			C49,315.4,48.9,315.5,48.7,315.5z"/>
	</g>
	<g id="freepik--plants--inject-114_00000140722053652355886980000012835307969330572458_">
		<path class="st4" d="M443.2,304.5l-5-4.8c-0.8-6.1-0.9-12.3-0.2-18.4c1.6-12.5,10.2-27.4,19.8-23.6c9.6,3.8-4.9,16.2-8.4,26.8
			S443.2,304.5,443.2,304.5z"/>
		<path class="st8" d="M443.2,304.5l-5-4.8c-0.8-6.1-0.9-12.3-0.2-18.4c1.6-12.5,10.2-27.4,19.8-23.6c9.6,3.8-4.9,16.2-8.4,26.8
			S443.2,304.5,443.2,304.5z"/>
		<path class="st9" d="M440.4,302.2L440.4,302.2c0.2,0,0.3-0.1,0.3-0.3c0,0,0,0,0,0c-0.1-28,14.2-40.2,14.4-40.3
			c0.1-0.1,0.1-0.3,0-0.5c0,0,0,0,0,0c-0.1-0.1-0.3-0.1-0.5,0c0,0,0,0,0,0c-0.1,0.1-14.7,12.5-14.6,40.8
			C440,302.1,440.1,302.2,440.4,302.2C440.3,302.2,440.3,302.2,440.4,302.2z"/>
		<path class="st4" d="M446.3,307.5l-3.5-3.4c0,0-0.6-7.3,3.6-16.8c3.6-8.3,12.2-15,16.4-13.4s4,4.6,1.8,7.7
			S449.7,292.1,446.3,307.5z"/>
		<path class="st9" d="M444.5,306.2L444.5,306.2c0.2,0,0.3-0.1,0.3-0.3c0,0,0,0,0,0c0.5-17.7,17.4-29.1,17.6-29.2
			c0.1-0.1,0.2-0.3,0.1-0.4c-0.1-0.1-0.3-0.2-0.4-0.1c-0.2,0.1-17.4,11.7-17.9,29.7C444.1,306,444.3,306.2,444.5,306.2
			C444.5,306.2,444.5,306.2,444.5,306.2z"/>
	</g>
</g>
<g id="freepik--Pool--inject-114">
	<g id="freepik--pool--inject-114_00000053533620760246022200000009664708619637205690_">
		<polygon id="freepik--Shadow--inject-114" class="st8" points="19.1,356.8 226.3,486.8 491.5,333.7 480.9,328 480.9,332.5 
			229,477.9 		"/>
		<g id="freepik--pool--inject-114">
			<polygon class="st2" points="229,467.2 480.9,321.8 271,200.6 19.1,346 			"/>
			<polygon class="st3" points="229,445.6 247.7,456.4 248.7,455.8 230.1,445 			"/>
			<polygon class="st3" points="248.4,434.4 267.1,445.2 268.1,444.6 249.5,433.8 			"/>
			<polygon class="st3" points="267.8,423.2 286.5,434 287.5,433.4 268.9,422.6 			"/>
			<polygon class="st3" points="287.2,412 305.9,422.8 306.9,422.2 288.3,411.4 			"/>
			<polygon class="st3" points="306.6,400.8 325.3,411.6 326.4,411 307.7,400.2 			"/>
			<polygon class="st3" points="326.1,389.6 344.7,400.4 345.8,399.8 327.1,389 			"/>
			<polygon class="st3" points="345.5,378.4 364.1,389.1 365.2,388.5 346.5,377.8 			"/>
			<polygon class="st3" points="364.9,367.2 383.5,378 384.6,377.3 365.9,366.6 			"/>
			<polygon class="st3" points="384.3,356 402.9,366.7 404,366.1 385.3,355.4 			"/>
			<polygon class="st3" points="403.7,344.8 422.4,355.5 423.4,354.9 404.7,344.2 			"/>
			<polygon class="st3" points="423.1,333.6 441.8,344.3 442.8,343.7 424.1,333 			"/>
			<polygon class="st3" points="442.5,322.4 461.2,333.1 462.2,332.5 443.5,321.8 			"/>
			<polygon class="st3" points="37.8,335.2 56.5,346 57.5,345.4 38.8,334.6 			"/>
			<polygon class="st3" points="57.2,324 75.9,334.8 76.9,334.2 58.2,323.4 			"/>
			<polygon class="st3" points="76.6,312.8 95.3,323.6 96.3,323 77.7,312.2 			"/>
			<polygon class="st3" points="96,301.6 114.7,312.4 115.7,311.8 97.1,301 			"/>
			<polygon class="st3" points="115.4,290.4 134.1,301.2 135.1,300.6 116.5,289.8 			"/>
			<polygon class="st3" points="134.8,279.2 153.5,290 154.5,289.4 135.9,278.6 			"/>
			<polygon class="st3" points="154.2,268 172.9,278.8 173.9,278.1 155.3,267.4 			"/>
			<polygon class="st3" points="173.7,256.8 192.3,267.5 193.4,266.9 174.7,256.2 			"/>
			<polygon class="st3" points="193.1,245.6 211.7,256.3 212.8,255.7 194.1,245 			"/>
			<polygon class="st3" points="212.5,234.4 231.1,245.1 232.2,244.5 213.5,233.8 			"/>
			<polygon class="st3" points="231.9,223.2 250.5,233.9 251.6,233.3 232.9,222.6 			"/>
			<polygon class="st3" points="251.3,211.9 270,222.7 271,222.1 252.3,211.4 			"/>
			<polygon class="st3" points="229,445.6 210.4,456.4 209.3,455.8 228,445 			"/>
			<polygon class="st3" points="210,434.6 191.3,445.4 190.3,444.8 208.9,434 			"/>
			<polygon class="st3" points="190.9,423.6 172.2,434.4 171.2,433.8 189.9,423 			"/>
			<polygon class="st3" points="171.8,412.6 153.2,423.4 152.1,422.8 170.8,412 			"/>
			<polygon class="st3" points="152.8,401.6 134.1,412.4 133.1,411.8 151.8,401 			"/>
			<polygon class="st3" points="133.7,390.6 115.1,401.4 114,400.8 132.7,390 			"/>
			<polygon class="st3" points="114.7,379.6 96,390.4 95,389.8 113.6,379 			"/>
			<polygon class="st3" points="95.6,368.6 76.9,379.4 75.9,378.8 94.6,368 			"/>
			<polygon class="st3" points="76.6,357.6 57.9,368.4 56.8,367.8 75.5,357 			"/>
			<polygon class="st3" points="57.5,346.6 38.8,357.4 37.8,356.8 56.5,346 			"/>
			<polygon class="st3" points="462.2,311 443.5,321.8 442.5,321.1 461.2,310.4 			"/>
			<polygon class="st3" points="443.1,300 424.5,310.8 423.5,310.1 442.1,299.4 			"/>
			<polygon class="st3" points="424.1,289 405.4,299.8 404.4,299.1 423.1,288.4 			"/>
			<polygon class="st3" points="405,278 386.4,288.7 385.3,288.1 404,277.4 			"/>
			<polygon class="st3" points="386,267 367.3,277.7 366.3,277.1 384.9,266.4 			"/>
			<polygon class="st3" points="366.9,256 348.3,266.7 347.2,266.1 365.9,255.4 			"/>
			<polygon class="st3" points="347.9,245 329.2,255.7 328.2,255.1 346.8,244.4 			"/>
			<polygon class="st3" points="328.8,234 310.1,244.7 309.1,244.1 327.8,233.4 			"/>
			<polygon class="st3" points="309.7,223 291.1,233.7 290,233.1 308.7,222.4 			"/>
			<polygon class="st3" points="290.7,211.9 272,222.7 271,222.1 289.6,211.4 			"/>
			<polygon class="st3" points="271,222.1 271,232.9 434.2,327.1 443.5,321.8 			"/>
			<polygon class="st3" points="271,232.9 65.8,351.4 56.5,346 271,222.1 			"/>
			<polygon class="st10" points="271,232.9 65.8,351.4 56.5,346 271,222.1 			"/>
			<polygon class="st4" points="271,232.9 271,308.3 368.9,364.8 434.2,327.1 			"/>
			<polygon class="st11" points="271,232.9 271,308.3 368.9,364.8 434.2,327.1 			"/>
			<polygon class="st4" points="271,308.3 368.9,364.8 229,445.6 131.1,389.1 			"/>
			<path class="st11" d="M354.4,373.3l1.1-0.7l-13.5-7.8l13.4-7.8l-1.1-0.7l-13.5,7.8l-12.8-7.4l13.4-7.8l-1.1-0.7l-13.4,7.8
				l-12.8-7.4l13.4-7.8l-1.1-0.7L313,348l-12.8-7.4l13.4-7.8l-1.1-0.7l-13.4,7.8l-12.8-7.4l13.4-7.8l-1.1-0.7l-13.4,7.8l-12.9-7.4
				l13.4-7.8l-1.1-0.7l-13.4,7.7l-13.4-7.8l-1.1,0.7l13.4,7.8l-12.8,7.4l-13.4-7.7l-1.1,0.7l13.4,7.7l-12.9,7.4l-13.4-7.8l-1.1,0.7
				l13.4,7.7L229,348l-13.4-7.8l-1.1,0.7l13.4,7.8l-12.9,7.4l-13.4-7.8l-1.1,0.7l13.4,7.8l-12.9,7.4l-13.4-7.7l-1.1,0.7l13.4,7.8
				l-12.9,7.4l-13.4-7.8l-1.1,0.7l13.4,7.7l-12.8,7.4l-13.4-7.8l-1.1,0.7l13.5,7.8l-12.8,7.4l-13.4-7.8l-1.1,0.7l13.4,7.8l-13.4,7.8
				l1.1,0.7l13.4-7.8l12.8,7.4l-13.4,7.8l1.1,0.7l13.4-7.8l12.8,7.4l-13.4,7.8l1.1,0.7l13.4-7.8l12.9,7.4l-13.4,7.8l1.1,0.7L201,414
				l12.9,7.4l-13.4,7.8l1.1,0.7L215,422l12.9,7.4l-13.4,7.8l1.1,0.7l13.4-7.7l13.4,7.8l1.1-0.7l-13.4-7.8L243,422l13.4,7.8l1.1-0.7
				l-13.4-7.8L257,414l13.4,7.8l1.1-0.7l-13.4-7.8l12.9-7.4l13.4,7.8l1.1-0.7l-13.4-7.8l12.9-7.4l13.4,7.8l1.1-0.7l-13.4-7.8
				l12.9-7.4l13.4,7.8l1.1-0.7l-13.4-7.8l12.8-7.4l13.4,7.8l1.1-0.7l-13.5-7.8l12.9-7.4l13.5,7.8l1.1-0.7l-13.4-7.8l12.8-7.4
				L354.4,373.3z M325.8,356.8l-12.8,7.4l-12.8-7.4l12.8-7.4L325.8,356.8z M230.2,381l12.8-7.4l12.9,7.4l-12.9,7.4L230.2,381z
				 M241.9,389.1l-12.9,7.4l-12.9-7.4l12.9-7.4L241.9,389.1z M244.1,372.9l12.9-7.4l12.8,7.4l-12.8,7.4L244.1,372.9z M258.1,364.8
				l12.9-7.4l12.8,7.4l-12.8,7.4L258.1,364.8z M272.1,356.8l12.9-7.4l12.8,7.4l-12.8,7.4L272.1,356.8z M271,356.1l-12.9-7.4
				l12.9-7.4l12.8,7.4L271,356.1z M269.9,356.8l-12.9,7.4l-12.9-7.4l12.9-7.4L269.9,356.8z M255.9,364.8l-12.9,7.4l-12.9-7.4
				l12.9-7.4L255.9,364.8z M241.9,372.9l-12.9,7.4l-12.9-7.4l12.9-7.4L241.9,372.9z M227.9,381l-12.9,7.4l-12.8-7.4l12.8-7.4
				L227.9,381z M213.9,389.1l-12.9,7.4l-12.8-7.4l12.8-7.4L213.9,389.1z M215,389.7l12.9,7.4l-12.8,7.4l-12.8-7.4L215,389.7z
				 M229,397.8l12.8,7.4l-12.8,7.4l-12.9-7.4L229,397.8z M230.1,397.1l12.9-7.4l12.8,7.4l-12.8,7.4L230.1,397.1z M244.1,389.1
				l12.9-7.4l12.8,7.4l-12.8,7.4L244.1,389.1z M258.1,381l12.9-7.4l12.8,7.4l-12.8,7.4L258.1,381z M272.1,372.9l12.9-7.4l12.8,7.4
				l-12.8,7.4L272.1,372.9z M286.1,364.8l12.9-7.4l12.8,7.4l-12.8,7.4L286.1,364.8z M311.8,348.7l-12.8,7.4l-12.8-7.4l12.8-7.4
				L311.8,348.7z M297.8,340.6L285,348l-12.8-7.4l12.8-7.4L297.8,340.6z M271,325.1l12.8,7.4l-12.8,7.4l-12.9-7.4L271,325.1z
				 M257,333.2l12.8,7.4L257,348l-12.9-7.4L257,333.2z M243,341.3l12.8,7.4l-12.8,7.4l-12.9-7.4L243,341.3z M229,349.3l12.9,7.4
				l-12.9,7.4l-12.8-7.4L229,349.3z M215,357.4l12.9,7.4l-12.9,7.4l-12.8-7.4L215,357.4z M201,365.5l12.9,7.4l-12.9,7.4l-12.8-7.4
				L201,365.5z M187,373.6l12.9,7.4l-12.9,7.4l-12.8-7.4L187,373.6z M160.2,389.1l12.8-7.4l12.8,7.4l-12.8,7.4L160.2,389.1z
				 M174.2,397.1l12.8-7.4l12.9,7.4l-12.9,7.4L174.2,397.1z M188.2,405.2l12.8-7.4l12.9,7.4l-12.9,7.4L188.2,405.2z M202.2,413.3
				l12.8-7.4l12.9,7.4l-12.9,7.4L202.2,413.3z M229,428.8l-12.9-7.4L229,414l12.8,7.4L229,428.8z M243,420.7l-12.9-7.4l12.9-7.4
				l12.8,7.4L243,420.7z M257,412.6l-12.9-7.4l12.9-7.4l12.8,7.4L257,412.6z M271,404.6l-12.8-7.4l12.8-7.4l12.8,7.4L271,404.6z
				 M285,396.5l-12.8-7.4l12.8-7.4l12.8,7.4L285,396.5z M299,388.4l-12.9-7.4l12.9-7.4l12.8,7.4L299,388.4z M313,380.3l-12.8-7.4
				l12.8-7.4l12.9,7.4L313,380.3z M327,372.3l-12.8-7.4l12.8-7.4l12.9,7.4L327,372.3z"/>
			<polygon class="st4" points="271,232.9 271,308.3 131.1,389.1 65.8,351.4 			"/>
			<polygon class="st10" points="271,232.9 271,308.3 131.1,389.1 65.8,351.4 			"/>
			<path class="st12" d="M271,232.9L65.8,351.4l4.2,2.5c7.8-5.4,13.4-9.2,25.2-12.4c13.8-3.7,24.7-17.8,32.6-22.4s22.4-4.1,28.2-9.9
				s14.1-17,23.5-19.4s23.5-4.7,32.9-13.8s15.2-16.7,28.7-20.5c8.9-2.5,19.9-7,26.9-12.7c6.6-5.5,18.7,1,23,7.1s12.8,14.4,28,16.2
				s20.7,11.4,27.5,18s18.1,6.3,33.7,15s20.2,17.2,32,24.6c4.8,2.9,9.9,5.4,15.1,7.4l6.8-3.9L271,232.9z"/>
			<g class="st13">
				<path class="st9" d="M74.8,356.6c0-0.3,0-0.6,0.1-0.8c0.4-2.7,3.2-5.2,6.4-7.2s6.9-3.8,9.8-6s5.1-4.9,4.5-7.6
					c0-0.2-0.1-0.4-0.2-0.6l-7.2,4.1c-0.4,1.1-1,2-1.8,2.9c-3.6,3.7-9.9,4-13,8.1c-1,1.6-1.8,3.2-2.4,5L74.8,356.6z"/>
				<path class="st9" d="M150.7,396.1c-1.7-0.7-4.1-0.3-5.9,0.2c-0.2,0.1-0.5,0.2-0.7,0.2l8.9,5.1c0.1-1.2-0.1-2.4-0.5-3.5
					C152.3,397.3,151.6,396.5,150.7,396.1z"/>
				<path class="st9" d="M388.1,308c-2.8,1-5.4,2.4-8.3,2.6c-0.6,0.1-1.3,0-1.9-0.3c-0.6-0.5-1.1-1.1-1.5-1.8
					c-1.4-1.7-3.4-2.8-5.6-2.9c-2.2-0.3-4.4-0.2-6.5-0.5c-1.9-0.3-3.9-1.2-4.4-3.1c-0.2-1.2,0.1-2.5,0.9-3.5c0.7-1,1.6-1.9,2.4-2.9
					c1.4-1.8,2.2-4.1,2.2-6.4c0-0.8-0.2-1.6-0.5-2.2l-16.4-9.5c-3.2,1-6.2,2.4-8.9,4.3c-1.3,1-2.7,2.1-4.4,2.2
					c-1.4-0.1-2.7-0.6-3.8-1.4c-1-0.4-1.8-1.2-2.3-2.2c-0.5-1.5,0.6-3,1.4-4.4c1.4-2.4,1.9-5.2,1.5-8L309.3,255
					c-1.8,2.4-4.1,4.3-6.8,5.6c-4.5,2.3-9.9,4-14.5,6.2c-1.2,0.6-2.4,1.1-3.7,1.5c-4,1.1-9.4,0-12.9,1.6c-0.9,0.6-2,0.9-3,1
					c-0.7,0-1.4-0.4-1.8-1c-0.2-0.5-0.3-1-0.4-1.5c-0.5-1.1-1.4-2-2.5-2.5c-1.2-0.5-2.9-1.1-2.8-2c0.2-0.4,0.4-0.7,0.8-0.9
					c2.3-1.4,6.7-1.2,8.5-2.8c1.3-1.1,0.7-2.7-0.5-3.9s-2.7-2.2-3.5-3.5c-1.3-2.3,0.4-4.8,2.9-6.7c4-2.8,8.7-4.6,13.5-5.2l1.6-0.2
					l-13.4-7.7l-5,2.9c1.3,0.7,2.6,1.4,4,2.1s2.8,2,2.1,3.3c-0.2,0.4-0.6,0.8-1,1c-1.5,1-3.3,1.5-4.9,2.4c-1.7,0.8-3,2.2-3.5,4
					c-0.3,1.3-0.1,3.1-1.2,3.8c-0.7,0.3-1.4,0.4-2.1,0.2c-6.7-0.9-13.9-1.3-19.9,1.9c-2.9,1.6-5.4,4-8.4,5.2
					c-2.7,0.9-5.5,1.4-8.3,1.3h-0.4l-10.8,6.2c-1.1,1.7-1.7,3.7-1.7,5.8c0,0.5,0,1.2-0.5,1.5c-0.3,0.1-0.5,0.2-0.8,0.2
					c-3.4,0-6.8-0.1-10.1,0.2l-27,15.6c0.1,0.6,0,1.3-0.2,1.9c-0.3,0.5-0.8,0.8-1.4,0.9c-2.6,0.9-5.2,1.7-7.8,2.6l-13.7,7.9
					c-0.3,0.4-0.6,0.8-0.9,1.2c-2.9,4.1-4.2,9.9-8.8,11.9c-4,1.8-9.1,0-12.6,2.5c-1.6,1.2-2.7,3.1-4.5,3.9c-1.7,0.6-3.7,0.2-5-1.1
					l-4.5,2.6c0.4,0.3,0.8,0.6,1.2,1c1.1,1.2,1.8,2.6,2.8,3.9c2.2,2.8,5.9,5.1,10.4,6.6c2.2,0.7,4.8,1.5,4.9,3s-2.7,2.4-4.6,3.3
					c-3.9,1.9-5.4,5.3-3.6,8c0.8,1.2,2.2,2.3,2.4,3.6s-0.8,2.6-2.2,3.6c-1.2,0.8-2.6,1.1-3.8,1.9c-1.3,0.8-2.6,1.4-4,2
					c-2.8,1.1-5.7,1.9-8.7,2.3c-5.4,0.8-11,0.3-16.4,0.6c-0.5,0-1,0-1.5,0l6.8,3.9l10.6,0.1c0.5,0,1,0.1,1.4,0.4
					c0.6,0.5,0.6,1.3,0.6,2c0.4,4.3,3.6,7.8,7.9,8.4c1.4,0.2,3.4,0.4,3.5,1.8c0,0.4-0.1,0.8-0.3,1.1l4.3,2.5
					c6.5-2.8,13.4-4.3,20.5-4.4c1.7,0,3.4-0.1,5.1-0.3c1.3-0.4,2.6-0.7,4-0.8c2.1,0,4.2,0.7,5.8,2l5.5,3.5c3.5,2.2,7.9,4.6,12.9,4.1
					c2.5-0.3,4.9-1.2,6.9-2.7c0.7-0.5,1.4-0.9,2.2-1.2c0.9-0.3,2-0.3,2.9,0.1c1.1,0.7,0.1,1.8-0.6,2.7c-1,1.3-0.9,3.2,0.2,4.4
					c0.4,0.3,0.7,0.8,1,1.2c0.3,0.9-0.5,1.7-1.6,2.3c-1.2,0.5-2.5,1-3.8,1.4c-4.7,1.6-7.9,4.6-8.4,7.7l-0.2,0.9
					c-1.2,2.4-3.1,4.3-5.4,5.4c-0.2,0.1-0.5,0.2-0.7,0.3l5.6,3.3c0.4-0.2,0.9-0.4,1.4-0.5c2.4-0.7,4.9,0,7.3,0.2
					c6.9,0.7,13.9-1.6,20.8-0.6c1.8,0.3,3.9,1,4.5,2.8c0.4,1.6-0.2,3.2-1.5,4.1c-1.3,0.9-2.7,1.6-4.2,2c-2.7,0.8-5.2,2.2-7.2,4.2
					l5.6,3.2c1.9-2.1,4-3.9,6.4-5.5c2.6-1.9,5.4-3.8,6.6-6.1s0.6-5.2-2.6-6.7c-2.2-0.9-4.6-1.4-7.1-1.4c-3-0.2-6-0.1-8.9,0.2
					c-3.1,0.3-6.4,1-9.4,0.4c-3.6-0.7-5.7-3-5.6-5.2s2-4.2,4.4-5.9c1.6-1.2,3.4-2.1,5.3-2.7c4.9-1.5,10.2-1.4,15.1,0.3
					c3.8,1.4,6.2,3.8,9.9,5.3c6.6,2.5,15.4,1.6,22.9,3c0.9,0.1,1.7,0.4,2.4,1c0.6,0.8-0.5,1.7-1.8,2.1s-2.9,0.5-4.1,1
					c-2.3,0.8-3.2,2.5-2.8,4.1s1.9,2.9,3.4,4.1c4.2,3.6,9.5,5.8,15,6.3l-0.7-0.1c2.9,0,5.8,1.1,8,3.1c0.3,0.3,0.6,0.6,0.9,0.9l3.5-2
					c-0.4-0.7-0.4-1.5-0.2-2.2c0.3-1,0.9-1,1.6-1.7c0.9-0.8,1.6-1.8,2.1-2.9c0.3-0.6,0.5-1.3,0.9-1.9c0.8-1.2,1.8-2.1,3.1-2.7
					c1.1-0.5,2.3-0.9,3.6-1.1c2.5-0.4,5.1-0.4,7.7-0.1c0.8,0,1.6,0.2,2.4,0.4l4.6-2.6c-1-0.2-1.9-0.4-2.9-0.6
					c-3.6-0.7-7.3-0.7-10.9-0.2c-3.5,0.5-6.8,1.8-8.7,3.6c-1.5,1.4-2.2,3-4,4.2c-3.2,2.2-9,2.5-13.9,1.9c-1.9-0.1-3.8-0.6-5.6-1.5
					c-0.9-0.6-1.7-1.4-2.4-2.3c-0.6-0.8-1.1-1.5-1.7-2.3c-0.3-0.3-0.5-0.7-0.5-1.1c0.1-0.5,0.4-1,0.9-1.2c1.4-1.1,2.9-1.9,4.6-2.4
					c3-0.9,6-1.4,9.1-1.7c3.1-0.2,6.2-0.8,9.1-1.7c2.8-0.9,5.1-2.5,5.4-4.3c0.1-1-0.3-2,0.4-3s2.3-1.5,4-1.6c1.7-0.1,3.3-0.1,5,0.1
					c2.4,0.2,5.1,0.4,7.2-0.3s3.3-2,5.3-2.7c2.5-0.8,6-0.3,7.6,1c0.2,0.2,0.4,0.4,0.5,0.7c0,0.3-0.1,0.6-0.3,0.9
					c-0.6,1.5,0.4,3.1,2.4,4c1.2,0.6,2.4,1.4,3.5,2.1l17-9.8c1.5-2.9,2.8-5.9,5-8.2c6-6.4,16.7-6.1,23-12.1c0.9-1,1.9-1.9,3-2.8
					c1.2-0.8,2.6-1.3,4-1.6c3.1-0.9,6.4-1.3,9.7-1.1l12.9-7.4c-0.9,0-1.8-0.2-2.7-0.5c-1.4-0.5-2.6-1.5-3.2-2.8
					c-0.7-1.5-0.6-3.1-1.8-4.4c-1.2-1.2-2.6-2.2-4.1-3c-1.6-0.9-3.4-1.7-4.2-2.9c-0.7-1.2-0.7-2.6,0.1-3.8c1.3-2.3,3.9-4.2,6.1-6.2
					s4.1-4.3,3.7-6.7c-0.3-1.5-1.5-3.1-1-4.6c0.5-1.7,3-3,5.5-3.9s5.2-1.9,6.7-3.4s1.5-3.1,3-4.4c2-1.7,6-2.4,9.5-2.1
					c3.3,0.4,6.6,1.2,9.7,2.6c2.6,1,5.3,2.2,6.5,3.9s0.8,3.6-0.6,5.1c-1.8,1.7-4,3-6.4,3.7c-3.5,1.2-7.6,1.8-10.9,3.2
					c-1.8,0.7-3.4,1.9-4.7,3.3c-1.8,2.2-2.1,5.3-1,7.9c0.9,2.6,2.7,5.1,4.2,7.7c0.5,0.7,0.8,1.5,1,2.3l4.1-2.3
					c-0.2-0.3-0.4-0.6-0.6-0.9c-1.2-1.6-2.9-3-4.1-4.6s-2.1-3.8-1.4-5.7c0.8-2.4,3.5-3.6,5.9-4.3c4.7-1.4,9.7-2.4,13.9-4.9
					c2.5-1.5,4.7-3.5,7.6-4.1s5.5,0.5,8.1,1.5c1.6,0.6,3.1,1.4,4.6,2.1c0.4,0.2,0.8,0.4,1.3,0.6l2.3-1.3l-35.9-20.8
					C394.8,306.3,391.4,306.8,388.1,308z M331.1,288.4c1.5,2.3,1,5-1.2,7.2c-1.7,1.4-3.7,2.6-5.7,3.6c-2.2,1.2-4.5,2.9-3.3,4.5
					c0.8,0.9,2.7,1.6,2.6,2.6c0,0.6-0.7,1.1-1.4,1.5c-2.6,1.5-5.4,2.4-8.4,2.7c-5.8,0.7-11.9-0.5-17.7,0.2c-4.1,0.4-8,1.7-11.4,4
					c-1.1,0.8-2.2,1.6-3.5,2.1c-1.5,0.6-3.2,0.7-4.8,0.2c-1.2-0.4-1.8-1.8-1.4-3c0,0,0,0,0,0c0.3-1.1,0.9-2.2,0.3-3.3
					c-0.7-1.3-3.9-2.5-5.5-3.1c-2.7,0.1-5.4,0-8-0.5c-2.5-0.6-4.7-1.9-4.9-3.4c-0.2-2.3,3.9-3.9,7.5-4.7c7.5-1.7,15.1-2.3,22.7-1.9
					c4.1,0.2,8.4,0.7,12.3-0.1c6-1.2,9.3-5,10-8.6c0.1-0.8,0.3-1.6,0.6-2.3c1.6-2.6,7.4-3.5,11.9-2.7
					C326.1,284.2,329.5,286.1,331.1,288.4L331.1,288.4z M328.5,337.8c1.4,1.1,1.7,3.1,0.7,4.5c-1.1,1.5-2.6,2.6-4.3,3.5
					c-3,1.3-6.4,1.7-9.6,1.3c-2.8-0.6-5.4-1.7-8.4-1.6c-1.6,0-3.3,0.4-4.6,0c-2-0.7-1.4-2.5-1.8-3.8s-2.5-2.5-3.3-3.9
					c-1.1-1.9,0.2-4.1,2.6-5.6c2.7-1.5,5.6-2.7,8.6-3.5c3-0.8,5.9-2,8.5-3.5c1.9-1.3,3.2-2.9,5.5-4c3.5-1.7,9.3-1.5,12.5,0.4
					c1.1,0.6,1.9,1.5,1.9,2.3c-0.1,1.2-1.6,2.1-3.1,2.9l-7.3,4.1c-0.9,0.4-1.8,1.1-2.3,1.9C323.2,334.6,326.7,336.1,328.5,337.8
					L328.5,337.8z M295.5,342.5c0.6,2.3-0.4,4.8-2.9,6.7c-2.5,1.8-5.6,2.6-8.6,2.2c-4.7-0.8-6.6-4-9.4-6.4c-0.1-0.2-0.3-0.4-0.4-0.6
					c-1.3-1.9-1.8-4.2-1.5-6.5c0.2-1.5,0.8-3.3-0.9-4.5c-0.5-0.3-1.1-0.6-1.5-1c-1.1-1.1,0.9-2.5,3.1-3s4.6-0.4,6.5-1.1
					c2.2-0.6,3.5-2.9,2.9-5.1c0,0,0,0,0-0.1c-0.4-0.9-0.5-1.8-0.4-2.8c0.4-1.3,2-2.3,3.7-3.1c4.9-2.2,10.2-3.5,15.6-3.7
					c2.9-0.2,5.7,0,8.5,0.6c2.6,0.7,4.8,2.1,5.2,3.8c0.4,1.9-1.6,3.8-4.1,5s-5.5,2.1-8.2,3.2c-2.7,1.1-5.3,2.6-7.5,4.5
					c-1.7,1.5-3,3.3-2.9,5.1C292.7,338.2,294.8,340.3,295.5,342.5L295.5,342.5z M207.5,359.3c-1.2-0.9-3.4-1.2-5.4-1.3
					s-4.1,0.1-6-0.1c-4.6-0.5-7.9-3.1-8.3-5.8s1.8-5.3,5-7.3c3.6-2,7.5-3.5,11.5-4.5c3.9-1.1,8.5-2.1,12.4-1s5.8,3.8,9.9,4.5
					c2.9,0.5,6.8-0.1,8.5,1.3c1,0.8,0.7,2-0.2,2.9s-2.2,1.6-3.2,2.5c-3.2,2.7-2.7,6.7,1.2,9.1c1.5,0.9,3.6,1.8,3.7,3.1
					c0.1,1-1.2,2-2.8,2.5s-3.7,1.1-5.2,1.6c-2.2,0.8-5.2,2.7-7.5,3.4c-1.6,0.4-3.2,0.7-4.9,0.8c-1.9,0-3.9-0.3-5.7-0.8
					c-1.2-0.2-2.3-0.7-3.3-1.5c-1.6-1.4-0.6-3.2,0.4-4.8S209.2,360.6,207.5,359.3L207.5,359.3z M202,302.5c1.8-3.3,8.2-5.1,14.2-5
					c4.3,0.1,8.9,1.1,11.3,3.1c0.8,0.7,1.4,1.5,1.9,2.5c0.6,0.9,0.6,2.1,0,3.1c-0.7,0.7-1.5,1.3-2.3,1.9c-3,2.2-3.3,5.6-0.8,8
					c1,0.7,1.8,1.6,2.6,2.5c1,1.8-1.1,3.8-4,4.8c-3.1,0.9-6.3,1.3-9.6,1.4c-3.3,0.2-6.7,0.4-9.6,1.5c-2.3,0.9-4.5,2.3-6.2,4.1
					c-1.2,1.1-2.5,2.3-2.7,3.6s0.6,2.5,0.3,3.7s-1.8,2.4-3.5,3.2c-2.2,1.1-4.5,1.9-6.9,2.3c0,0-1,0.2-1.3,0.3
					c-0.6,0.2-1.9,0.4-3,0.7c-5.3,1.1-9,2.2-14.5,1.6c-3-0.3-6.1-1.2-7.5-2.7c-0.8-0.9-1.1-2.1-0.8-3.3c1-4.7,7.8-8.2,14.1-11.3
					l16.7-8c5.1-2.5,10.6-5.3,11.5-9.1C202.6,308.4,200.4,305.3,202,302.5z M271.1,320.3c1.6,1.2,5.1,1.6,5.8,3.1
					c0.5,1-0.6,2.1-2,2.8c-2.3,1.2-4.8,1.8-7.3,1.9c-2.7,0.1-5.3-0.2-8-0.3c-2.8,0-5.6,0.2-8.3,0.7c-3.5,0.5-7.2,1.5-8.9,3.3
					c-2.4,2.6-0.3,6.4-4.1,8.3c-2.7,1.4-6.9,0.9-10-0.1s-5.6-2.6-8.7-3.5c-2.7-0.8-5.6-1.1-8.4-1.1c-0.4,0-0.7,0-1.1,0.1
					c-1.9,0.7-4.5,0.8-5.7-0.4s-0.2-2.9,1-4c1.7-1.6,4.6-2.6,7.8-3.1c3.2-0.4,6.4-0.5,9.6-0.3c4.5,0.2,9.3,0.7,13.3-0.5
					c1.6-0.5,3.1-1.3,4.5-2.2c2.3-1.5,4.2-3.4,5.6-5.7c1.3-2.1,1.9-4.3,3.8-6.3c2.3-2.3,6.6-4.1,11.2-4.1s9.2,2.1,9.6,4.8
					C271.1,316,268.7,318.5,271.1,320.3L271.1,320.3z M227.8,369.8c3.9-1.1,8.3-1.5,11.7-3c1.5-0.7,2.9-1.6,3.1-2.7
					c0.3-1.8-2.1-3.2-3.8-4.6s-3-3.5-2.1-5.3c1.1-2.1,4.9-3.4,8.3-4.5c0.6-0.2,1.2-0.3,1.8-0.3c0.4,0,0.9,0.1,1.3,0.3
					c2.2,0.8,3.9,2.6,4.7,4.8c0.7,1.8,0.8,3.7,1.4,5.5c1.1,3.3,4.1,6.4,8.3,8.7c1.4,0.3,2.8,0.6,4.1,1.1c2.3,1.1,1.9,3.3,0.2,4.7
					s-4.3,2.4-6.5,3.6c-2.3,1.4-4.4,3-6.5,4.8c-2.3,1.9-5.1,3.2-8,3.8c-3.3,0.7-7.5,0.3-9.5-1.4c-1.2-1-1.5-2.3-2.6-3.4
					c-2.9-2.7-10.6-3.2-12.1-6.2C220.4,373.2,223.9,370.9,227.8,369.8L227.8,369.8z M260.6,363.9c-0.6-0.8-1-1.7-1.2-2.8
					c-0.3-1.5-0.7-3-1-4.5c-0.3-2.2-1.1-4.2-2.4-5.9c-2.1-2.2-4.9-3.5-8-3.7c-2-0.1-4.6,0-5.6-1s0.5-2.2,1.8-3.2
					c1.8-1.3,3.2-3.1,4-5.2c0.4-1.3,0.5-2.6,1.4-3.8c1.3-1.8,4.5-3.1,8-3.2c3.5-0.1,6.9,1,8.6,2.7c1.1,1.2,1.7,2.8,1.8,4.4
					c0.7,4,1.3,8,2,12.1c0.4,2.3,0.8,4.7,2.8,6.7c0.9,0.9,2,1.6,2.8,2.5c1.2,1.3,2.1,2.1,1.7,3.6c-0.1,0.2-0.3,0.5-0.4,0.7
					c-1.5,1.7-4.7,2.8-7.9,3S262,365.6,260.6,363.9L260.6,363.9z M273,271.8c3-0.4,6.2,0.3,9.2,0c4.5-0.3,7.9-2.4,11.1-4.2
					c4.2-2.4,9.4-4.6,15.3-4.6c3.9,0,7.8,0.9,11.4,2.5c2.3,0.9,4.3,2.3,5.9,4.1c1.4,1.5,1.4,3.7,0.2,5.2c-2,2.4-6.8,3.5-11.1,4.5
					s-9.1,2.2-10.8,4.7c-1.3,1.9-0.4,4-1.3,6c-1.1,2.4-4.4,3.5-6.8,4c-3.3,0.7-6.8-0.1-10.1-0.4c-2.5-0.2-5.1,0-7.5,0.5
					c-3.2,0.6-8.3,2.6-9.8,0.8c-1-1.1,2.9-1.8,4.5-2.6c2.8-1.4,4-3.8,3.4-5.9s-2.5-4.1-5.1-5.7c-1.3-0.7-2.5-1.5-3.6-2.5
					C265.5,275.9,268.3,272.4,273,271.8z M271.1,285.3c1.1,1.7,0.5,3.6-0.9,5.2c-1.8,1.7-3.9,3.1-6.2,4c-2.9,1.5-5.9,2.9-9,4
					c-2.7,1.2-3.8,3.6-2.4,5.4c0.3,0.3,0.6,0.7,0.8,1.1c0.5,1.6-2.5,2.7-4.6,3.7c-3.3,1.5-5.4,3.9-5.7,6.3c-0.2,1.5,0.2,3.1-0.8,4.6
					s-4.2,2.5-6.3,1.5c-2.4-1.1-0.7-3.5-2.1-5.1c-0.6-0.7-1.8-1.2-2.2-1.9c-0.5-1,0.7-2,1.7-2.9c2.2-1.9,4-4,4.1-6.2
					c0.1-3-2.9-5.8-5.9-8.2c-0.5-0.4-1-0.9-1.3-1.4c-0.2-0.5-0.1-1.1,0.2-1.6c2-4,8.6-6.6,14.9-8.8c4.2-1.5,8.6-3,13.6-3.3
					C263.7,281.4,269.3,282.6,271.1,285.3L271.1,285.3z M218,266.7c3.6-1.4,8.7-0.9,12.4-2.2c2.4-0.8,3.9-2.2,5.7-3.4
					c4.7-3.2,11.7-5.2,19-5.5c2.7-0.1,5.6,0.1,7.6,1.1c2,1,2.6,3.1,0.6,4.1s-5.6,0.5-7.4,1.7c-2.8,1.8,2.1,4,3.3,4.9
					c2.3,1.8,2.9,4.8,2.9,7.5c0.1,1-0.2,1.9-0.8,2.6c-1.4,1.3-4.3,1.6-6.9,2c-6.9,0.8-13.7,2.8-19.9,5.9c-1.5,0.7-2.8,1.7-4,2.8
					c-1.7,1.9-2,4.2-4.6,5.7c-3.5,2-9.3,1.5-14.1,0.8c-1-0.1-2-0.3-2.9-0.8c-1.7-0.9-1-2.6,0.3-3.8c1.1-1,2.4-1.8,3.8-2.4
					c1.6-0.7,3.5-1.3,5-2.1c2.9-1.5,4.1-4,3.1-6.2c-0.4-0.8-1-1.4-1.7-1.7c-0.9-0.4-2.1-0.6-3.1-1c-1.6-0.6-2.7-2.1-2.7-3.8
					C213.3,270.5,214.6,268,218,266.7z M175.8,291.4c0.9-2.3,3.3-4.3,5.9-6.1c4.1-2.8,8.5-5,13.2-6.4c4-1.3,8.3-1.7,12.5-1.2
					c4.2,0.7,7.7,3.1,7,5.5c-1.4,4.9-9.6,3.9-11,9.1c-0.2,1.2-0.5,2.4-1,3.5c-0.9,1.6-2.6,2.4-3.5,3.9c-1.1,1.8-1.1,4.1-1,6.1
					c0.1,2.3,0.2,4.7-1,6.6c-0.7,1.2-1.8,2.1-3.1,2.7c-3.2,1-6.5,1.4-9.8,1.1c-1-0.1-2-0.3-3-0.6c-2.9-1.1-2.7-3.6-1-5.4
					s4.3-3.2,5.4-5.1s0.4-3.8-1.1-5.4c-1.7-1.8-3.8-3.3-6-4.4c-0.9-0.4-1.7-1-2.4-1.7C175.5,293,175.4,292.2,175.8,291.4
					L175.8,291.4z M124.1,326.3c0.8-2.7,2.2-3.7,4.9-3.9c2.4-0.2,4.7,0.6,7.1,0.7c2.5,0,4.9-0.6,7-1.9c9-5.3,5.8-14.9,15.1-20.1
					c2.1-1.1,4.3-1.9,6.6-2.4c3.1-0.8,6.9-1.3,9.6-0.1c1.6,0.5,2.7,2,2.7,3.6c-0.2,1.4-0.7,2.8-1.6,4l-3.2,5.4
					c-1,1.8-1.9,4.1,0.6,5.3s7,0.8,8.1,2.5c0.5,0.8-0.1,1.7-0.9,2.5c-4.4,4.2-12.8,6.4-19.2,9.7c-2.2,1.1-4.3,2.5-5,4.2
					c-0.4,1-0.3,2.1-0.7,3.1c-0.5,1.3-1.8,2.2-3.2,2.4c-2.6,0.4-4.7-1.1-6.7-2c-3.9-1.9-9.3-2.3-13.6-3.9
					C128.1,333.9,122.8,330.9,124.1,326.3z M158.8,372.3c-1,1.4-2.3,2.5-3.9,3.3c-1.9,0.8-5,0.8-6.2-0.3c-0.9-0.9-0.5-2.2-1.1-3.2
					c-0.8-1.3-2-1.2-3.3-0.9c-3.4,0.8-6.8,1.9-10.1,2.8c-3.7,1.1-7.5,2.3-11.3,2c-3.3-0.3-6.9-0.9-9-2.3c-2.6-1.8-2.6-4.5-0.9-6.6
					s4.7-3.7,7.8-5.2s6.4-2.9,8.8-4.7c2-1.6,3.4-3.7,1.7-5.4c-0.8-0.8-2.1-1.3-3-2.1c-2.8-2.3-0.4-5.7,3.8-7.1
					c4.2-1.4,9.5-1.1,14-0.2c3.4,0.6,6.7,1.7,9.9,3c2.8,1.2,5.5,2.8,8.9,3.2c4.3,0.5,8.6-0.8,12.9-0.9c1.1-0.1,2.2,0.1,3.2,0.6
					c0.4,0.3,0.6,0.8,0.6,1.2c0.3,1.8,0.6,3.6,0.8,5.3c0.3,1,0.1,2.1-0.5,3c-1.1,0.9-2.4,1.6-3.8,2
					C169.8,362.9,163.1,367.2,158.8,372.3z M207.1,389.8c-0.5,1-1.2,2-1.9,2.8c-1.1,1-2.7,1.6-4.2,1.5c-1.6-0.1-3.2-0.7-4.4-1.6
					c-1.7-1.1-3.6-2.4-3.4-3.9c0.1-1.7,2.8-3,3-4.7c0.3-2-3.6-3.7-6.8-3c-1.7,0.5-3.3,1.2-4.8,2.2c-1.8,0.9-3.7,1.6-5.7,2
					c-2.2,0.5-4.6,0.6-6.8,0.1c-1.6-0.4-3.1-1.1-4.5-2.1c-1.8-1.2-3.5-2.5-4.2-4.1c-1.3-2.9,1.3-5.9,4.1-8.5
					c3.6-3.2,7.6-6.1,11.8-8.5c2.4-1.5,5.1-2.5,7.9-2.8c1.5,0,3.1,0,4.6,0.2c2.4,0.1,4.8,0.1,7.1,0.4s4.6,1.2,5.3,2.5
					c1.1,2.2-2.4,4.3-2.4,6.5c0,1.6,2,3.1,4.6,3.5c1.9,0.2,3.9,0.2,5.8,0.1c1.9,0,4.1,0.5,4.8,1.5c0.5,0.7,0.1,1.5,0.4,2.2
					c0.7,2.6,7.1,3.4,8.6,5.9c0.1,0.2,0.2,0.4,0.1,0.6c-0.2,0.5-1.2,0.6-2,0.6c-3.8,0.2-8.3-0.1-10.8,1.5l-0.5,0.1
					C210.5,386.2,208.5,387.8,207.1,389.8L207.1,389.8z M280,394.6c-3,0.7-6,0.9-9.1,0.6c-2.3-0.2-4.8-0.7-6.8-0.1
					c-1.6,0.4-2.7,2-2.6,3.6c0,1.4,0.4,2.9-0.7,4.1c-1.4,1.7-4.9,2.3-8.1,2.6c-2.1,0.3-4.2,0.2-6.2-0.4c-0.9-0.4-1.7-0.9-2.5-1.3
					c-3.9-1.9-9.6-1.4-14.7-1.5c-6.5-0.2-13.3-1.8-16.9-4.9s-3.1-7.9,2.1-10.2c2.4-0.9,4.9-1.4,7.4-1.5c4.3-0.2,8.5,0.4,12.5,1.8
					c2.3,0.9,4.4,2,7.1,2.5c4.1,0.7,8.4-0.1,12-2.2c3.1-1.8,4.9-4.2,6.6-6.6c0.8-1.3,2.2-2.1,3.6-2.1c1.3-0.1,2.5,0.5,3.2,1.6
					c0.3,0.9,0.5,1.8,0.5,2.7c0.4,1.9,2.2,3.6,4.9,4.7l0.6,0.1c2.5-0.5,5-0.6,7.5-0.3c2.5,0.4,4.6,1.6,4.7,3
					C285.2,392.6,282.6,393.9,280,394.6z M284.1,383.4c-2.1,1.3-4.5,2.1-7,2.1c-2.7,0.1-5.6-0.9-6.4-2.4c-1.4-2.8,4.3-5.2,4.4-8.1
					c0-2.1-3.1-4.2-1.6-6.2s7.2-2.2,9.1-4.2c1.2-1.3,0.4-2.9-1-4.1s-3.3-2.2-4.5-3.5s-2.6-3.5-1.8-4.6c0.6-0.5,1.3-0.7,2-0.6
					c3.7,0.3,5.7,3.4,9.4,3.3c1.4-0.1,2.7-0.4,3.9-1c3.9-1.7,7.2-3.8,11.6-5s10.3-1.1,13.3,1.1s1.6,5.3-1.2,7.5s-7,3.6-10.5,5.3
					c-7,3.4-12.1,8-14.4,13.1c-0.5,1.4-1.2,2.8-1.9,4.1C286.6,381.4,285.5,382.6,284.1,383.4L284.1,383.4z M334.7,376.1
					c-4.3,1.4-9.3,2.4-12.6,4.5c-3.8,2.5-4.7,6-6,9.2c-1.3,4-4.6,7.1-8.7,8.2c-1.7,0.5-4.1,0.6-5.3-0.2c-1-0.7-0.7-1.8,0-2.6
					s1.8-1.5,2.4-2.3c0.3-0.3,0.4-0.8,0.3-1.2c-0.4-0.7-1.9-1.1-3.3-1.1s-2.7,0.3-4,0.1c-3.1-0.2-6.4,0.5-8.8-0.7
					c-1.4-0.6-2.2-2.1-1.9-3.6c0.5-1.4,1.2-2.6,2.2-3.7l6.4-7.7c1.5-1.9,3.6-3.9,7.1-4.3c3.3-0.3,6.8,1.1,10,0.5
					c2-0.3,3.7-1.5,4.8-3.2c0.9-1.4,1.4-2.9,2.9-4.1c2.3-1.8,6.5-2.5,10.3-2.1c3.4,0.4,6.6,1.6,9.4,3.6c1.6,1.1,2.9,2.5,3,3.9
					C343.2,372.4,339,374.7,334.7,376.1L334.7,376.1z M366.1,333c-2.1,3-7.7,4.7-10.2,7.5c-1.6,1.6-1.9,4.2-0.6,6.1
					c1.4,2.1,4.5,3.7,7,5.4s4.9,3.9,4.5,6.1c-0.3,1-0.9,2-1.7,2.7c-2.5,2.4-5.6,4-9,4.6c-3.9,0.8-8.6,0.4-11.5-1.3
					c-1-0.6-1.8-1.2-2.7-1.9c-3.1-2.1-7.9-3.3-12.6-3.2s-9.3,1.5-12.2,3.7c-1.8,1.3-2.2,3.1-3.9,4.5s-4.3,0.9-6.6,0.9
					c-0.5,0-1,0-1.5-0.2c-0.8-0.4-0.4-1.2,0.1-1.8c4.4-4.2,14.9-5.8,17.1-10.5c0.7-1.6,0.4-3.4,1.5-4.9c1.4-1.8,4.5-2.9,7.4-4
					s5.7-2.6,5.7-4.6c0.1-2.4-3.8-4.1-4.8-6.4c-1-2.5,1.6-5,4.7-6.8c4.3-2.5,9.1-4.1,14-4.7c3.4-0.5,6.8-0.3,10.1,0.6
					C365.9,326.4,368.2,330,366.1,333z M374.1,317.5c-1.3,1.5-2.9,2.6-4.7,3.2c-1.5,0.6-3.1,0.8-4.8,0.7c-1.7-0.2-3.2-0.6-4.9-0.9
					c-2.9-0.5-5.8-0.4-8.7,0.1c-3,0.6-6.1,1.7-9.1,1.1s-4.4-2.9-7.4-3.7s-6.9,0.3-10.2-0.3s-5.2-3.1-3.6-4.9s5.4-2.5,7.6-4
					c1.9-1.3,2.3-3.3,1-4.8c-0.5-0.5-0.9-1-1.3-1.5c-1-1.9,1.9-3.7,4.3-5.1s5.1-3.2,5.4-5.3c0-0.8,0.1-1.6,0.2-2.5
					c0.6-1.1,1.5-2.1,2.6-2.8c2.1-1.7,4.5-2.8,7.2-3.3c4.9-0.8,10.3,1.3,12,4.1s0.4,6-2,8.5c-2.3,2.5-5.8,5-4.5,7.7
					c1.2,2.5,5.9,3.8,10.1,4.6s9.1,1.8,11.1,4.1C375.5,314,375.4,316.1,374.1,317.5L374.1,317.5z"/>
			</g>
			<polygon class="st3" points="229,467.2 229,477.9 480.9,332.5 480.9,321.8 			"/>
			<polygon class="st10" points="229,467.2 229,477.9 480.9,332.5 480.9,321.8 			"/>
			<polygon class="st3" points="19.1,346 229,467.2 229,477.9 19.1,356.8 			"/>
		</g>
	</g>
</g>
<g id="freepik--character-2--inject-114">
	<g id="freepik--Character--inject-114">
		<path id="freepik--shadow--inject-114" class="st8" d="M296,297c25-13.2,65.6-13.2,90.6,0c23,12.1,23,39,0,51.1
			c-25,13.2-65.6,13.2-90.6,0C273,336,273,309.2,296,297z"/>
		<path class="st6" d="M295.1,341.7c25,14.5,65.6,14.5,90.7,0c23-13.3,23-42.8,0-56.1c-25-14.4-65.6-14.4-90.7,0
			C272.1,299,272.1,328.4,295.1,341.7z M311.6,311.8c1.8-2.4,4.1-4.4,6.7-5.8c12.2-7,32.1-7,44.3,0c2.6,1.4,4.9,3.4,6.7,5.8
			c-1.8,2.4-4.1,4.3-6.7,5.8c-12.2,7.1-32.1,7.1-44.3,0C315.7,316.2,313.4,314.2,311.6,311.8L311.6,311.8z"/>
		<g id="freepik--character--inject-114">
			<g id="freepik--Chest--inject-114">
				<path class="st14" d="M369.3,254.3c-0.6,0.1-1.2,0.1-1.9,0c-1.7-0.2-3.3-1.1-4.2-2.6c-0.9-1.3-1.2-3-2.3-4
					c-1.3-1.2-3.5-1.4-4.6-2.8c-0.7-0.8-1-1.9-0.8-3c0.1-1.1,0.5-2.1,1-3c0.5-0.7,0.8-1.6,0.8-2.5c-0.2-1.1-0.7-2.1-1.5-2.9
					c-0.6-0.9-1-2.2-0.4-3.1c-0.7,0.8-0.9,1.9-0.6,2.8c-1.6-0.7-2.2-2.8-2-4.5c0.3-2.9,2.3-5.4,5.1-6.3c2-0.6,4.3-0.1,6.1-1.2
					c0.9-0.7,1.7-1.4,2.4-2.2c1.6-1.1,3.6-1.5,5.5-1.1c1.9,0.4,3.7,1.2,5.3,2.2c0.4,0.2,0.8,0.5,0.8,0.9l1.5-0.2
					c0.2-0.1,0.5-0.1,0.7-0.1c0.6,0,1.2,0,1.8,0.1c0.7,0.1,1.3,0.2,2,0.4c2,0.5,3.6,2.1,4.2,4.1c0.4,1.7-0.1,3.6,0.7,5.1
					c1.1,2.1,4.2,2.6,5.2,4.8c0.5,1.6,0.1,3.3-0.9,4.5c-0.8,1-1.8,2-1.8,3.3c0.1,0.9,0.3,1.7,0.5,2.5c0.3,1.8-0.7,3.6-2.4,4.4
					c-0.3-0.9-1.2-1.5-2.2-1.6c0.5,1,0.4,2.2-0.2,3.2c-0.7,0.9-1.8,1.4-3,1.1c-0.5-0.1-0.9-0.4-1.4-0.6c-0.5-0.2-1-0.1-1.5,0.2
					c-0.1,0.1-0.2,0.3-0.3,0.5c-0.7,1.1-1.8,1.9-3.1,2.1c-0.9,0.1-1.9,0-2.8-0.1c-0.2,0-0.5,0-0.7,0c-0.3,0-0.6-0.1-0.9-0.3
					c-0.8-0.2-1.6-0.3-2.4-0.2C370.5,254.2,369.9,254.2,369.3,254.3z"/>
				<path class="st15" d="M367.1,230.5c-3.9-0.5-4.4-3.6-5.1-3c-1.8,1.4-3,4.4-3.5,12.3c-0.5,8.2,2.3,10.6,3.7,11.3
					c1.4,0.8,2.9,1.2,4.5,1.2l-0.9,5.1c0,0-4.8,2.4-5.4,7c11.4-1.1,17-4.2,17-4.2l2.4-13.8c0.8,0.6,1.8,0.8,2.7,0.6
					c3.4-1.2,4.5-5.2,3-7s-4.3-1.6-5.2,0.8c0,0-2.2,1.4-1.8-3.7c-2.4-2.5-0.6-4.9-2.9-7.1S370.3,230.9,367.1,230.5z"/>
				<path class="st16" d="M369.3,245.4c0.2,1.1-0.6,2-1.6,2.2c-0.1,0-0.1,0-0.2,0c-1.2,0.1-2.2-0.7-2.5-1.9L369.3,245.4z"/>
				<path class="st17" d="M366.8,247.6c0.1-0.9,0.9-1.6,1.8-1.6c0,0,0.1,0,0.1,0c0.2,0,0.4,0.1,0.6,0.1c-0.2,0.8-1,1.4-1.8,1.5
					C367.2,247.6,367,247.6,366.8,247.6z"/>
				<path class="st14" d="M369.7,238.4c0,0.6,0.5,1.2,1.1,1.2c0.6,0.1,1.1-0.3,1.2-0.9c0,0,0-0.1,0-0.1c0-0.6-0.5-1.2-1.1-1.2
					C370.3,237.4,369.8,237.8,369.7,238.4C369.7,238.4,369.7,238.4,369.7,238.4z"/>
				<path class="st14" d="M361.1,237.1c0,0.6,0.5,1.2,1.1,1.2c0.6,0.1,1.1-0.3,1.2-0.9c0,0,0-0.1,0-0.1c0-0.6-0.5-1.2-1.1-1.2
					c-0.5-0.1-1.1,0.2-1.2,0.8C361.1,236.9,361.1,237,361.1,237.1z"/>
				<polygon class="st18" points="367,236 365.9,243.3 362,242 				"/>
				<path class="st18" d="M366.7,252.4c3.5-0.1,9.5-1,12-4.7c-0.3,1.4-1,2.7-2.1,3.8c-2.4,2.1-10.2,2.8-10.2,2.8L366.7,252.4z"/>
				<path class="st14" d="M371.9,233.3l3,1.3c0.3-0.8,0-1.7-0.8-2c0,0,0,0,0,0C373.3,232.2,372.3,232.5,371.9,233.3
					C371.9,233.3,371.9,233.3,371.9,233.3z"/>
				<path class="st14" d="M361,232.4l3.1,0.3c0-0.9-0.6-1.6-1.5-1.7C361.8,230.9,361.1,231.5,361,232.4
					C361,232.4,361,232.4,361,232.4z"/>
				<path class="st18" d="M306.3,278.7c2.5-2.6,5.9-4.1,9.5-4.4c1.9-0.1,3.9,0,5.8,0.3c0.9,0.1,1.7,0.4,2.5,0.5s1.8,0.2,2.8,0.4
					c1.6,0.3,5.4,0.9,9.3,1.5c4-5.1,11-14.1,13.7-17c3.9-4.2,6.7-4.4,10.8-3.9l4.2,0.5c0,0-1.4,1.6-4.9,5.4
					c-2,2.1-7.4,10.2-11.9,16.9l0,0c0,0,0,0,0,0.1c-2.4,3.7-4.5,7-5.6,8.6l-0.2,0l-2.4-0.6l-3-0.7c-2.1-0.5-4.3-1.1-6.5-1.6
					l-2.6-0.6c-1.1-0.3-2.3-0.5-3.5-0.5c-0.7,0-1.3,0-2,0.1c-1.2,0.4-2.4,0.8-3.6,1.4c-0.2,0.1-0.5,0.2-0.7,0.2
					c-1.2,0.4-2.5,0.7-3.7,0.9l-1.8,0.3c-0.1,0-0.2,0-0.4,0c-0.3-0.1-0.4-0.4-0.3-0.7c0,0,0,0,0,0c0.2-0.5,0.6-0.9,1-1.2
					c0.5-0.4,1-0.7,1.5-1c0.5-0.2,1-0.5,1.4-0.8c0.4-0.3,0.1-0.6-0.3-0.8c-0.3-0.2-0.7-0.4-1.1-0.5c-1.2-0.4-2.4-0.6-3.6-0.7
					c-1.3,0-2.6-0.1-3.8-0.3c-0.2,0-0.5-0.1-0.7-0.3C305.6,279.7,305.9,279.1,306.3,278.7z"/>
				<path class="st15" d="M333.7,289.3c0,0,7.2,12.4,14.3,22.6c2.1,3.1,4.4,6.2,6.8,9.1c2.6-0.7,5.1-1.8,7.5-3.1
					c0.2-0.1,0.3-0.1,0.5-0.2c1.3-0.7,2.4-1.5,3.5-2.4l0,0c0.7-1.1,1.3-2.2,1.9-3.3c1.9-3.5,3.4-6.8,4.6-9.3
					c2.9-5.7,7-8.3,11.6-18.6s3.4-18,2.6-18.7c-1.8-1.6-3.6-3.1-5.6-4.4c-2.7-1.9-3.5-2.2-3.1-4.4L367,255c-0.2,1.2-0.6,1.9-1.9,1.8
					c-9.5,4.2-12.1,4.8-12.8,5.2c-2.6,1.8-4.2,2.6-6,6.6c-1.2,3-1.3,6.4-0.2,9.5l-2,6L333.7,289.3z"/>
				<path class="st19" d="M378.3,255.4c0.8,1.5,0.5,4.2-0.3,11.1s-1.9,18.9,4.5,21.2c-1,1.9-2.1,3.8-3.3,5.5
					c-7.8,0-23.5-3.3-32.9-15.2c-4.9-9,1.5-14.9,6-16.3c3.5-1.1,8-3.3,11.4-4.7c0.8-0.3,1.6-0.8,2.4-1.3l-0.2,1.3
					c-2.3,2-10.9,10.3-11.9,19.1c8.8-3.7,13.1-7.7,17.2-10.8c4-3,6.1-4.9,6.9-8.6L378.3,255.4z"/>
				<path class="st19" d="M333.7,289.3c0,0,7.2,12.4,14.3,22.6c2.1,3.1,4.4,6.2,6.8,9.1c2.6-0.7,5.1-1.8,7.5-3.1
					c0.2-0.1,0.3-0.1,0.5-0.2c1.3-0.7,2.4-1.5,3.6-2.5c0.7-1.1,1.6-2.2,2.2-3.3c1.9-3.5,3.2-6.5,4.5-9c0.6-1.3,1.3-2.4,2-3.8
					c0,0-2.9,0.9-11.7-1.2s-18.5-10.2-18.8-13.9l-4.6,2.3L333.7,289.3z"/>
			</g>
			<g id="freepik--Bottom--inject-114">
				<path class="st15" d="M250.1,352.1c0.6-1.8,1.7-1.2,5.6-3.4l2.4-1.4l0,0c2.8-1.5,5.5-3.3,7.9-5.4c2.2-2.2,5-5.1,5.8-6
					s1.8-2.2,2.9-3.8s6.1-9.1,14.4-18.9c2.2-2.6,3.1-3.4,11.1-8c9.6-5.5,25.5-12.6,25.5-12.6l26.6,10.1c-4,12.7-10.6,17.6-21.7,20
					c-12.5,2.6-31,3.6-31,3.6c-1.5,2.2-3.4,4.3-5.5,6c-3.4,2.9-7.1,5.4-11,7.7c-2.2,1.5-3.7,2.5-4.5,3.2c-1.1,0.7-1.9,1.8-2.3,3.1
					c-0.4,1.6-0.2,4-1.5,5.4s-2.3,1.3-4.3,1.3s-2.6-0.2-4.4,1.3s-3.2,4.2-9.2,3.5C252.5,357,249.5,354,250.1,352.1z"/>
				<path class="st20" d="M281.9,340.6c0.1-0.1,0.2-0.1,0.3-0.2c-1.8,1.2-3,2.1-3.7,2.6c-1.1,0.7-1.9,1.8-2.3,3.1
					c-0.4,1.6-0.2,4-1.5,5.4s-2.3,1.3-4.3,1.3s-2.6-0.2-4.4,1.3s-3.2,4.2-9.1,3.5c-4.4-0.5-7.4-3.6-6.8-5.5s1.7-1.2,5.6-3.4l2.4-1.4
					l0,0c2.8-1.5,5.5-3.3,7.9-5.4c1.9-1.9,4.2-4.3,5.3-5.5c-1.1,1.4-0.6,3.1,1.3,4.2C275.5,342.1,279,342.1,281.9,340.6z"/>
				<path class="st18" d="M305.9,325.8c0.2-3.2,1-17.1,2-24.7c3.6-1.9,7-3.5,10.1-5l14.8,5.8l8.5,16.5c-2.8,1.8-5.9,3.1-9.1,3.8
					c-0.5,0.1-1,0.2-1.6,0.4C322.4,324.1,314.1,325.2,305.9,325.8z"/>
				<path class="st18" d="M299.5,326.2c0.8-1.6,1.3-3.2,1.6-4.9c0.1,1.6-0.1,3.3-0.6,4.9L299.5,326.2z"/>
				<path class="st15" d="M322.1,304.8c1,2.3,2.2,4.7,3.4,7.1c1.8,3.7,4,7.2,6.7,10.4c7.5,1.2,15.3,0.8,22.6-1.3
					c2.6-0.7,5.1-1.8,7.5-3.1c0.4-2,0.3-4.1-0.5-6c-0.5-1.3-1.3-2.6-2.3-3.6c-2.1-2.2-4.5-4.1-7.2-5.6c-5.3-7.1-8.5-11.7-12.5-16.4
					c-1.4-1.6-2.9-3.2-4.5-4.9c-7.5-7.6-11.4-9.2-15.2-8.3c-2.5,0.6-4.4,1.4-5,4.4C313.9,281.9,316.9,293.1,322.1,304.8z"/>
				<path class="st18" d="M355.3,317.4c0.5-2.9,0.4-10.8-3.1-14.7c1,0.5,1.9,1.1,2.8,1.7C356.7,307.9,357.2,312.3,355.3,317.4z"/>
				<path class="st15" d="M292.7,346.6c-0.1,1.1,0.5,2.1,1.4,2.5c2.8,1.8,6.2,2.4,9.5,1.9c5.7-1.3,5.7-4.4,6.9-6.5
					c1.1-1.9,1.7-2,3.5-2.7s2.7-1,3.4-2.8s-0.3-3.8-0.6-5.3c-0.1-1.7,0-3.5,0.5-5.2c0.4-1.7,2.1-6.3,3.2-9.6s3.4-8.3,4.7-13.5
					c2.2-8.2,3.8-15.5,2.4-21.7c-1.1-4.4-3.9-8.3-7.7-10.8c-4.2,1-8.8,3.2-10.2,17.8c-1,10.5-1,19.4-1.6,25.9s-0.8,8.9-1,10.9
					c-0.3,2.2-1,4.3-2,6.3c-1.5,3.6-4,6.6-7.2,8.7C295.3,344.3,292.8,345.2,292.7,346.6z"/>
				<path class="st18" d="M327,293.1c0.4,1.8,1.2,3.5-0.3,12.4c-0.4,2.4-0.9,4.6-1.2,6.4c-0.5-0.9-0.9-1.8-1.4-2.8
					C325.4,304.7,327.5,297,327,293.1z"/>
			</g>
			<path class="st15" d="M358.8,327.9c3.1-1.4,6.4-5,6.4-5c-1.5,0.3-3.1,0.5-4.6,0.6c-1.1,0-1.9-0.8-2-1.9c0-0.5,1.1-0.3,2.8-1
				c2.1-0.9,3.4-1.8,5.9-2.1c1.2-0.1,2.3-0.6,3.1-1.5c2.1-3.3,9-17.5,9-17.5l-0.5-19.8c0,0-1.9-9.7,6.3-16c7.5,5.6,7.6,6.2,7.4,17.6
				c-0.1,5.8,0.1,12.7-0.3,17.4c-0.3,3.6-0.1,4.9-1.2,6.8c-1.4,2.4-2.9,4.6-4.2,6.5c-2,3-10.4,14.3-12.9,16.6
				c-5.4,4.9-9.5,6-13.1,5.4c-0.9-0.1-1.7-0.4-2.5-0.8c-0.8,0.1-1.9-0.4-2-1.2C354.5,331.1,355.5,329.4,358.8,327.9z"/>
			<path class="st14" d="M364.5,238.1c0.3-0.3,0.7-0.4,1.1-0.4c0.6,0.1,1.6,1.2,1.6,1.2l0.7-0.8c-0.5-0.7-1.3-1.2-2.1-1.4
				c-0.6-0.1-1.2,0-1.6,0.3L364.5,238.1z"/>
			<path class="st4" d="M367.2,236.3c1.1-1.5,2.3-1.8,5.3-1.6s4.5,1.1,5.1,3c0.6,2.8-1.2,5.7-4,6.3c-0.3,0.1-0.5,0.1-0.8,0.1
				c-4.1,0.3-5.6-2.5-5.9-4.1C366.5,238.8,366.6,237.5,367.2,236.3z"/>
			<path class="st14" d="M372.5,243.2h0.3c1.3-0.1,2.5-0.7,3.2-1.8c0.7-1,1-2.2,0.7-3.4c-0.4-1.3-1.3-2.1-4.3-2.4
				c-0.7,0-1.2-0.1-1.7,0c-1.1-0.1-2.2,0.4-2.8,1.3c-0.9,2.4,0.3,5.1,2.7,6C371.2,243.2,371.8,243.3,372.5,243.2L372.5,243.2z"/>
			<path class="st4" d="M364.8,236.5c0-1.5-1.4-3.2-4-3.7c-2-0.4-4,0.7-4.2,2.5c-0.2,2.3,0.2,5,3.1,5.7
				C362.3,241.6,364.9,240.1,364.8,236.5z"/>
			<path class="st14" d="M361,240.2c0.8,0,1.5-0.3,2-0.9c0.7-0.8,1-1.8,0.9-2.8c0-1.1-1.2-2.5-3.2-2.9c-0.2,0-0.5-0.1-0.7-0.1
				c-1.1-0.1-2.1,0.7-2.4,1.8c-0.3,2.6,0.5,4.2,2.4,4.7C360.3,240.2,360.7,240.2,361,240.2z"/>
			<path class="st6" d="M357.5,237.1c0.2,0.2,0.4,0.4,0.6,0.5c0.2,0.2,0.4,0.3,0.7,0.3c0,0,0.1,0,0.1-0.1c0-0.1,0-0.1,0-0.2
				c-0.1-0.5-0.2-0.9-0.5-1.3c-0.1-0.2-0.3-0.4-0.2-0.6c0.7,0.1,1.1,0.9,1.8,1.2c0.1,0.1,0.3,0.1,0.4,0c0.1-0.1,0.1-0.2,0.1-0.3
				c-0.1-0.4-0.4-0.6-0.6-1c-0.1-0.2-0.1-0.5-0.1-0.7c0.5,0,0.9,0.5,1.3,0.4c0.1,0,0.1,0,0.2-0.1c0.1-0.1,0-0.3,0-0.5
				c-0.3-0.4-0.6-0.8-0.9-1.1h0.1c2,0.4,3.2,1.7,3.2,2.9c-0.1,0-0.2,0.1-0.2,0.1c-0.5,0-0.9-0.4-1.3-0.4c-0.1,0-0.1,0-0.2,0.1
				c-0.1,0.1,0,0.3,0.1,0.5s0.2,0.3,0.1,0.5c-0.3,0-0.5,0-0.8,0.1c0.1,0.5,0.2,1,0.3,1.5c0,0.1,0,0.2,0,0.3
				c-0.1,0.1-0.2,0.1-0.3,0.1c-0.5-0.1-0.8-0.6-1.3-0.9c-0.1,0-0.1,0-0.2,0c0,0-0.1,0-0.1,0.1c-0.1,0.2,0,0.4,0,0.7
				c0,0.2-0.2,0.4-0.4,0.5c-0.1,0.1-0.3,0.1-0.4,0.1C358.2,239.2,357.6,238.2,357.5,237.1z"/>
			<path class="st6" d="M372.3,243.2c-1.2,0.1-2.4-0.4-3.3-1.2c0.5-0.1,0.8-0.5,0.9-0.9c0-0.4-0.1-0.7-0.3-1
				c-0.5-0.9-1.1-1.7-1.8-2.4l-0.1-0.1c0-0.2,0.1-0.5,0.2-0.7c0.1-0.1,0.2-0.2,0.2-0.3l0.2,0.1c0.9,0.7,1.5,1.8,2.4,2.4
				c0.2,0.2,0.4,0.2,0.6,0.2c0.2-0.1,0.3-0.3,0.3-0.5c0-0.2-0.5-0.4-0.2-0.6s0.5,0.1,0.8,0.2c0-0.3-0.2-0.4-0.4-0.6
				s-0.3-0.5-0.2-0.7c0.2-0.1,0.4-0.2,0.6-0.1c0.9,0.2,1.5,1.1,2.3,1.2c0.1,0,0.2,0,0.2,0c0.1-0.1,0.1-0.3,0.1-0.4
				c-0.2-0.7-0.5-1.4-1-2c1.9,0.4,2.6,1.1,2.9,2.2c0,0.1,0.1,0.3,0.1,0.4c0,0.1,0,0.2-0.1,0.4c-0.2,0.4-0.6,0.8-1.1,0.9
				c-0.5,0.1-1,0-1.4-0.2c-0.1-0.1-0.3-0.1-0.5-0.1c-0.2,0-0.3,0.1-0.4,0.3c0,0.1,0,0.2,0.1,0.3c0.2,0.4,0.5,0.8,0.7,1.3
				c0.1,0.2,0.2,0.4,0,0.5c-0.1,0-0.1,0.1-0.2,0.1c-0.4,0-0.8-0.1-1.1-0.2c-0.3-0.1-0.7,0-1,0.2c-0.1,0.2-0.1,0.3-0.1,0.5
				C372,242.6,372.1,242.9,372.3,243.2z"/>
		</g>
	</g>
</g>
<g id="freepik--character-1--inject-114">
	<g id="freepik--character--inject-114_00000004544740364189712430000016323287512164468886_">
		<path id="freepik--shadow--inject-114_00000114060723674548131040000016825059448308317593_" class="st8" d="M118.5,262.9
			c-7.4,4.3-7.3,9.5-12,10.2S79,273.8,78,274.6s-1.1,3.7,2.8,4.6s11.5,0.5,11.5,1.5s-2.3,1.4-3.8,2.3s-1,3.2,3,2.4s6.9-0.1,10.8-2
			s7.8-3.5,10.9-2s9.4,4.6,9.4,4.6l1.4-0.8l18.8,10.8l2.2,9.5l34.9-20.2c0,0,3.4-9.2-7.1-16.2s-16.7-11.5-26.2-12
			S125.8,258.7,118.5,262.9z"/>
		<g id="freepik--bottom--inject-114">
			<path class="st14" d="M165.3,286.7c3.9,2.4,6.7,0.1,11.9-5.9s5.4-12,2.2-13.8c-5.9-3.3-11.4,2.4-14.1,6.7
				S161.6,284.6,165.3,286.7z"/>
			<path class="st21" d="M150.8,252.3c5.4,3.3,21,9.4,29.8,16.7c3.9,3.2,4.6,4.7,6.1,9.6c1,3.1,4.9,23.4,6.1,28.4s2.2,10.1,4.6,14.7
				c1.3,2.5,6.8,10.4,9.1,12.3c3,2.6,4.5,2.9,4.2,5.1s-4.1,3.9-8.9,3.1c-6.8-1.1-8.4-4.8-9.7-7.3c-0.9-2-2.6-3.5-4.7-4.4
				c-2.1-1-3.1-1.4-3.8-3.5s-0.2-3.5,0.1-5.3c0.2-1.5-0.1-3-0.9-4.3c-0.5-1-6.6-11.7-8.2-15.1c-2.4-4.6-3.7-9.7-3.8-14.8
				c0,0-13.9-7.3-20.5-10.3c-5.9-2.7-20-13.9-19.9-20.2L150.8,252.3z"/>
			<path class="st20" d="M172.7,298c0.5,1.5,1.2,3,1.9,4.5c1.6,3.4,7.7,14.1,8.2,15.1c0.8,1.3,1.1,2.8,0.9,4.3
				c-0.4,1.8-0.8,3.2-0.1,5.3s1.7,2.5,3.8,3.5c2,0.8,3.7,2.4,4.6,4.4c1.3,2.5,2.9,6.2,9.7,7.3c4.8,0.8,8.6-0.9,8.9-3.1
				s-1.2-2.6-4.2-5.1c-2.3-1.9-7.8-9.8-9.1-12.3c-2.4-4.6-3.4-9.7-4.6-14.7c-0.5-1.9-1.4-6.2-2.3-10.8c0.2,1.5-0.7,3-2.6,4.1
				c-4,2-8.8,2-12.8,0C174.1,299.9,173.2,299,172.7,298z"/>
			<path class="st19" d="M165.3,286.7c-1.3-1.4-0.1-9,4.2-14s6.6-6,9.9-5.7c-2.6-1.9-4.5-3-14.3-9.5l-11.6-7.7l-15,21.1L165.3,286.7
				z"/>
			<path class="st14" d="M147,295.8c2.7,1.8,8.3,0.8,12.1-3.3c6-6.4,7.1-12,5.1-13.6c-4.4-3.6-9-2.8-16.4,2
				C142.2,284.5,142.4,292.9,147,295.8z"/>
			<path class="st21" d="M131.4,260.6c5.4,3.3,21,9.4,29.8,16.7c3.9,3.2,4.6,4.7,6.1,9.6c1,3.1,4.9,23.4,6.1,28.4s2.2,10.1,4.6,14.7
				c1.3,2.5,6.8,10.4,9.1,12.3c3,2.6,4.5,2.9,4.2,5.1s-4.1,3.9-8.9,3.1c-6.8-1.1-8.4-4.8-9.7-7.3c-0.9-2-2.6-3.5-4.7-4.4
				c-2.1-1-3.1-1.4-3.8-3.5s-0.3-3.5,0.1-5.3c0.2-1.5-0.1-3-0.9-4.3c-0.5-1-6.5-12.2-8.1-15.5c-2.5-5.2-3.8-9.7-3.8-14.4
				c0,0-13.5-7-19.9-10.5c-9.1-5-16.6-10.2-15.9-24.8L131.4,260.6z"/>
			<path class="st20" d="M153.9,307.4c0.4,0.9,0.8,1.9,1.3,2.9c1.6,3.4,7.6,14.5,8.1,15.5c0.8,1.3,1.1,2.8,0.9,4.3
				c-0.4,1.8-0.8,3.2-0.1,5.3s1.7,2.5,3.8,3.5c2,0.8,3.7,2.4,4.7,4.4c1.3,2.5,2.9,6.2,9.7,7.3c4.8,0.8,8.6-0.9,8.9-3.1
				s-1.2-2.6-4.2-5.1c-2.3-1.9-7.8-9.8-9.1-12.3c-2.4-4.6-3.4-9.7-4.6-14.7c-0.4-1.8-1.2-5.6-2.1-9.9c0.2,1.5-0.6,3-2.6,4.1
				c-3.9,2-8.6,2-12.5,0C155.2,309.1,154.5,308.3,153.9,307.4z"/>
			<path class="st6" d="M115,259.5c-0.1,5,0.8,9.9,2.7,14.5c2.2,5.1,6.1,8.1,11.8,11.5c5.5,3.3,17.5,10.3,17.5,10.3
				c-2.6-1.8-0.4-8.2,4.2-13c3.9-4,9.8-5.7,12.9-3.9l-15.2-11.8c3.6-2.8,5-8.1,3.4-13L115,259.5z"/>
		</g>
		<g id="freepik--Top--inject-114">
			<path class="st21" d="M155.6,207.4c4.8,6.6,8.2,11.5,11,15.5c0,0,9-5.4,12.7-8.6c1-0.7,1.7-1.8,1.9-3c0.3-1,0.7-1.9,1.1-2.9
				c0.5-1.2,0.8-1.6,1.3-3c0.4-1.5,0.8-3.1,1-4.7c0.4-0.6,1.7-0.6,2.5,0.9c0.4,1,0.5,2,0.3,3c0,0.9-0.3,2-0.1,2.1s1.6-0.5,2.8-0.8
				s2.4-0.8,3.8-0.4c0.9,0.2,1.4,1.2,1.2,2.1c0,0.1,0,0.1-0.1,0.2c-0.2,0.3-0.4,0.6-0.8,0.9c0.5,0,1,0.1,1.4,0.4
				c0.6,0.7,0.6,1.8,0,2.5c0.6,0,1,0.4,1.1,1c0.1,0.8,0.1,1.7-0.8,2c0,0,0.7,0.2,0.7,0.6c0.1,0.7-0.1,1.4-0.7,1.9
				c-0.8,0.3-1.6,0.5-2.4,0.6c0,0-0.1,0.3-0.9,0.7c-0.3,0.1-0.9,0.5-2.1,1c-1,0.4-2,0.7-3,0.9c-1,0.2-2.1,1.2-4.9,3.8
				c0,0-8.2,8.9-11.3,11.3c-3.5,2.7-6.2,3.4-11.2-1.3c-4.6-4.5-8.8-9.3-12.9-14.3l-1.9-17.9C147.9,201.8,152.9,203.8,155.6,207.4z"
				/>
			<path class="st17" d="M191.5,206.7c-0.2,0.1-0.3,0.3-0.5,0.4c-0.2,0.2-0.3,0.3-0.4,0.6v-0.1c-1,0.2-1.8,0.7-2.4,1.4
				c-0.2,0.2-0.3,0.4-0.4,0.6c-0.1,0.3-0.1,0.5,0,0.8c0.1,0.3,0.4,0.5,0.7,0.4l0.7-0.1c0.4-0.1,0.9-0.1,1.4-0.1
				c0.5-0.1,0.9-0.2,1.4-0.4c0.9-0.4,1.7-0.9,2.4-1.5c-0.4,0.3-0.8,0.5-1.2,0.7c-0.4,0.2-0.8,0.4-1.1,0.6c-0.4,0.2-0.9,0.3-1.3,0.3
				c-0.4,0.1-0.9,0.1-1.4,0.1c-0.2,0-0.5,0.1-0.7,0.1s-0.3,0-0.4-0.2c-0.1-0.4,0-0.8,0.3-1.1c0.6-0.7,1.4-1.2,2.2-1.4l0,0l0,0
				c0.1-0.2,0.2-0.4,0.3-0.5C191.2,207,191.3,206.9,191.5,206.7z"/>
			<path class="st17" d="M189.5,210.6c-0.4,0-0.8,0.3-0.9,0.7c-0.1,0.4,0.1,0.9,0.5,1.1c0.6,0.6,1.4,0.9,2.2,1
				c0.4,0,0.8-0.1,1.2-0.3c0.4-0.1,0.7-0.3,1.1-0.5c0.7-0.3,1.5-0.6,2.2-1c-0.8,0.2-1.5,0.5-2.3,0.8c-0.7,0.3-1.5,0.6-2.2,0.7
				c-0.4,0-0.8-0.1-1.1-0.3c-0.4-0.2-0.7-0.4-1-0.6c-0.3-0.2-0.5-0.6-0.5-0.9C188.8,211,189.1,210.6,189.5,210.6z"/>
			<path class="st17" d="M190.9,213.2c-0.4,0-0.7,0.1-1,0.4c-0.1,0.2-0.2,0.4-0.2,0.6c0,0.2,0.1,0.4,0.2,0.6
				c0.2,0.3,0.6,0.5,0.9,0.6c0.3,0.2,0.7,0.3,1.1,0.3c0.4-0.1,0.7-0.2,1.1-0.3c0.3-0.1,0.7-0.2,1-0.2c0.7-0.1,1.4-0.3,2.1-0.4
				c-0.7,0-1.4,0.1-2.2,0.2c-0.4,0-0.7,0.1-1.1,0.2c-0.3,0.1-0.7,0.2-1,0.3c-0.3,0-0.7-0.1-1-0.3c-0.3-0.1-0.6-0.3-0.9-0.5
				c-0.1-0.1-0.2-0.3-0.2-0.4c0-0.2,0-0.3,0.1-0.4C190.1,213.4,190.5,213.2,190.9,213.2z"/>
			<path class="st17" d="M191.5,215.5c-0.1,0.1-0.2,0.3-0.2,0.4c0,0.2,0,0.3,0.1,0.5c0.2,0.3,0.4,0.5,0.6,0.7
				c0.1,0.1,0.2,0.2,0.4,0.3c0.1,0.1,0.3,0.2,0.4,0.2c0.3,0.1,0.6,0.1,0.9,0.1l-0.8-0.3c-0.1,0-0.2-0.1-0.4-0.2
				c-0.1-0.1-0.2-0.2-0.3-0.3c-0.2-0.2-0.4-0.4-0.6-0.6C191.5,216,191.4,215.7,191.5,215.5z"/>
			<path class="st17" d="M188.1,210.4c0.7,1.5,0.6,3.3-0.2,4.7c-0.5,0.9-1.2,1.5-2.1,2c0.9-0.3,1.7-0.8,2.4-1.6c0.6-0.6,1-1.2,1.2-2
				l0.3,0.5c0.1-0.4,0.1-0.6,0.9-0.9c-0.5-0.2-1-0.5-1.4-0.8c-0.4-0.4-1-1-0.2-1.8c-0.2,0-0.4,0.1-0.7,0.1
				C188.2,210.7,188.1,210.6,188.1,210.4z"/>
			<path class="st17" d="M155.3,228.7l-7.7-9l-1.2-11.7l3.9,0.9C153,211.4,156.9,219.3,155.3,228.7z"/>
			<path class="st17" d="M166.6,222.9c1,1.6,1.6,3.4,1.7,5.3c0.6-2,0.3-4.1-0.8-5.8L166.6,222.9z"/>
			<g id="freepik--chest--inject-114">
				<path class="st21" d="M113,220.4c1-10.8,3.5-13.2,3.5-13.2c0.9-0.3,3.5-1.4,6.5-2.5c6.2-2.3,16-2.9,22.6-2.8c0,0,6.4,6,8.3,19.2
					c0.9,6.2-0.2,9.8-1.7,11.5c0.2,3.4-0.2,5.9-0.3,9c1.4,3.6,2.2,5.6,2.5,8.8c-1.5,12.6-27.9,15-39.5,9.2c-0.9-3.6-1.8-13-1.8-21.4
					C113.1,231.6,112.2,228.8,113,220.4z"/>
				<path class="st17" d="M139.2,202c-0.1,1.3,1,2.5,2.3,2.5c0.1,0,0.2,0,0.3,0c-1.8-0.6-2.2-1.7-2.2-2.6L139.2,202z"/>
				<path class="st17" d="M113.2,238.1c0-5.8-0.7-8.7-0.3-15.1l7.1-1.1c0,3-0.7,6-1.8,8.8l-4.2,21.6
					C113.5,248,113.2,242.9,113.2,238.1z"/>
				<path class="st22" d="M123.8,237.5c1.8,1.2,4.8,1.2,6.6,1c2.1-0.4,4.2-1.1,6.1-2.1c0.6-0.3,1.3-0.6,1.9-0.9
					c1.6-0.6,2.5-0.1,3.8,0c2.2,0.2,4.3-0.1,6.4-0.8c1.2-0.3,2.2-1,2.9-1.9c-4.4,2.3-7,1.6-8,1.5c-0.7-0.1-1.4-0.3-2-0.6
					c-0.5-0.3-0.7-0.9-0.7-1.5c0-0.7,0-1.3,0-2c0.1-1.7-0.1-4.3-1-3.5c-0.1,0.1-0.1,0.2-0.1,0.3c-0.3,1.5-0.1,4.1-1,5.9
					s-2.9,2.6-5,3.3c-2.2,0.7-4.4,1.1-6.7,1.2C124.7,237.5,122.6,236.8,123.8,237.5z"/>
				<path class="st17" d="M134.4,211.7c-1.8-1.1-7.3-1.3-9.4-1.5s-2.1,0.6,1.4,1.1c3.2,0.5,6.2,0.5,8,1.6c1.5,1,2.1,1.8,2.3,1.2
					S135.4,212.4,134.4,211.7z"/>
				<path class="st17" d="M140.5,210.9c-0.5,0.5-1.6,2.5-1.2,2.7s1-1.3,2.3-2.4s3.6-2.4,4.2-2.9s1.3-1.6-0.9-0.3
					C143.4,208.9,141.9,209.9,140.5,210.9z"/>
				<path class="st17" d="M141.9,248.8c-0.1-0.1-0.2-0.2-0.3-0.3c-0.1-0.1-0.1-0.3,0-0.5c0.1-0.1,0.2-0.4,0.4-0.3h0.1l0.1,0.1
					l0.2,0.2c0.1,0.1,0.2,0.2,0.3,0.3c0.2,0.2,0.3,0.5,0.4,0.8c0.3,0.7,0.4,1.8-0.3,2.3c0,0-0.1,0.1-0.2,0c-0.3-0.1-0.3-0.5-0.2-0.8
					l0,0c0,0,0,0,0-0.1v-0.2c0-0.1,0-0.2,0-0.2v-0.1c0-0.1,0-0.2-0.1-0.2l0,0c-0.1,0.1-0.2,0.2-0.2,0.3c-0.2,0.3-0.3,0.6-0.5,0.8
					c-0.1,0.1-0.2,0-0.2-0.1c0-0.3,0.1-0.6,0.2-0.9c0.1-0.2,0.3-0.4,0.5-0.6l0,0C142.1,249,142,248.9,141.9,248.8z"/>
			</g>
			<path id="freepik--Arm--inject-114" class="st21" d="M95.5,269.4c-0.7,0.6-1.4,1.1-2.3,1.4c-1,0.3-2,0.5-3,0.4c-1,0-2,0.1-3,0.3
				c-0.6,0.2-1.1,0.4-1.8,0.5c-0.6-0.1-1.2-0.1-1.8,0c-0.6,0.2-1.2,0.4-1.6,0.8c-0.7,0.5-1.5,0.9-2.3,1.2c-1.8-0.2-2.3,0.6-1.7,1.5
				s2.3,1.5,3.5,1.7c2.8,0.7,5.8,0.9,8.7,0.8c1.1,0,2.8-0.3,3.6,0.7s-1.1,1.1-1.7,1.1c-0.9,0.1-1.8,0.3-2.5,0.7
				c-2,1-1.9,3.5,0.5,2.8c1.6-0.5,2.2-0.2,3.8-0.3c1.7,0,3.5-0.4,5-1.2c0.6-0.4,1.2-0.9,1.7-1.4c0.7-0.6,1.8-1.1,2.3-2
				c0.7-1.2,1-2.5,1.1-3.9c0.1-0.8,1.5-4.4,2-5.7s1-2.6,1.4-3.9c1.1-2.8,2.2-5.5,3.2-8.2c0.9-2.2,1.6-4.4,2.1-6.7
				c1-5.1,4.4-20.1,4.4-20.1s7.8-16.7-0.7-22.9c-10.3,3.2-10.5,7-12.4,19.5s-3.9,21.9-3.9,21.9c-0.4,1.9-0.8,3.7-1.2,5.6
				c-0.7,3.8-1.3,7.6-2.3,11.3C96.6,266.8,96.1,268.2,95.5,269.4z"/>
			<g id="freepik--top--inject-114">
				<g id="freepik--chest--inject-114_00000047034932977357902290000009564922449186270340_">
					<path class="st14" d="M147.5,180.6c1.5-3.6-0.2-8.3-2.2-10.5c-2.8-3.1-7.1-4.4-13.5-3.8c-4.8,0.5-9.6,2.6-10.3,7.6
						c-3.9,1.3-3.2,7.6-2.2,10.4c2.2,5.6,6.2,10.4,6.3,13.3L147.5,180.6z"/>
					<path class="st21" d="M148,193.9c-0.7,2.8-2.2,4.8-4.8,5.3c-1.3,0.2-2.7,0.2-4.1,0.1l0.1,3.7c4.5,5.9-21.2,3.8-19.2,2.8
						c4.7-2.3,5.3-3.4,5.3-5.7c0-2.6,0.1-7.9,0.1-7.9s-1.5,1.8-4.2,0.2c-2.2-1.5-3-4.3-2-6.8c1.2-2.7,3.8-1.7,4.6-0.9
						s1.8,2.3,2.4,2.1c0.8-0.3,1.3-0.9,1.5-1.6c0.5-1.7,0.8-3.4,0.7-5.2c0.7-0.4,1.3-0.9,1.8-1.5c0.8-1.2,1.2-2.6,1.1-4
						c5.5-1.9,12.6-1.4,14.9,0.3c1.4,2.3,1.6,7.6,1.9,10.7C148.7,188.3,148.6,191.1,148,193.9z"/>
					<path class="st17" d="M139.1,199.3c-2.8-0.1-7.8-1.6-9.4-3.1s-2.3-4.7-2.3-4.7s0.3,4,1.6,5.8c1.3,1.7,3.2,2.8,5.3,3.2
						c1.6,0.3,3.3,0.5,4.9,0.6L139.1,199.3z"/>
					<path class="st14" d="M136.4,184c0,0.6-0.5,1.2-1.2,1.2c-0.6,0-1.2-0.5-1.2-1.2c0-0.6,0.5-1.2,1.1-1.2
						C135.9,182.8,136.4,183.3,136.4,184z"/>
					<path class="st14" d="M145.6,180.6l-2.9-0.4c0.1-0.8,0.7-1.3,1.5-1.3c0,0,0,0,0.1,0C145.1,179.1,145.7,179.9,145.6,180.6z"/>
					<path class="st14" d="M135.8,180.8l-2.7,1c-0.3-0.7,0-1.5,0.7-1.8c0,0,0.1,0,0.1,0C134.7,179.7,135.5,180.1,135.8,180.8z"/>
					<path class="st14" d="M145.4,183.1c0,0.6-0.5,1.2-1.2,1.2c-0.6,0-1.2-0.5-1.2-1.2c0-0.6,0.5-1.2,1.1-1.2
						C144.8,181.9,145.3,182.5,145.4,183.1z"/>
					<polygon class="st17" points="139.7,181.9 140.8,190.2 145.3,188.7 					"/>
					<path class="st23" d="M136.5,191.2c-0.4,1.1,0.1,2.3,1.2,2.6c0,0,0,0,0,0c1.1,0.4,2.3-0.1,2.7-1.2L136.5,191.2z"/>
					<path class="st17" d="M136.9,192.3c1-0.1,1.9,0.7,2.1,1.7c-0.4,0.1-0.8,0.1-1.2-0.1c-0.7-0.2-1.2-0.8-1.3-1.5
						C136.6,192.4,136.8,192.4,136.9,192.3z"/>
				</g>
			</g>
		</g>
	</g>
</g>
</svg>
