<?xml version="1.0" encoding="utf-8"?>
<!-- Generator: Adobe Illustrator 28.0.0, SVG Export Plug-In . SVG Version: 6.00 Build 0)  -->
<svg version="1.1" id="Capa_1" xmlns="http://www.w3.org/2000/svg" xmlns:xlink="http://www.w3.org/1999/xlink" x="0px" y="0px"
	 viewBox="0 0 48 42" style="enable-background:new 0 0 48 42;" xml:space="preserve">
<style type="text/css">
	.st0{fill:#B6B6B7;}
</style>
<path class="st0" d="M16.6,19.2h-6.5c-0.8,0-1.4-0.3-2-0.8c-0.5-0.5-0.8-1.2-0.8-2v-0.9c0-2,0.7-3.8,2.2-5.2
	c1.4-1.4,3.2-2.2,5.2-2.2h1.8c0.5,0,0.9-0.2,1.3-0.5c0.4-0.4,0.5-0.8,0.5-1.3V2.5c0-0.5-0.2-0.9-0.5-1.3c-0.4-0.4-0.8-0.5-1.3-0.5
	h-1.8c-2,0-3.9,0.4-5.7,1.2C7.2,2.6,5.7,3.7,4.3,5C3,6.3,1.9,7.9,1.2,9.7C0.4,11.6,0,13.5,0,15.5v20.3c0,1.5,0.5,2.8,1.6,3.9
	c1.1,1.1,2.4,1.6,3.9,1.6h11.1c1.5,0,2.8-0.5,3.9-1.6c1.1-1.1,1.6-2.4,1.6-3.9V24.7c0-1.5-0.5-2.8-1.6-3.9
	C19.5,19.7,18.2,19.2,16.6,19.2z"/>
<path class="st0" d="M46.4,20.8c-1.1-1.1-2.4-1.6-3.9-1.6H36c-0.8,0-1.4-0.3-2-0.8c-0.5-0.5-0.8-1.2-0.8-2v-0.9c0-2,0.7-3.8,2.2-5.2
	c1.4-1.4,3.2-2.2,5.2-2.2h1.8c0.5,0,0.9-0.2,1.3-0.5c0.4-0.4,0.5-0.8,0.5-1.3V2.5c0-0.5-0.2-0.9-0.5-1.3c-0.4-0.4-0.8-0.5-1.3-0.5
	h-1.8c-2,0-3.9,0.4-5.7,1.2c-1.8,0.8-3.4,1.8-4.7,3.2c-1.3,1.3-2.4,2.9-3.2,4.7c-0.8,1.8-1.2,3.7-1.2,5.7v20.3
	c0,1.5,0.5,2.8,1.6,3.9c1.1,1.1,2.4,1.6,3.9,1.6h11.1c1.5,0,2.8-0.5,3.9-1.6c1.1-1.1,1.6-2.4,1.6-3.9V24.7
	C48,23.2,47.5,21.8,46.4,20.8z"/>
</svg>
